<svg xmlns="http://www.w3.org/2000/svg" xmlns:xlink="http://www.w3.org/1999/xlink" width="19.292" height="25" viewBox="0 0 19.292 25"><defs><style>.a{fill:none;}.b{clip-path:url(#a);}.c{fill:#fff;}</style><clipPath id="a"><rect class="a" width="19.292" height="25"/></clipPath></defs><g class="b"><path class="c" d="M21.244,12.917,13.977.53a.708.708,0,0,0-.816-.364L2.82,3a.869.869,0,0,0-.577.69,1.021,1.021,0,0,0,.276.9L7.928,9.6,2.682,11.047a.869.869,0,0,0-.577.69.982.982,0,0,0,.3.916l14.019,12.3a.672.672,0,0,0,.64.163.615.615,0,0,0,.251-.138A.97.97,0,0,0,17.629,24L15.7,15.7,20.779,14.3a.827.827,0,0,0,.54-.54A.989.989,0,0,0,21.244,12.917ZM14.567,14.16a.7.7,0,0,0-.477.4,1.033,1.033,0,0,0-.088.715l1.544,6.664-.113-.1L4.64,12.365l5.2-1.418a.856.856,0,0,0,.565-.69.956.956,0,0,0-.276-.9l-5.4-5.008,8.283-2.284.013.038,6.313,10.743Z" transform="translate(-2.087 -0.14)"/></g></svg>