<svg xmlns="http://www.w3.org/2000/svg" xmlns:xlink="http://www.w3.org/1999/xlink" width="23.753" height="25" viewBox="0 0 23.753 25"><defs><style>.a{fill:none;}.b{clip-path:url(#a);}.c{fill:#698397;}</style><clipPath id="a"><rect class="a" width="23.753" height="25"/></clipPath></defs><g class="b"><path class="c" d="M24.254,13.47a11.3,11.3,0,0,1-3.488,8.176,11.91,11.91,0,0,1-8.389,3.388A11.736,11.736,0,0,1,.5,13.47c0-.263.013-.525.025-.763,0-.088.088-.175.163-.15l.763.05a.154.154,0,0,1,.1.05.175.175,0,0,1,.038.113c-.013.238-.025.463-.025.7A10.678,10.678,0,0,0,11.652,23.958a10.739,10.739,0,0,0,11.5-9.789A10.266,10.266,0,0,0,20.6,6.656a10.859,10.859,0,0,0-7.076-3.638L14.74,4.193a.2.2,0,0,1,.038.113.153.153,0,0,1-.038.113l-.538.525a.171.171,0,0,1-.225,0L11.6,2.618a.122.122,0,0,1-.05-.113.153.153,0,0,1,.05-.113L13.978.08a.158.158,0,0,1,.225,0l.525.525a.158.158,0,0,1,.05.113.154.154,0,0,1-.05.1l-1.175,1.15a11.845,11.845,0,0,1,7.213,3.325,11.324,11.324,0,0,1,3.488,8.176Z" transform="translate(-0.501 -0.033)"/><g transform="translate(1.716 6.934)"><path class="c" d="M3.046,6.044c0,.025,0,.038-.013.05-.138.2-.275.4-.388.6a.1.1,0,0,1-.063.025H2.558l-.65-.375a.065.065,0,0,1-.025-.05.023.023,0,0,1,0-.038c.138-.225.275-.438.425-.65A.06.06,0,0,1,2.4,5.594l.625.413C3.033,6.019,3.046,6.031,3.046,6.044Z" transform="translate(-1.874 -5.58)"/></g><g transform="translate(2.655 5.804)"><path class="c" d="M3.133,4.676c-.174.188-.343.384-.508.581l.594.455c.15-.186.305-.369.471-.544Z" transform="translate(-2.625 -4.676)"/></g><g transform="translate(0.195 11.108)"><path class="c" d="M1.65,9.147a5.469,5.469,0,0,0-.113.7.083.083,0,0,1-.063.05H1.462l-.75-.1C.7,9.8.675,9.784.675,9.772S.65,9.747.662,9.722a6.7,6.7,0,0,1,.125-.75c.013-.038.038-.063.075-.05l.738.15c.025,0,.038.013.038.025S1.65,9.122,1.65,9.147Z" transform="translate(-0.657 -8.918)"/></g><g transform="translate(3.71 4.745)"><path class="c" d="M4.047,3.829c-.2.164-.393.336-.578.511L4,4.868c.175-.165.356-.325.541-.478Z" transform="translate(-3.469 -3.829)"/></g><g transform="translate(1.016 8.243)"><path class="c" d="M2.436,7.045l-.063.125c-.088.175-.175.35-.25.513,0,.025-.025.038-.05.038H2.048l-.7-.288c-.013,0-.025-.013-.025-.038s-.013-.025,0-.05a6.75,6.75,0,0,1,.325-.688.072.072,0,0,1,.088-.025l.663.325A.073.073,0,0,1,2.436,7.045Z" transform="translate(-1.314 -6.627)"/></g><g transform="translate(0.5 9.643)"><path class="c" d="M1.976,8.077c-.088.213-.15.438-.225.675a.054.054,0,0,1-.05.05c-.013,0-.013-.013-.025-.013L.951,8.6.914,8.565C.9,8.552.9,8.54.9,8.515c.075-.25.15-.5.238-.725a.056.056,0,0,1,.075-.038l.725.238c.013.013.025.025.025.038A.075.075,0,0,1,1.976,8.077Z" transform="translate(-0.901 -7.747)"/></g><g transform="translate(3.325 5.035)"><path class="c" d="M17.925,6.524a8.723,8.723,0,0,0-6.113-2.463,8.519,8.519,0,0,0-8.651,8.376,8.529,8.529,0,0,0,8.651,8.389,8.54,8.54,0,0,0,8.664-8.389A8.169,8.169,0,0,0,17.925,6.524ZM11.812,19.463a7.158,7.158,0,0,1-7.263-7.026,7.147,7.147,0,0,1,7.263-7.013,7.15,7.15,0,0,1,7.276,7.013A7.177,7.177,0,0,1,11.812,19.463Z" transform="translate(-3.161 -4.061)"/></g><g transform="translate(11.328 6.939)"><rect class="c" width="0.756" height="0.736"/></g><g transform="translate(11.328 19.183)"><rect class="c" width="0.756" height="0.736"/></g><g transform="translate(5.247 13.107)"><rect class="c" width="0.756" height="0.736"/></g><g transform="translate(17.747 13.107)"><rect class="c" width="0.756" height="0.736"/></g><g transform="translate(11.189 9.123)"><path class="c" d="M12.651,13.632a.186.186,0,0,1-.05.113l-.538.525a.142.142,0,0,1-.1.038.153.153,0,0,1-.113-.038l-2.35-2.3a.122.122,0,0,1-.05-.113V7.494a.155.155,0,0,1,.15-.163h.763a.155.155,0,0,1,.15.163v4L12.6,13.519A.186.186,0,0,1,12.651,13.632Z" transform="translate(-9.451 -7.331)"/></g></g></svg>