<svg xmlns="http://www.w3.org/2000/svg" xmlns:xlink="http://www.w3.org/1999/xlink" width="24.245" height="25" viewBox="0 0 24.245 25"><defs><style>.a{fill:none;}.b{clip-path:url(#a);}.c{fill:#698397;}</style><clipPath id="a"><rect class="a" width="24.245" height="25"/></clipPath></defs><g class="b"><g transform="translate(0.389)"><path class="c" d="M23.891,4.979,13.014.36a1.081,1.081,0,0,0-.81,0L1.314,4.979a.661.661,0,0,0-.445.577.661.661,0,0,0,.445.577L4.7,7.572l1.4.6,4.21,1.785,1.066.451.823.346a1.075,1.075,0,0,0,.4.084,1.056,1.056,0,0,0,.4-.084l.823-.346,1.053-.451L19.1,8.17l1.417-.6L23.89,6.134a.661.661,0,0,0,.445-.577A.661.661,0,0,0,23.891,4.979ZM18.75,6.816l-1.4.609L13.136,9.21l-.526.22-.526-.22-4.212-1.8-1.417-.6L3.488,5.556,12.61,1.682l9.123,3.874Z" transform="translate(-0.869 -0.281)"/></g><g transform="translate(0 10.698)"><path class="c" d="M24.725,10.028a1.049,1.049,0,0,1-.7.924l-3.41,1.459-1.056.451L13.251,15.57a1.7,1.7,0,0,1-1.284,0L5.642,12.862l-1.056-.451-3.41-1.459a1.048,1.048,0,0,1-.7-.924,1.048,1.048,0,0,1,.7-.924l3.6-1.532,1.391.6L1.818,10.028,5.99,11.813l1.056.451,5.563,2.383,5.563-2.383,1.043-.451,4.172-1.785L19.042,8.17l1.4-.6L24.029,9.1A1.047,1.047,0,0,1,24.725,10.028Z" transform="translate(-0.48 -7.572)"/></g><g transform="translate(0.262 17.505)"><path class="c" d="M23.938,13.807l-3.27-1.4-1.063.451L23.453,14.5,12.609,19.119,1.752,14.5,5.6,12.862l-1.063-.451-3.27,1.4a.72.72,0,0,0,0,1.386l10.857,4.619a1.3,1.3,0,0,0,.969,0l10.844-4.619a.72.72,0,0,0,0-1.386Z" transform="translate(-0.743 -12.411)"/></g></g></svg>