<svg xmlns="http://www.w3.org/2000/svg" xmlns:xlink="http://www.w3.org/1999/xlink" width="19.695" height="25" viewBox="0 0 19.695 25"><defs><style>.a{fill:none;}.b{clip-path:url(#a);}.c{fill:#698397;}</style><clipPath id="a"><rect class="a" width="19.695" height="25"/></clipPath></defs><g class="b"><path class="c" d="M19.507.031H4.25A2.232,2.232,0,0,0,2.031,2.25V22.812A2.224,2.224,0,0,0,4.25,25.031H19.507a2.216,2.216,0,0,0,2.219-2.219V2.25A2.216,2.216,0,0,0,19.507.031Zm.645,22.781a.64.64,0,0,1-.645.645H4.25a.648.648,0,0,1-.645-.645V2.25a.648.648,0,0,1,.645-.645H19.507a.64.64,0,0,1,.645.645V22.812Z" transform="translate(-2.031 -0.031)"/><g transform="translate(4.982 7.721)"><g transform="translate(2.31)"><path class="c" d="M14.841,6.431v.76a.248.248,0,0,1-.25.25H7.671a.248.248,0,0,1-.25-.25v-.76a.248.248,0,0,1,.25-.25h6.92A.248.248,0,0,1,14.841,6.431Z" transform="translate(-7.421 -6.181)"/></g><path class="c" d="M6.381,6.811a.627.627,0,0,1-.63.63.63.63,0,1,1,0-1.26A.627.627,0,0,1,6.381,6.811Z" transform="translate(-5.111 -6.181)"/></g><g transform="translate(5.018 4.407)"><g transform="translate(2.31)"><path class="c" d="M14.871,3.791v.77a.254.254,0,0,1-.25.25H7.691a.248.248,0,0,1-.25-.25v-.77a.248.248,0,0,1,.25-.25h6.93A.254.254,0,0,1,14.871,3.791Z" transform="translate(-7.441 -3.541)"/></g><path class="c" d="M6.4,4.171a.636.636,0,0,1-.63.64.644.644,0,0,1-.64-.64.636.636,0,0,1,.64-.63A.627.627,0,0,1,6.4,4.171Z" transform="translate(-5.131 -3.541)"/></g><g transform="translate(4.982 11.024)"><g transform="translate(2.31)"><path class="c" d="M14.841,9.061v.77a.248.248,0,0,1-.25.25H7.671a.248.248,0,0,1-.25-.25v-.77a.248.248,0,0,1,.25-.25h6.92A.248.248,0,0,1,14.841,9.061Z" transform="translate(-7.421 -8.811)"/></g><g transform="translate(0 0)"><path class="c" d="M6.381,9.451a.627.627,0,0,1-.63.63.636.636,0,0,1-.64-.63.644.644,0,0,1,.64-.64A.636.636,0,0,1,6.381,9.451Z" transform="translate(-5.111 -8.811)"/></g></g><g transform="translate(4.982 14.339)"><g transform="translate(2.31 0)"><path class="c" d="M14.841,11.7v.77a.248.248,0,0,1-.25.25H7.671a.248.248,0,0,1-.25-.25V11.7a.248.248,0,0,1,.25-.25h6.92A.248.248,0,0,1,14.841,11.7Z" transform="translate(-7.421 -11.451)"/></g><path class="c" d="M6.381,12.091a.627.627,0,0,1-.63.63.636.636,0,0,1-.64-.63.644.644,0,0,1,.64-.64A.636.636,0,0,1,6.381,12.091Z" transform="translate(-5.111 -11.451)"/></g><g transform="translate(4.982 17.653)"><g transform="translate(2.31)"><path class="c" d="M14.841,14.341v.77a.254.254,0,0,1-.25.25H7.671a.254.254,0,0,1-.25-.25v-.77a.248.248,0,0,1,.25-.25h6.92A.248.248,0,0,1,14.841,14.341Z" transform="translate(-7.421 -14.091)"/></g><path class="c" d="M6.381,14.721a.636.636,0,0,1-.63.64.644.644,0,0,1-.64-.64.636.636,0,0,1,.64-.63A.627.627,0,0,1,6.381,14.721Z" transform="translate(-5.111 -14.091)"/></g></g></svg>