<?xml version="1.0" encoding="iso-8859-1"?>
<!-- Generator: Adobe Illustrator 23.0.1, SVG Export Plug-In . SVG Version: 6.00 Build 0)  -->
<svg version="1.1" id="Livello_1" xmlns="http://www.w3.org/2000/svg" xmlns:xlink="http://www.w3.org/1999/xlink" x="0px" y="0px"
	 viewBox="0 0 90 20" style="enable-background:new 0 0 90 20;" xml:space="preserve">
<g>
	<polygon style="fill:#A2C837;" points="4.247,17.215 4.238,17.224 4.247,17.213 	"/>
	<path style="fill:#A2C837;" d="M8.491,11.23c-0.624,0.742-1.269,1.466-1.84,2.252c-0.035,0.048-0.091,0.089-0.145,0.115
		c-1.258,0.604-2.505,1.228-3.742,1.874c-0.033,0.017-0.067,0.044-0.113,0.013c-0.029-0.087,0.041-0.143,0.078-0.206
		c0.398-0.681,0.833-1.338,1.265-1.998c0.058-0.088,0.124-0.157,0.223-0.201c1.38-0.621,2.759-1.244,4.138-1.866
		c0.028-0.013,0.061-0.016,0.091-0.024C8.462,11.203,8.477,11.217,8.491,11.23z"/>
	<path style="fill:#A2C837;" d="M4.936,16.523c0.375-0.637,0.774-1.177,1.113-1.751c0.436-0.737,1.034-1.228,1.834-1.532
		c0.698-0.265,1.365-0.613,2.046-0.921c0.074-0.034,0.146-0.101,0.24-0.054c0.012,0.076-0.041,0.118-0.081,0.165
		c-0.641,0.759-1.241,1.549-1.818,2.358c-0.059,0.083-0.119,0.158-0.22,0.206c-0.991,0.466-1.97,0.954-2.941,1.46
		C5.077,16.47,5.04,16.481,4.936,16.523z"/>
	<path style="fill:#A2C837;" d="M9.524,16.92c0.04-0.167,0.134-0.285,0.208-0.412c0.582-0.996,1.254-1.93,1.981-2.825
		c0.044-0.054,0.09-0.12,0.15-0.146c0.813-0.36,1.628-0.714,2.475-1.035c-0.031,0.046-0.058,0.096-0.093,0.138
		c-0.818,0.963-1.563,1.98-2.211,3.066c-0.049,0.082-0.101,0.153-0.195,0.196c-0.748,0.335-1.494,0.676-2.24,1.014
		C9.586,16.92,9.568,16.917,9.524,16.92z"/>
	<path style="fill:#A2C837;" d="M13.083,9.335c-0.013,0.013-0.02,0.02-0.033,0.033c-0.743,0.704-1.48,1.421-2.177,2.171
		c-0.053,0.059-0.118,0.105-0.191,0.138c-1.118,0.507-2.237,1.02-3.355,1.526c-0.02,0.013-0.04,0.013-0.072,0.02
		c-0.033-0.079,0.033-0.112,0.066-0.158c0.572-0.737,1.191-1.428,1.809-2.118c0.059-0.066,0.125-0.125,0.204-0.158
		c1.204-0.52,2.414-1.013,3.631-1.48c0.007,0,0.013,0,0.013,0c0.02-0.013,0.04-0.013,0.059-0.013
		C13.05,9.309,13.07,9.322,13.083,9.335z"/>
	<path style="fill:#A2C837;" d="M8.766,14.588c0.645-0.933,1.366-1.805,2.117-2.654c0.045-0.051,0.108-0.093,0.172-0.12
		c0.962-0.409,1.926-0.814,2.89-1.219c0.028-0.012,0.061-0.012,0.092-0.017c0.007,0.008,0.014,0.016,0.02,0.024
		c-0.51,0.556-1.1,1.05-1.519,1.672c-0.634,0.943-1.562,1.414-2.558,1.816c-0.4,0.162-0.772,0.387-1.182,0.527
		C8.788,14.608,8.777,14.598,8.766,14.588z"/>
	<path style="fill:#A2C837;" d="M17.271,11.352c-0.284,0.326-0.57,0.651-0.852,0.979c-0.601,0.702-1.169,1.428-1.683,2.196
		c-0.087,0.13-0.193,0.216-0.339,0.276c-0.584,0.239-1.163,0.488-1.744,0.733c-0.057,0.024-0.115,0.043-0.212,0.08
		c0.095-0.254,0.241-0.436,0.367-0.625c0.619-0.926,1.304-1.801,2.046-2.631c0.102-0.115,0.215-0.203,0.359-0.258
		c0.676-0.261,1.34-0.554,2.032-0.774C17.255,11.336,17.263,11.344,17.271,11.352z"/>
	<path style="fill:#A2C837;" d="M15.131,14.467c0.332-0.556,0.749-1.05,1.156-1.55c0.497-0.612,1.026-1.195,1.577-1.759
		c0.044-0.045,0.087-0.102,0.141-0.122c0.649-0.238,1.299-0.47,1.98-0.714c-0.009,0.128-0.081,0.168-0.13,0.217
		c-0.954,0.944-1.827,1.958-2.599,3.056c-0.049,0.07-0.09,0.151-0.179,0.182c-0.646,0.225-1.271,0.508-1.927,0.705L15.131,14.467z"
		/>
	<path style="fill:#A2C837;" d="M17.547,9.262c-0.495,0.472-0.997,0.938-1.484,1.419c-0.375,0.371-0.731,0.762-1.094,1.145
		c-0.071,0.075-0.144,0.141-0.242,0.182c-0.769,0.324-1.537,0.651-2.306,0.977c-0.036,0.015-0.076,0.019-0.114,0.028l-0.016-0.014
		c0.385-0.539,0.849-1.01,1.294-1.496c0.244-0.267,0.522-0.503,0.756-0.778c0.329-0.387,0.747-0.606,1.217-0.766
		c0.661-0.225,1.3-0.514,1.972-0.713L17.547,9.262z"/>
	<path style="fill:#A2C837;" d="M17.674,13.507c0.496-0.743,1.086-1.409,1.688-2.065c0.389-0.424,0.793-0.834,1.217-1.223
		c0.052-0.048,0.102-0.11,0.165-0.131c0.565-0.191,1.132-0.375,1.702-0.562c0.035,0.099-0.03,0.122-0.063,0.153
		c-1.026,0.951-1.945,1.999-2.788,3.114c-0.052,0.069-0.1,0.137-0.191,0.167c-0.567,0.19-1.133,0.384-1.699,0.577
		C17.695,13.528,17.684,13.518,17.674,13.507z"/>
	<path style="fill:#A2C837;" d="M17.286,7.772c-0.859,0.701-1.709,1.413-2.522,2.167c-0.045,0.042-0.101,0.075-0.158,0.099
		c-0.981,0.404-1.962,0.807-2.944,1.208c-0.021,0.009-0.046,0.009-0.069,0.014c-0.009-0.009-0.017-0.018-0.026-0.026
		c0.74-0.82,1.554-1.562,2.388-2.284c0.04-0.035,0.095-0.055,0.146-0.075c1.004-0.393,2.019-0.759,3.037-1.116
		c0.037-0.013,0.077-0.016,0.115-0.024C17.263,7.747,17.274,7.759,17.286,7.772z"/>
	<path style="fill:#A2C837;" d="M24.692,8.912C24.675,9.06,24.588,9.1,24.527,9.155c-1.001,0.908-1.927,1.886-2.765,2.947
		c-0.054,0.068-0.099,0.148-0.187,0.175c-0.509,0.162-1.019,0.321-1.538,0.484c-0.023-0.104,0.042-0.147,0.081-0.197
		c0.891-1.14,1.875-2.193,2.963-3.147c0.036-0.031,0.069-0.073,0.111-0.087C23.678,9.17,24.169,9.034,24.692,8.912z"/>
	<path style="fill:#A2C837;" d="M15.552,11.622c0.561-0.664,1.205-1.244,1.842-1.831c0.075-0.069,0.161-0.129,0.228-0.205
		c0.629-0.711,1.504-0.946,2.355-1.228c0.25-0.083,0.501-0.166,0.76-0.228c-0.111,0.19-0.289,0.296-0.443,0.425
		c-0.804,0.673-1.588,1.369-2.328,2.113c-0.055,0.055-0.112,0.121-0.181,0.148c-0.736,0.28-1.474,0.554-2.212,0.829
		C15.566,11.636,15.559,11.629,15.552,11.622z"/>
	<path style="fill:#A2C837;" d="M26.821,8.39c-0.002,0.109-0.069,0.134-0.114,0.172c-1.075,0.91-2.052,1.914-2.924,3.019
		c-0.066,0.084-0.136,0.144-0.243,0.171c-0.456,0.114-0.911,0.235-1.398,0.361c0.096-0.203,0.231-0.327,0.346-0.463
		c0.765-0.904,1.599-1.742,2.486-2.527c0.076-0.067,0.15-0.135,0.216-0.216c0.133-0.162,0.31-0.24,0.525-0.275
		C26.084,8.572,26.447,8.474,26.821,8.39z"/>
	<path style="fill:#A2C837;" d="M21.144,6.468c-0.48,0.356-0.962,0.709-1.441,1.068c-0.259,0.194-0.527,0.379-0.763,0.598
		c-0.419,0.389-0.898,0.645-1.442,0.818c-0.652,0.207-1.29,0.461-1.934,0.695c-0.007-0.008-0.013-0.016-0.02-0.024
		c0.847-0.801,1.764-1.517,2.688-2.223c0.072-0.055,0.169-0.082,0.258-0.111c0.807-0.262,1.615-0.522,2.423-0.782
		c0.074-0.024,0.147-0.059,0.229-0.039L21.144,6.468z"/>
	<path style="fill:#A2C837;" d="M28.716,8.052c-0.565,0.503-1.12,1.002-1.646,1.534c-0.494,0.499-0.958,1.024-1.401,1.569
		c-0.054,0.067-0.101,0.141-0.196,0.161c-0.422,0.088-0.844,0.177-1.267,0.266c-0.03-0.094,0.034-0.129,0.07-0.174
		c0.929-1.131,1.976-2.142,3.119-3.055c0.095-0.076,0.196-0.123,0.316-0.147C28.043,8.14,28.371,8.061,28.716,8.052z"/>
	<path style="fill:#A2C837;" d="M23.614,7.284c-0.677,0.54-1.373,1.056-2.021,1.632c-0.041,0.037-0.088,0.068-0.124,0.109
		c-0.578,0.665-1.316,1.046-2.162,1.251c-0.256,0.062-0.501,0.17-0.81,0.278c0.152-0.156,0.255-0.27,0.366-0.375
		c0.846-0.792,1.731-1.538,2.646-2.249c0.074-0.058,0.145-0.12,0.24-0.147c0.612-0.178,1.223-0.359,1.835-0.538
		C23.594,7.258,23.604,7.271,23.614,7.284z"/>
	<path style="fill:#A2C837;" d="M26.005,11.209c0.217-0.324,0.446-0.563,0.666-0.805c0.743-0.818,1.551-1.566,2.412-2.259
		c0.217-0.175,0.444-0.283,0.72-0.308c0.217-0.02,0.432-0.063,0.671-0.052c-0.112,0.094-0.225,0.187-0.336,0.281
		c-1.008,0.85-1.947,1.769-2.759,2.812c-0.048,0.061-0.088,0.127-0.178,0.141C26.821,11.077,26.442,11.139,26.005,11.209z"/>
	<path style="fill:#A2C837;" d="M32.089,7.608c-0.505,0.414-0.958,0.791-1.386,1.197c-0.601,0.57-1.179,1.162-1.699,1.807
		c-0.111,0.138-0.226,0.216-0.412,0.224c-0.273,0.012-0.545,0.062-0.831,0.097c-0.006-0.129,0.077-0.186,0.132-0.253
		c0.903-1.094,1.947-2.039,3.057-2.916c0.09-0.071,0.185-0.109,0.302-0.116C31.509,7.635,31.763,7.578,32.089,7.608z"/>
	<path style="fill:#A2C837;" d="M26.35,6.515c-0.234,0.224-0.52,0.377-0.782,0.563c-0.81,0.574-1.593,1.184-2.337,1.841
		c-0.122,0.108-0.253,0.176-0.408,0.221c-0.497,0.144-0.992,0.299-1.515,0.458c0.032-0.112,0.106-0.156,0.164-0.208
		c0.947-0.842,1.94-1.626,2.981-2.349c0.039-0.027,0.076-0.063,0.119-0.076C25.157,6.785,25.739,6.592,26.35,6.515L26.35,6.515z"/>
	<path style="fill:#A2C837;" d="M19.229,8.29c0.025-0.092,0.11-0.127,0.175-0.178c0.867-0.679,1.765-1.316,2.684-1.922
		c0.223-0.147,0.483-0.186,0.73-0.26c0.593-0.176,1.189-0.341,1.806-0.461c-0.176,0.113-0.352,0.228-0.529,0.34
		c-0.826,0.521-1.637,1.064-2.42,1.648c-0.09,0.067-0.185,0.115-0.292,0.15c-0.666,0.218-1.33,0.439-1.995,0.659
		C19.338,8.283,19.29,8.321,19.229,8.29z"/>
	<path style="fill:#A2C837;" d="M78.463,17.175c0.371-0.187,0.713-0.367,1.077-0.491c0.333-0.113,0.671,0.009,1.006,0.023
		c0.604,0.026,1.207,0.085,1.81,0.126c0.469,0.032,0.938,0.058,1.416,0.116c-0.326,0.193-0.612,0.431-0.934,0.609
		c-0.105,0.058-0.263,0.039-0.394,0.028c-0.709-0.063-1.416-0.138-2.125-0.201c-0.554-0.049-1.109-0.088-1.664-0.127
		C78.587,17.253,78.536,17.224,78.463,17.175z"/>
	<path style="fill:#A2C837;" d="M33.485,7.541c-0.535,0.44-1.035,0.859-1.507,1.313c-0.547,0.525-1.062,1.079-1.525,1.678
		c-0.091,0.117-0.191,0.174-0.335,0.181c-0.275,0.013-0.549,0.035-0.829,0.053c-0.012-0.109,0.073-0.157,0.124-0.216
		c0.926-1.082,1.962-2.048,3.097-2.908C32.659,7.53,33.097,7.481,33.485,7.541z"/>
	<path style="fill:#A2C837;" d="M34.773,7.516c-0.17,0.211-0.351,0.322-0.51,0.456c-0.901,0.76-1.725,1.593-2.418,2.55
		c-0.077,0.106-0.156,0.157-0.29,0.152c-0.266-0.01-0.533-0.003-0.801-0.003c-0.017-0.104,0.061-0.149,0.107-0.206
		c0.879-1.084,1.905-2.014,3.008-2.862C34.134,7.399,34.438,7.551,34.773,7.516z"/>
	<path style="fill:#A2C837;" d="M35.952,7.631c-0.541,0.45-1.024,0.877-1.476,1.338c-0.492,0.503-0.952,1.031-1.365,1.6
		c-0.09,0.124-0.185,0.173-0.336,0.155c-0.216-0.026-0.434-0.033-0.651-0.049c-0.004-0.101,0.058-0.146,0.099-0.2
		c0.824-1.081,1.808-1.997,2.883-2.821c0.069-0.053,0.137-0.106,0.233-0.095C35.524,7.582,35.709,7.603,35.952,7.631z"/>
	<path style="fill:#A2C837;" d="M85.711,16.077c-0.513,0.179-0.963,0.494-1.481,0.592c-0.352,0.066-0.733-0.008-1.1-0.041
		c-0.437-0.04-0.873-0.07-1.312-0.085c-0.477-0.016-0.95-0.102-1.429-0.101c-0.023,0-0.063-0.031-0.066-0.052
		c-0.006-0.045,0.031-0.065,0.074-0.071c0.355-0.046,0.681-0.194,1.015-0.305c0.33-0.11,0.657-0.133,0.999-0.117
		c1.047,0.049,2.094,0.085,3.142,0.127C85.598,16.025,85.648,16.007,85.711,16.077z"/>
	<path style="fill:#A2C837;" d="M28.716,5.982c-0.481,0.325-0.965,0.647-1.443,0.977c-0.394,0.272-0.77,0.569-1.145,0.868
		c-0.438,0.349-0.86,0.745-1.471,0.808c-0.277,0.028-0.545,0.139-0.823,0.213c-0.016-0.116,0.064-0.14,0.112-0.18
		c1.019-0.85,2.102-1.612,3.219-2.327c0.152-0.097,0.322-0.123,0.49-0.163c0.348-0.082,0.698-0.159,1.047-0.238
		C28.707,5.954,28.712,5.968,28.716,5.982z"/>
	<path style="fill:#A2C837;" d="M36.994,7.809c-1.055,0.877-1.981,1.811-2.689,2.943c-0.053,0.085-0.113,0.114-0.214,0.097
		c-0.186-0.032-0.375-0.047-0.562-0.074c-0.057-0.008-0.144,0.03-0.162-0.05c-0.009-0.039,0.041-0.096,0.073-0.139
		c0.452-0.598,0.954-1.152,1.485-1.681c0.338-0.337,0.715-0.631,1.04-0.984C36.241,7.621,36.603,7.67,36.994,7.809z"/>
	<path style="fill:#A2C837;" d="M34.574,10.908c0.003-0.117,0.076-0.184,0.128-0.26c0.418-0.616,0.907-1.169,1.431-1.697
		c0.357-0.359,0.712-0.717,1.129-1.006c0.063-0.044,0.576-0.032,0.626,0.018c0.089,0.089,0.005,0.141-0.051,0.19
		c-0.29,0.254-0.558,0.53-0.832,0.801c-0.57,0.563-1.06,1.186-1.465,1.873c-0.109,0.184-0.216,0.235-0.411,0.184
		C34.947,10.963,34.759,10.941,34.574,10.908z"/>
	<path style="fill:#A2C837;" d="M36.402,11.292c-0.196-0.05-0.406-0.089-0.606-0.158c-0.143-0.049-0.038-0.145,0-0.207
		c0.263-0.441,0.583-0.839,0.899-1.243c0.436-0.557,0.959-1.023,1.488-1.484c0.089-0.077,0.581-0.005,0.63,0.098
		c0.041,0.088-0.051,0.12-0.097,0.165c-0.434,0.413-0.849,0.843-1.223,1.312c-0.34,0.426-0.641,0.877-0.903,1.354
		C36.5,11.291,36.497,11.289,36.402,11.292z"/>
	<path style="fill:#A2C837;" d="M22.508,7.216c0.55-0.436,1.168-0.773,1.735-1.183c0.957-0.691,2.01-1.13,3.172-1.316
		c0.084-0.013,0.162-0.067,0.257-0.036c-0.021,0.092-0.108,0.106-0.17,0.141c-0.965,0.55-1.914,1.127-2.838,1.745
		c-0.126,0.084-0.259,0.145-0.405,0.186c-0.576,0.161-1.15,0.328-1.725,0.492C22.525,7.236,22.517,7.226,22.508,7.216z"/>
	<path style="fill:#A2C837;" d="M30.919,5.559c-0.241,0.149-0.46,0.285-0.679,0.42c-0.927,0.571-1.812,1.201-2.661,1.882
		c-0.114,0.092-0.236,0.146-0.38,0.174c-0.355,0.071-0.707,0.154-1.059,0.238c-0.045,0.011-0.089,0.051-0.121-0.005
		c-0.035-0.062,0.032-0.068,0.064-0.097c0.642-0.553,1.36-0.999,2.058-1.472c0.189-0.128,0.39-0.239,0.573-0.376
		C29.357,5.844,30.074,5.577,30.919,5.559z"/>
	<path style="fill:#A2C837;" d="M36.765,11.382c0.302-0.568,0.658-1.095,1.067-1.585c0.369-0.442,0.768-0.855,1.196-1.241
		c0.127-0.114,0.549-0.057,0.628,0.089c0.047,0.087-0.05,0.117-0.094,0.16c-0.495,0.488-0.946,1.012-1.329,1.594
		c-0.217,0.33-0.412,0.672-0.567,1.034c-0.064,0.15-0.147,0.182-0.292,0.133C37.173,11.499,36.968,11.442,36.765,11.382z"/>
	<path style="fill:#A2C837;" d="M79.008,16.598c-0.381,0.183-0.679,0.378-0.995,0.53c-0.22,0.106-0.478-0.015-0.717-0.035
		c-0.457-0.038-0.911-0.117-1.366-0.177c-0.479-0.063-0.958-0.123-1.438-0.183c-0.032-0.004-0.07-0.005-0.076-0.039
		c-0.01-0.057,0.034-0.079,0.081-0.096c0.589-0.203,1.146-0.467,1.821-0.341c0.834,0.156,1.689,0.203,2.534,0.298
		C78.881,16.559,78.909,16.571,79.008,16.598z"/>
	<path style="fill:#A2C837;" d="M40.439,9.077c-0.02,0.026-0.046,0.065-0.077,0.099c-0.721,0.784-1.289,1.664-1.67,2.662
		c-0.045,0.117-0.108,0.138-0.217,0.089c-0.079-0.035-0.163-0.058-0.244-0.087c-0.398-0.138-0.4-0.139-0.216-0.508
		c0.458-0.92,1.093-1.706,1.832-2.412c0.071-0.068,0.137-0.141,0.264-0.076C40.288,8.936,40.434,9.015,40.439,9.077z"/>
	<path style="fill:#A2C837;" d="M41.032,12.854c0.1-0.606,0.295-1.178,0.573-1.721c0.151-0.295,0.331-0.572,0.515-0.847
		c0.072-0.107,0.13-0.124,0.244-0.047c0.417,0.278,0.419,0.272,0.183,0.723c-0.358,0.685-0.587,1.409-0.63,2.184
		c-0.01,0.177-0.062,0.201-0.213,0.128c-0.184-0.09-0.374-0.165-0.563-0.244C41.061,12.995,41.007,12.949,41.032,12.854z"/>
	<path style="fill:#A2C837;" d="M39.582,12.359c-0.185-0.075-0.408-0.155-0.622-0.255c-0.109-0.051-0.02-0.142,0.004-0.203
		c0.305-0.785,0.734-1.498,1.268-2.149c0.075-0.091,0.148-0.185,0.23-0.27c0.32-0.335,0.197-0.325,0.626-0.088
		c0.149,0.083,0.163,0.14,0.049,0.274c-0.639,0.754-1.114,1.601-1.404,2.549c-0.009,0.03-0.021,0.059-0.032,0.089
		C39.687,12.345,39.669,12.379,39.582,12.359z"/>
	<path style="fill:#A2C837;" d="M88.163,15.118c-0.903,0.427-1.823,0.737-2.851,0.637c-0.806-0.078-1.62-0.07-2.43-0.101
		c-0.028-0.001-0.056-0.008-0.087-0.037c0.839-0.207,1.629-0.589,2.537-0.525c0.854,0.06,1.716,0.021,2.574,0.026
		C87.992,15.118,88.077,15.118,88.163,15.118z"/>
	<path style="fill:#A2C837;" d="M41.565,9.693c0.114,0.084,0.252,0.174,0.377,0.281c0.054,0.046-0.011,0.101-0.04,0.143
		c-0.557,0.788-0.954,1.645-1.122,2.601c-0.018,0.104-0.062,0.135-0.16,0.085c-0.07-0.036-0.144-0.063-0.216-0.095
		c-0.492-0.214-0.491-0.214-0.302-0.73c0.293-0.799,0.723-1.518,1.275-2.165C41.42,9.763,41.45,9.687,41.565,9.693z"/>
	<path style="fill:#A2C837;" d="M32.912,5.247c-0.524,0.316-1.004,0.598-1.477,0.893c-0.669,0.418-1.321,0.861-1.942,1.348
		c-0.142,0.111-0.291,0.178-0.468,0.203c-0.302,0.042-0.603,0.096-0.924,0.109c0.161-0.122,0.321-0.247,0.484-0.367
		c0.877-0.647,1.789-1.239,2.736-1.777C31.833,5.364,32.207,5.265,32.912,5.247z"/>
	<path style="fill:#A2C837;" d="M42.17,13.285c0.042-0.852,0.3-1.661,0.737-2.417c0.071-0.122,0.13-0.146,0.255-0.061
		c0.413,0.28,0.416,0.275,0.234,0.744c-0.268,0.691-0.403,1.406-0.357,2.149c0.012,0.191-0.045,0.199-0.191,0.121
		c-0.174-0.092-0.352-0.176-0.532-0.256C42.201,13.513,42.141,13.437,42.17,13.285z"/>
	<path style="fill:#A2C837;" d="M73.435,16.858c-0.185,0.17-0.368,0.34-0.553,0.508c-0.105,0.095-0.228,0.042-0.339,0.023
		c-0.566-0.097-1.13-0.203-1.695-0.306c-0.369-0.068-0.738-0.138-1.108-0.204c-0.053-0.01-0.128,0.007-0.137-0.059
		c-0.01-0.07,0.053-0.106,0.118-0.125c0.008-0.002,0.017-0.003,0.022-0.007c0.465-0.399,0.976-0.391,1.545-0.249
		c0.647,0.161,1.315,0.238,1.974,0.353C73.322,16.803,73.387,16.801,73.435,16.858z"/>
	<path style="fill:#A2C837;" d="M25.499,6.374c0.594-0.43,1.237-0.78,1.865-1.154c0.115-0.069,0.237-0.126,0.347-0.201
		c0.854-0.584,1.814-0.846,2.864-0.941c-0.389,0.207-0.754,0.4-1.117,0.596c-0.728,0.393-1.443,0.808-2.142,1.249
		c-0.229,0.144-0.491,0.161-0.742,0.217c-0.359,0.081-0.705,0.221-1.078,0.232L25.499,6.374z"/>
	<path style="fill:#A2C837;" d="M76.371,16.019c0.772-0.281,1.526-0.549,2.37-0.403c0.664,0.115,1.346,0.124,2.02,0.18
		c0.076,0.006,0.151,0.015,0.232,0.061c-0.461,0.165-0.913,0.376-1.387,0.478c-0.294,0.063-0.624-0.035-0.937-0.068
		C77.903,16.186,77.137,16.102,76.371,16.019z"/>
	<path style="fill:#A2C837;" d="M34.614,5.048c-0.054,0.12-0.153,0.143-0.233,0.188c-1.131,0.625-2.222,1.312-3.27,2.068
		c-0.1,0.072-0.202,0.107-0.325,0.118C30.524,7.447,30.262,7.487,30,7.521c-0.008-0.019-0.016-0.037-0.025-0.056
		c0.266-0.188,0.528-0.381,0.797-0.564c0.899-0.611,1.832-1.166,2.789-1.681C33.89,5.045,34.256,5.131,34.614,5.048z"/>
	<path style="fill:#A2C837;" d="M69.986,16.21c-0.267,0.188-0.506,0.321-0.715,0.5c-0.074,0.063-0.187,0.043-0.275,0.02
		c-0.759-0.201-1.535-0.33-2.288-0.556c-0.051-0.015-0.124,0.003-0.137-0.064c-0.014-0.071,0.067-0.075,0.108-0.105
		c0.204-0.149,0.443-0.229,0.671-0.333c0.091-0.041,0.189-0.053,0.296-0.027c0.725,0.175,1.451,0.343,2.177,0.514
		C69.858,16.168,69.893,16.181,69.986,16.21z"/>
	<path style="fill:#A2C837;" d="M74.895,16.148c-0.337,0.152-0.656,0.328-0.996,0.438c-0.231,0.075-0.481-0.041-0.72-0.081
		c-0.727-0.121-1.453-0.251-2.18-0.41c0.555-0.169,1.049-0.515,1.687-0.368c0.68,0.156,1.378,0.235,2.068,0.348
		C74.798,16.082,74.85,16.073,74.895,16.148z"/>
	<path style="fill:#A2C837;" d="M31.637,7.261c0.393-0.258,0.785-0.519,1.18-0.775c0.713-0.462,1.452-0.88,2.203-1.278
		c0.417-0.221,0.608-0.256,1.121-0.202c-0.042,0.092-0.131,0.11-0.202,0.148c-1.135,0.603-2.24,1.255-3.272,2.024
		c-0.085,0.064-0.171,0.099-0.28,0.102c-0.242,0.008-0.484,0.031-0.726,0.048C31.653,7.306,31.645,7.284,31.637,7.261z"/>
	<path style="fill:#A2C837;" d="M83.533,15.098c-0.57,0.17-1.108,0.349-1.656,0.485c-0.19,0.047-0.406-0.015-0.61-0.021
		c-0.801-0.027-1.596-0.137-2.402-0.241c0.375-0.089,0.754-0.162,1.123-0.27c0.58-0.17,1.16-0.126,1.749-0.073
		c0.517,0.047,1.038,0.044,1.558,0.065C83.363,15.046,83.436,15.022,83.533,15.098z"/>
	<path style="fill:#A2C837;" d="M28.215,5.758c0.608-0.43,1.249-0.781,1.896-1.12c0.467-0.245,0.939-0.482,1.413-0.713
		c0.354-0.172,0.751-0.159,1.126-0.242c0.114-0.025,0.232-0.035,0.363-0.053c-0.017,0.087-0.085,0.095-0.132,0.118
		c-1.083,0.511-2.141,1.07-3.184,1.659c-0.362,0.205-0.794,0.183-1.186,0.295C28.415,5.729,28.314,5.739,28.215,5.758z"/>
	<path style="fill:#A2C837;" d="M86.526,14.28c-0.622,0.171-1.239,0.36-1.867,0.505c-0.328,0.076-0.675,0.018-1.013,0.005
		c-0.61-0.023-1.22-0.059-1.825-0.089c1.522-0.583,3.104-0.555,4.693-0.465C86.518,14.236,86.521,14.258,86.526,14.28z"/>
	<path style="fill:#A2C837;" d="M33.16,7.213c0.357-0.315,0.748-0.56,1.14-0.804c0.79-0.49,1.608-0.928,2.434-1.353
		c0.25-0.129,0.496-0.098,0.761-0.059c-0.047,0.111-0.142,0.124-0.215,0.162c-1.127,0.584-2.213,1.233-3.246,1.97
		C33.763,7.322,33.456,7.18,33.16,7.213z"/>
	<path style="fill:#A2C837;" d="M76.996,15.493c-0.46,0.138-0.905,0.304-1.365,0.397c-0.305,0.062-0.623-0.058-0.935-0.098
		c-0.558-0.071-1.116-0.137-1.696-0.29c0.377-0.183,0.765-0.179,1.124-0.283c0.344-0.1,0.681-0.073,1.027-0.019
		c0.537,0.084,1.078,0.145,1.617,0.217C76.841,15.426,76.925,15.409,76.996,15.493z"/>
	<path style="fill:#A2C837;" d="M39.802,5.214c-0.041,0.096-0.126,0.109-0.193,0.143c-1.121,0.564-2.192,1.211-3.207,1.949
		c-0.097,0.071-0.659,0.075-0.736,0.002c-0.066-0.062-0.002-0.096,0.041-0.125c0.33-0.222,0.649-0.464,0.996-0.657
		c0.749-0.418,1.49-0.85,2.253-1.243C39.236,5.139,39.497,5.088,39.802,5.214z"/>
	<path style="fill:#A2C837;" d="M38.755,5.094c-0.136,0.072-0.243,0.13-0.351,0.186c-0.886,0.463-1.749,0.964-2.581,1.519
		c-0.13,0.086-0.276,0.159-0.38,0.271c-0.297,0.321-0.649,0.168-1.003,0.173c0.039-0.128,0.128-0.156,0.196-0.202
		c1.089-0.744,2.234-1.389,3.42-1.963C38.241,4.988,38.411,4.99,38.755,5.094z"/>
	<path style="fill:#A2C837;" d="M35.313,3.342c-0.506,0.236-1.016,0.463-1.516,0.71C33.161,4.367,32.535,4.7,31.901,5.02
		c-0.408,0.206-0.863,0.179-1.313,0.282c0.03-0.123,0.11-0.134,0.168-0.166c1.065-0.584,2.157-1.115,3.267-1.608
		C34.427,3.349,34.874,3.394,35.313,3.342z"/>
	<path style="fill:#A2C837;" d="M68.055,15.446c0.623-0.139,1.204-0.495,1.891-0.275c0.425,0.136,0.875,0.196,1.313,0.294
		c0.088,0.02,0.186,0.016,0.312,0.119c-0.565,0.115-0.999,0.527-1.616,0.332C69.338,15.722,68.684,15.661,68.055,15.446z"/>
	<path style="fill:#A2C837;" d="M67.026,15.485c-0.273,0.128-0.462,0.35-0.714,0.474c-0.094,0.046-0.169,0.058-0.265,0.029
		c-0.596-0.178-1.194-0.35-1.79-0.528c-0.062-0.019-0.162-0.016-0.161-0.105c0.001-0.063,0.089-0.079,0.144-0.108
		c0.056-0.029,0.116-0.05,0.171-0.081c0.398-0.231,0.791-0.261,1.234-0.085C66.088,15.257,66.564,15.354,67.026,15.485z"/>
	<path style="fill:#A2C837;" d="M41.571,5.69c-0.056,0.104-0.156,0.122-0.236,0.163c-1.043,0.53-2.031,1.145-2.955,1.862
		c-0.103,0.08-0.593,0.05-0.665-0.046c-0.057-0.076,0.016-0.115,0.063-0.148c0.347-0.239,0.681-0.501,1.047-0.707
		c0.705-0.399,1.408-0.805,2.132-1.171C41.186,5.528,41.37,5.562,41.571,5.69z"/>
	<path style="fill:#A2C837;" d="M40.725,5.423c-0.053,0.107-0.153,0.123-0.232,0.165c-0.97,0.509-1.92,1.05-2.806,1.697
		c-0.418,0.305-0.541,0.33-0.976,0.158c0.047-0.099,0.147-0.139,0.228-0.196c1.004-0.7,2.065-1.302,3.162-1.843
		C40.321,5.296,40.515,5.306,40.725,5.423z"/>
	<path style="fill:#A2C837;" d="M44.514,11.461c-0.087-0.064-0.182-0.133-0.275-0.204c-0.314-0.238-0.314-0.239-0.089-0.571
		c0.364-0.538,0.808-1.002,1.296-1.428c0.112-0.098,0.182-0.106,0.291,0.007c0.259,0.272,0.265,0.266,0.004,0.529
		c-0.447,0.45-0.815,0.957-1.102,1.522C44.611,11.369,44.604,11.44,44.514,11.461z"/>
	<path style="fill:#A2C837;" d="M39.927,8.46c-0.147-0.071-0.299-0.124-0.425-0.213c-0.095-0.068,0.016-0.123,0.063-0.158
		c0.327-0.246,0.653-0.495,0.99-0.727c0.591-0.406,1.212-0.765,1.849-1.095c0.068-0.035,0.135-0.099,0.218-0.063
		c0.1,0.042,0.239,0.081,0.261,0.183c0.022,0.101-0.125,0.118-0.201,0.16c-0.927,0.511-1.796,1.107-2.6,1.797
		C40.034,8.384,39.983,8.418,39.927,8.46z"/>
	<path style="fill:#A2C837;" d="M45.406,12.081c-0.188-0.136-0.389-0.274-0.579-0.426c-0.057-0.045,0.001-0.119,0.027-0.174
		c0.287-0.596,0.683-1.112,1.15-1.579c0.11-0.11,0.199-0.139,0.297,0.009c0.039,0.059,0.087,0.113,0.141,0.159
		c0.125,0.108,0.101,0.193-0.003,0.31c-0.396,0.448-0.687,0.959-0.889,1.522C45.527,11.969,45.533,12.069,45.406,12.081z"/>
	<path style="fill:#A2C837;" d="M41.425,9.269c-0.148-0.064-0.315-0.135-0.424-0.267c-0.066-0.081,0.067-0.141,0.125-0.193
		c0.612-0.549,1.277-1.027,1.975-1.46c0.147-0.092,0.295-0.183,0.446-0.268c0.141-0.08,0.325-0.015,0.387,0.135
		c0.052,0.125-0.069,0.142-0.131,0.182c-0.654,0.414-1.274,0.874-1.839,1.405c-0.132,0.124-0.26,0.253-0.39,0.379
		C41.535,9.218,41.503,9.268,41.425,9.269z"/>
	<path style="fill:#A2C837;" d="M42.89,10.28c-0.135-0.1-0.293-0.204-0.434-0.327c-0.059-0.052,0.013-0.114,0.053-0.159
		c0.598-0.666,1.28-1.232,2.03-1.718c0.212-0.137,0.245,0.092,0.34,0.177c0.122,0.111-0.013,0.158-0.08,0.207
		c-0.669,0.493-1.277,1.048-1.764,1.726C42.962,10.288,42.957,10.284,42.89,10.28z"/>
	<path style="fill:#A2C837;" d="M45.404,8.915c-0.034,0.04-0.064,0.087-0.105,0.121c-0.585,0.497-1.096,1.06-1.504,1.712
		c-0.057,0.091-0.107,0.119-0.203,0.046c-0.5-0.378-0.515-0.237-0.128-0.73c0.425-0.542,0.943-0.989,1.499-1.392
		c0.059-0.043,0.123-0.125,0.207-0.059C45.267,8.691,45.346,8.79,45.404,8.915z"/>
	<path style="fill:#A2C837;" d="M79.685,14.848c-0.647,0.15-1.223,0.343-1.812,0.4c-0.452,0.044-0.921-0.079-1.382-0.134
		c-0.326-0.039-0.651-0.089-0.97-0.134C76.872,14.511,78.246,14.601,79.685,14.848z"/>
	<path style="fill:#A2C837;" d="M38.594,7.919c0.058-0.172,0.218-0.196,0.328-0.278c0.861-0.643,1.786-1.181,2.745-1.661
		c0.084-0.042,0.169-0.091,0.259-0.113c0.119-0.029,0.239,0.038,0.285,0.124c0.056,0.107-0.089,0.12-0.152,0.154
		c-0.978,0.531-1.916,1.123-2.776,1.832c-0.118,0.098-0.225,0.125-0.364,0.058C38.82,7.99,38.712,7.961,38.594,7.919z"/>
	<path style="fill:#A2C837;" d="M37.307,3.156c-0.66,0.293-1.323,0.58-1.979,0.882c-0.474,0.219-0.949,0.442-1.405,0.695
		c-0.379,0.21-0.787,0.175-1.187,0.244c-0.011-0.12,0.069-0.125,0.119-0.15c1.103-0.575,2.23-1.1,3.38-1.574
		C36.575,3.111,36.948,3.17,37.307,3.156z"/>
	<path style="fill:#A2C837;" d="M68.807,14.92c-0.459,0.144-0.851,0.287-1.253,0.385c-0.24,0.059-0.473-0.075-0.706-0.136
		c-0.419-0.109-0.834-0.234-1.25-0.38c0.477-0.162,0.954-0.318,1.447-0.338c0.245-0.01,0.495,0.134,0.744,0.202
		C68.108,14.74,68.426,14.821,68.807,14.92z"/>
	<path style="fill:#A2C837;" d="M44.438,7.769c-0.008,0.069-0.063,0.092-0.107,0.122c-0.756,0.505-1.45,1.083-2.052,1.767
		c-0.143,0.163-0.234,0.029-0.337-0.039c-0.253-0.17-0.25-0.17-0.041-0.383c0.638-0.651,1.361-1.191,2.136-1.666
		c0.065-0.04,0.133-0.104,0.212-0.033C44.323,7.605,44.4,7.675,44.438,7.769z"/>
	<path style="fill:#A2C837;" d="M40.637,8.822c-0.109-0.061-0.248-0.112-0.351-0.204c-0.1-0.09,0.038-0.128,0.086-0.169
		c0.658-0.567,1.37-1.056,2.121-1.49c0.177-0.102,0.357-0.2,0.537-0.297c0.054-0.029,0.111-0.074,0.176-0.049
		c0.089,0.034,0.188,0.084,0.211,0.174c0.024,0.095-0.093,0.113-0.154,0.15c-0.871,0.525-1.7,1.108-2.449,1.799
		C40.768,8.777,40.728,8.83,40.637,8.822z"/>
	<path style="fill:#A2C837;" d="M64.628,14.772c-0.326,0.155-0.62,0.267-0.888,0.432c-0.09,0.056-0.183,0.031-0.273,0
		c-0.475-0.166-0.95-0.334-1.425-0.502c-0.05-0.018-0.124-0.025-0.128-0.085c-0.006-0.079,0.08-0.086,0.133-0.109
		c0.282-0.123,0.574-0.216,0.871-0.296c0.062-0.017,0.121-0.024,0.184-0.001C63.595,14.393,64.089,14.574,64.628,14.772z"/>
	<path style="fill:#A2C837;" d="M78.598,14.411c1.371-0.36,2.741-0.496,4.152-0.244c-0.709,0.162-1.402,0.337-2.102,0.47
		c-0.18,0.034-0.387-0.02-0.582-0.034c-0.469-0.034-0.935-0.098-1.402-0.151C78.644,14.448,78.627,14.429,78.598,14.411z"/>
	<path style="fill:#A2C837;" d="M70.159,14.925c1.313-0.344,2.269-0.322,3.566,0.071c-0.131,0.086-0.255,0.118-0.4,0.14
		c-0.31,0.047-0.615,0.131-0.92,0.206c-0.094,0.023-0.186,0.036-0.28,0.017c-0.617-0.125-1.234-0.25-1.851-0.377
		C70.246,14.975,70.222,14.956,70.159,14.925z"/>
	<path style="fill:#A2C837;" d="M34.436,4.792c0.238-0.205,0.533-0.292,0.804-0.423c0.944-0.454,1.909-0.86,2.884-1.243
		c0.281-0.11,0.565-0.067,0.862-0.022c-0.155,0.065-0.309,0.133-0.466,0.196c-1.038,0.417-2.056,0.879-3.058,1.375
		C35.136,4.837,34.781,4.733,34.436,4.792z"/>
	<path style="fill:#A2C837;" d="M58.113,13.223c0.047,0.017,0.093,0.027,0.134,0.048c0.313,0.165,0.625,0.334,0.939,0.499
		c0.128,0.067,0.092,0.118-0.007,0.174c-0.22,0.125-0.426,0.27-0.611,0.443c-0.068,0.063-0.128,0.074-0.21,0.033
		c-0.373-0.187-0.748-0.37-1.121-0.557c-0.051-0.026-0.14-0.062-0.055-0.133C57.456,13.499,57.779,13.354,58.113,13.223z"/>
	<path style="fill:#A2C837;" d="M49.035,12.108c-0.082-0.063-0.175-0.134-0.267-0.207c-0.403-0.32-0.402-0.319-0.061-0.713
		c0.244-0.282,0.522-0.525,0.813-0.756c0.103-0.082,0.166-0.073,0.253,0.027c0.343,0.391,0.347,0.389-0.008,0.753
		c-0.227,0.233-0.422,0.489-0.585,0.771C49.15,12.033,49.135,12.103,49.035,12.108z"/>
	<path style="fill:#A2C837;" d="M40.62,3.053c-0.135,0.11-0.263,0.13-0.378,0.174c-1.041,0.391-2.07,0.812-3.061,1.318
		c-0.346,0.176-0.693,0.17-1.058,0.164c0.009-0.105,0.096-0.106,0.152-0.133c1.159-0.556,2.346-1.048,3.548-1.503
		C40.077,2.976,40.328,3.029,40.62,3.053z"/>
	<path style="fill:#A2C837;" d="M62.602,14.011c-0.411,0.15-0.752,0.27-1.072,0.437c-0.032,0.017-0.076,0.017-0.114,0.014
		c-0.13-0.013-1.22-0.513-1.361-0.631c0.409-0.157,0.805-0.292,1.223-0.357c0.056-0.009,0.122,0.022,0.179,0.046
		C61.817,13.672,62.175,13.827,62.602,14.011z"/>
	<path style="fill:#A2C837;" d="M48.184,11.375c-0.113-0.023-0.183-0.083-0.253-0.149c-0.347-0.331-0.346-0.329-0.013-0.661
		c0.32-0.318,0.684-0.578,1.053-0.835c0.138-0.096,0.207-0.067,0.299,0.063c0.222,0.315,0.231,0.313-0.074,0.556
		c-0.334,0.267-0.627,0.574-0.893,0.906C48.266,11.303,48.236,11.361,48.184,11.375z"/>
	<path style="fill:#A2C837;" d="M53.326,11.596c0.061,0.002,0.097,0.047,0.139,0.081c0.164,0.135,0.325,0.273,0.49,0.406
		c0.083,0.067,0.081,0.122-0.005,0.184c-0.277,0.197-0.527,0.423-0.724,0.702c-0.055,0.079-0.11,0.069-0.178,0.021
		c-0.237-0.168-0.475-0.335-0.713-0.502c-0.056-0.039-0.1-0.081-0.033-0.149c0.289-0.294,0.618-0.533,0.979-0.729
		C53.295,11.603,53.311,11.601,53.326,11.596z"/>
	<path style="fill:#A2C837;" d="M76.373,14.499c-0.593,0.114-1.182,0.285-1.78,0.324c-0.421,0.028-0.853-0.12-1.28-0.192
		c-0.2-0.034-0.398-0.075-0.64-0.122C73.726,14.189,75.336,14.173,76.373,14.499z"/>
	<path style="fill:#A2C837;" d="M82.051,13.789c1.43-0.318,2.818-0.651,4.208-0.422C85.457,13.758,82.999,14.025,82.051,13.789z"/>
	<path style="fill:#A2C837;" d="M63.6,14.042c0.462-0.089,0.924-0.178,1.386-0.266c0.03-0.006,0.066-0.014,0.093-0.004
		c0.449,0.157,0.897,0.317,1.395,0.493c-0.489,0.122-0.929,0.232-1.368,0.34c-0.022,0.005-0.048,0.004-0.07-0.002
		c-0.488-0.143-0.967-0.313-1.44-0.497C63.598,14.085,63.599,14.063,63.6,14.042z"/>
	<path style="fill:#A2C837;" d="M67.764,14.347c1.078-0.31,2.151-0.37,3.174,0.107C69.889,14.851,68.82,14.79,67.764,14.347z"/>
	<path style="fill:#A2C837;" d="M57.828,13.036c-0.346,0.169-0.655,0.338-0.926,0.566c-0.057,0.048-0.121,0.017-0.177-0.015
		c-0.288-0.163-0.575-0.328-0.863-0.489c-0.144-0.08-0.109-0.14,0.011-0.209c0.302-0.174,0.619-0.311,0.947-0.425
		c0.063-0.022,0.119-0.029,0.179,0.012C57.263,12.656,57.53,12.835,57.828,13.036z"/>
	<path style="fill:#A2C837;" d="M48.966,9.33c0.003,0.09-0.041,0.113-0.08,0.139c-0.498,0.333-0.975,0.692-1.378,1.139
		c-0.079,0.087-0.155,0.085-0.241,0.002c-0.412-0.4-0.357-0.364-0.003-0.669c0.383-0.33,0.799-0.611,1.237-0.861
		c0.076-0.043,0.166-0.154,0.248-0.075C48.848,9.098,48.906,9.235,48.966,9.33z"/>
	<path style="fill:#A2C837;" d="M48.574,8.656c0.019,0.074-0.041,0.096-0.086,0.121c-0.585,0.329-1.134,0.708-1.627,1.166
		c-0.063,0.058-0.104,0.066-0.176,0.004c-0.314-0.27-0.327-0.344-0.025-0.614c0.477-0.426,1.028-0.734,1.614-0.984
		C48.374,8.307,48.56,8.501,48.574,8.656z"/>
	<path style="fill:#A2C837;" d="M60.924,13.263c-0.442,0.125-0.821,0.254-1.193,0.402c-0.072,0.029-0.14,0.007-0.204-0.026
		c-0.287-0.148-0.574-0.296-0.86-0.447c-0.045-0.024-0.12-0.041-0.102-0.109c0.008-0.032,0.069-0.058,0.111-0.071
		c0.383-0.123,0.775-0.212,1.169-0.291c0.071-0.014,0.139-0.008,0.205,0.031C60.32,12.912,60.592,13.069,60.924,13.263z"/>
	<path style="fill:#A2C837;" d="M54.535,12.218c0.44-0.257,0.875-0.408,1.318-0.538c0.056-0.017,0.107-0.001,0.153,0.037
		c0.198,0.166,0.396,0.331,0.624,0.52c-0.399,0.163-0.77,0.328-1.11,0.553c-0.054,0.036-0.106,0.015-0.154-0.016
		C55.1,12.597,54.834,12.418,54.535,12.218z"/>
	<path style="fill:#A2C837;" d="M53.108,11.357c-0.021,0.062-0.075,0.084-0.12,0.112c-0.312,0.187-0.602,0.404-0.855,0.665
		c-0.094,0.097-0.159,0.093-0.253,0.008c-0.145-0.133-0.297-0.258-0.449-0.383c-0.092-0.075-0.116-0.139-0.008-0.223
		c0.343-0.267,0.713-0.489,1.103-0.68c0.065-0.032,0.12-0.031,0.17,0.023c0.127,0.14,0.254,0.279,0.38,0.42
		C53.091,11.315,53.098,11.339,53.108,11.357z"/>
	<path style="fill:#A2C837;" d="M52.403,10.535c-0.018,0.098-0.083,0.119-0.137,0.148c-0.374,0.202-0.738,0.42-1.067,0.691
		c-0.036,0.029-0.07,0.064-0.124,0.053c-0.051-0.011-0.498-0.436-0.511-0.484c-0.016-0.06,0.027-0.086,0.064-0.112
		c0.408-0.283,0.845-0.516,1.301-0.71c0.069-0.029,0.136-0.039,0.19,0.034C52.217,10.286,52.315,10.417,52.403,10.535z"/>
	<path style="fill:#A2C837;" d="M48.034,7.696c0.144,0.008,0.138,0.136,0.184,0.218c0.044,0.078,0.036,0.139-0.056,0.192
		c-0.21,0.121-0.433,0.215-0.643,0.339c-0.41,0.243-0.81,0.498-1.177,0.804c-0.15,0.126-0.272,0.069-0.444-0.194
		c-0.1-0.153,0.037-0.18,0.124-0.238c0.565-0.373,1.148-0.713,1.758-1.006C47.865,7.772,47.951,7.734,48.034,7.696z"/>
	<path style="fill:#A2C837;" d="M65.75,13.672c0.598-0.062,1.198-0.182,1.795-0.167c0.4,0.01,0.796,0.211,1.192,0.348
		c-0.409,0.138-0.839,0.133-1.247,0.237c-0.645,0.164-1.171-0.199-1.746-0.343C65.746,13.722,65.748,13.697,65.75,13.672z"/>
	<path style="fill:#A2C837;" d="M37.482,4.692c0.568-0.29,1.094-0.513,1.622-0.734c0.697-0.292,1.405-0.553,2.118-0.802
		c0.217-0.076,0.428-0.059,0.667-0.022c-0.039,0.092-0.118,0.093-0.175,0.113c-1.168,0.407-2.309,0.877-3.421,1.42
		C38.114,4.754,38.002,4.757,37.482,4.692z"/>
	<path style="fill:#A2C837;" d="M64.465,13.591c-0.464,0.1-0.927,0.206-1.394,0.292c-0.081,0.015-0.179-0.049-0.265-0.085
		c-0.317-0.132-0.633-0.267-0.947-0.424c0.391-0.129,0.8-0.138,1.188-0.235c0.566-0.142,0.951,0.257,1.423,0.391
		C64.468,13.55,64.467,13.57,64.465,13.591z"/>
	<path style="fill:#A2C837;" d="M43.03,3.286c-0.029,0.087-0.098,0.09-0.154,0.109c-1.163,0.4-2.304,0.858-3.425,1.364
		c-0.198,0.089-0.419,0.086-0.66,0C38.832,4.668,38.927,4.657,39,4.623c1.117-0.516,2.263-0.959,3.433-1.341
		C42.635,3.216,42.828,3.222,43.03,3.286z"/>
	<path style="fill:#A2C837;" d="M55.095,10.922c0.13-0.013,0.179,0.071,0.227,0.137c0.097,0.131,0.328,0.228,0.299,0.362
		c-0.031,0.139-0.277,0.131-0.427,0.194c-0.246,0.104-0.495,0.199-0.729,0.329c-0.066,0.037-0.139,0.099-0.216,0.036
		c-0.188-0.152-0.371-0.31-0.553-0.47c-0.045-0.039-0.032-0.088,0.021-0.113C54.169,11.19,54.64,11.044,55.095,10.922z"/>
	<path style="fill:#A2C837;" d="M75.812,14.047c1.233-0.178,2.477-0.465,3.72-0.118C78.313,14.195,77.068,14.479,75.812,14.047z"/>
	<path style="fill:#A2C837;" d="M59.522,12.452c-0.011,0.076-0.065,0.075-0.109,0.085c-0.392,0.092-0.78,0.197-1.155,0.343
		c-0.065,0.025-0.121,0.019-0.179-0.019c-0.225-0.145-0.452-0.288-0.677-0.434c-0.121-0.079-0.085-0.128,0.033-0.161
		c0.426-0.119,0.857-0.213,1.296-0.269c0.081-0.01,0.156-0.003,0.225,0.046c0.161,0.113,0.325,0.223,0.487,0.335
		C59.474,12.4,59.499,12.431,59.522,12.452z"/>
	<path style="fill:#A2C837;" d="M47.725,6.781c0.007,0.085-0.051,0.099-0.101,0.12c-0.81,0.336-1.589,0.73-2.323,1.213
		c-0.211,0.139-0.245-0.096-0.332-0.186c-0.108-0.113,0.039-0.143,0.099-0.178c0.755-0.446,1.54-0.829,2.354-1.155
		C47.584,6.53,47.727,6.627,47.725,6.781z"/>
	<path style="fill:#A2C837;" d="M46.527,4.814c-0.034,0.075-0.102,0.079-0.158,0.1c-0.429,0.155-0.86,0.303-1.278,0.488
		c-0.544,0.241-1.098,0.461-1.626,0.74c-0.063,0.033-0.126,0.073-0.194,0.085c-0.143,0.027-0.262-0.066-0.31-0.169
		c-0.047-0.1,0.102-0.112,0.17-0.145c0.984-0.476,2.001-0.871,3.043-1.201c0.105-0.033,0.211-0.087,0.3,0.03
		C46.494,4.766,46.511,4.791,46.527,4.814z"/>
	<path style="fill:#A2C837;" d="M54.545,10.178c0.064-0.014,0.103,0.021,0.137,0.069c0.071,0.104,0.139,0.21,0.217,0.309
		c0.076,0.097,0.033,0.135-0.062,0.161c-0.448,0.123-0.885,0.278-1.309,0.467c-0.105,0.046-0.18,0.023-0.248-0.061
		c-0.05-0.061-0.103-0.119-0.156-0.177c-0.24-0.267-0.241-0.268,0.108-0.391C53.662,10.405,54.098,10.27,54.545,10.178z"/>
	<path style="fill:#A2C837;" d="M51.861,9.774c0.006,0.098-0.067,0.113-0.12,0.136c-0.442,0.191-0.863,0.422-1.256,0.699
		c-0.131,0.093-0.203,0.055-0.292-0.052c-0.382-0.46-0.34-0.352,0.102-0.604c0.349-0.2,0.719-0.356,1.093-0.501
		C51.607,9.367,51.86,9.547,51.861,9.774z"/>
	<path style="fill:#A2C837;" d="M39.853,4.924c0.053-0.1,0.127-0.114,0.191-0.142c1.133-0.501,2.296-0.924,3.464-1.333
		c0.165-0.058,0.324-0.027,0.52,0.068c-0.162,0.06-0.295,0.111-0.429,0.159c-1.055,0.376-2.098,0.783-3.11,1.264
		C40.269,5.046,40.08,4.975,39.853,4.924z"/>
	<path style="fill:#A2C837;" d="M70.403,13.989c1.62-0.264,2.572-0.245,3.32,0.062c-0.455,0.067-0.873,0.09-1.268,0.197
		C71.726,14.444,71.082,14.126,70.403,13.989z"/>
	<path style="fill:#A2C837;" d="M60.439,12.673c0.551-0.145,1.095-0.243,1.642-0.236c0.314,0.004,0.558,0.259,0.863,0.394
		c-0.12,0.115-0.252,0.091-0.366,0.113c-0.323,0.064-0.651,0.104-0.972,0.176c-0.19,0.042-0.35,0.022-0.515-0.079
		C60.878,12.91,60.656,12.795,60.439,12.673z"/>
	<path style="fill:#A2C837;" d="M47.952,7.35c0.012,0.086-0.052,0.112-0.107,0.138c-0.729,0.341-1.425,0.74-2.09,1.194
		c-0.197,0.135-0.219-0.107-0.312-0.182c-0.106-0.085-0.022-0.145,0.055-0.196c0.694-0.454,1.43-0.829,2.198-1.14
		C47.841,7.104,47.953,7.193,47.952,7.35z"/>
	<path style="fill:#A2C837;" d="M45.534,4.086c-0.314,0.115-0.614,0.225-0.915,0.335c-0.849,0.311-1.692,0.634-2.496,1.051
		c-0.203,0.105-0.34-0.009-0.501-0.08c0.013-0.091,0.085-0.097,0.137-0.122c0.802-0.39,1.643-0.685,2.473-1.007
		c0.289-0.112,0.599-0.19,0.901-0.28C45.285,3.936,45.408,3.954,45.534,4.086z"/>
	<path style="fill:#A2C837;" d="M47.211,5.713c-0.005,0.118-0.115,0.113-0.187,0.14c-0.71,0.262-1.406,0.555-2.079,0.902
		c-0.182,0.094-0.368,0.182-0.541,0.291c-0.185,0.117-0.286-0.007-0.371-0.123c-0.086-0.117,0.054-0.14,0.118-0.173
		c0.58-0.303,1.178-0.567,1.786-0.807c0.337-0.133,0.681-0.249,1.016-0.385C47.122,5.489,47.159,5.598,47.211,5.713z"/>
	<path style="fill:#A2C837;" d="M66.894,13.26c-0.583,0.082-1.166,0.174-1.751,0.239c-0.119,0.013-0.255-0.063-0.372-0.119
		c-0.184-0.089-0.365-0.183-0.564-0.236c-0.049-0.013-0.098-0.022-0.091-0.082c0.006-0.046,0.054-0.052,0.093-0.055
		c0.596-0.047,1.192-0.127,1.787-0.125C66.317,12.883,66.599,13.115,66.894,13.26z"/>
	<path style="fill:#A2C837;" d="M58.55,11.745c-0.532,0.098-0.995,0.191-1.442,0.342c-0.146,0.049-0.247-0.022-0.341-0.103
		c-0.151-0.129-0.432-0.211-0.408-0.401c0.016-0.123,0.327-0.115,0.509-0.152c0.285-0.058,0.576-0.09,0.858-0.158
		c0.193-0.047,0.33-0.005,0.459,0.142C58.28,11.525,58.401,11.612,58.55,11.745z"/>
	<path style="fill:#A2C837;" d="M44.74,7.619c-0.122-0.046-0.207-0.137-0.251-0.243c-0.042-0.1,0.079-0.121,0.14-0.154
		c0.816-0.45,1.667-0.822,2.542-1.142c0.107-0.039,0.19-0.058,0.25,0.075c0.072,0.158-0.054,0.174-0.141,0.21
		c-0.819,0.333-1.611,0.721-2.373,1.17C44.854,7.566,44.796,7.591,44.74,7.619z"/>
	<path style="fill:#A2C837;" d="M83.176,13.28c-1.293,0.233-2.553,0.639-3.939,0.266C80.574,13.382,81.833,12.992,83.176,13.28z"/>
	<path style="fill:#A2C837;" d="M49.759,9.937c-0.162-0.079-0.243-0.237-0.323-0.381c-0.073-0.131,0.08-0.145,0.15-0.183
		c0.498-0.271,1.025-0.474,1.558-0.664c0.254-0.091,0.228,0.136,0.3,0.253c0.09,0.147-0.011,0.189-0.124,0.231
		c-0.486,0.183-0.954,0.405-1.403,0.666C49.87,9.886,49.819,9.907,49.759,9.937z"/>
	<path style="fill:#A2C837;" d="M44.871,3.785c-0.728,0.246-1.413,0.474-2.079,0.753c-0.464,0.194-0.93,0.388-1.382,0.608
		c-0.225,0.11-0.417,0.095-0.624-0.024c0.067-0.093,0.173-0.111,0.263-0.152c1.086-0.483,2.199-0.895,3.32-1.289
		C44.544,3.62,44.687,3.656,44.871,3.785z"/>
	<path style="fill:#A2C837;" d="M42.307,5.682c0.457-0.248,0.925-0.432,1.386-0.632c0.634-0.275,1.288-0.493,1.944-0.706
		c0.067-0.022,0.136-0.046,0.205-0.053c0.096-0.01,0.187,0.049,0.205,0.127c0.022,0.09-0.093,0.086-0.152,0.107
		c-1.07,0.37-2.125,0.777-3.143,1.276C42.562,5.895,42.445,5.816,42.307,5.682z"/>
	<path style="fill:#A2C837;" d="M46.885,5.236c-0.008,0.092-0.092,0.094-0.153,0.119c-0.476,0.189-0.959,0.363-1.429,0.566
		c-0.477,0.206-0.942,0.44-1.412,0.663c-0.077,0.036-0.149,0.103-0.235,0.022c-0.051-0.048-0.131-0.093-0.141-0.15
		c-0.014-0.08,0.09-0.094,0.148-0.124c0.94-0.48,1.909-0.89,2.916-1.21C46.72,5.077,46.825,5.077,46.885,5.236z"/>
	<path style="fill:#A2C837;" d="M83.142,12.926c1.338-0.174,2.631-0.686,4.017-0.486C85.832,12.695,84.538,13.197,83.142,12.926z"/>
	<path style="fill:#A2C837;" d="M54.151,9.451c0.158,0.062,0.194,0.252,0.254,0.395c0.059,0.14-0.112,0.109-0.186,0.13
		c-0.44,0.122-0.879,0.248-1.305,0.415c-0.181,0.071-0.554-0.192-0.553-0.386c0-0.05,0.035-0.068,0.071-0.081
		C52.981,9.728,53.545,9.581,54.151,9.451z"/>
	<path style="fill:#A2C837;" d="M57.713,11.001c-0.544,0.101-1.071,0.184-1.586,0.325c-0.172,0.047-0.241-0.088-0.328-0.176
		c-0.095-0.096-0.286-0.178-0.245-0.309c0.032-0.104,0.237-0.086,0.366-0.108c0.348-0.059,0.697-0.112,1.047-0.157
		C57.387,10.522,57.47,10.572,57.713,11.001z"/>
	<path style="fill:#A2C837;" d="M49.272,9.225c-0.142-0.063-0.183-0.208-0.247-0.327c-0.069-0.128,0.066-0.138,0.132-0.17
		c0.562-0.269,1.144-0.487,1.738-0.676c0.148-0.047,0.23-0.03,0.279,0.136c0.046,0.154,0.019,0.226-0.139,0.279
		c-0.568,0.191-1.119,0.423-1.649,0.704C49.352,9.191,49.316,9.205,49.272,9.225z"/>
	<path style="fill:#A2C837;" d="M53.864,8.76c0.18,0.031,0.137,0.214,0.191,0.328c0.057,0.12-0.056,0.12-0.128,0.137
		c-0.552,0.129-1.098,0.278-1.636,0.462c-0.26,0.089-0.249-0.183-0.332-0.305c-0.102-0.15,0.065-0.156,0.149-0.185
		C52.675,9.001,53.259,8.872,53.864,8.76z"/>
	<path style="fill:#A2C837;" d="M73.385,13.634c0.791-0.087,1.532-0.19,2.277-0.242c0.422-0.029,0.837,0.116,1.284,0.178
		C76.045,13.911,74.22,13.949,73.385,13.634z"/>
	<path style="fill:#A2C837;" d="M56.788,9.831c0.108,0.001,0.358,0.282,0.348,0.39c-0.007,0.079-0.072,0.073-0.123,0.078
		c-0.539,0.059-1.073,0.146-1.601,0.268c-0.134,0.031-0.478-0.298-0.456-0.428c0.01-0.06,0.061-0.064,0.106-0.072
		C55.633,9.96,56.21,9.891,56.788,9.831z"/>
	<path style="fill:#A2C837;" d="M59.299,11.922c0.435-0.098,0.85-0.106,1.26-0.154c0.054-0.006,0.113,0.005,0.164-0.011
		c0.434-0.135,0.701,0.144,1.029,0.412c-0.331,0.043-0.621,0.081-0.912,0.119c-0.078,0.01-0.159,0.011-0.232,0.036
		C60.096,12.501,59.696,12.295,59.299,11.922z"/>
	<path style="fill:#A2C837;" d="M51.042,7.626c0.021,0.091-0.041,0.119-0.114,0.142c-0.663,0.202-1.311,0.442-1.934,0.744
		c-0.22,0.107-0.222-0.094-0.294-0.194c-0.095-0.131,0.002-0.17,0.105-0.215c0.635-0.276,1.288-0.504,1.953-0.694
		C50.982,7.344,51.038,7.387,51.042,7.626z"/>
	<path style="fill:#A2C837;" d="M60.8,11.464c-0.612,0.073-1.194,0.166-1.779,0.203c-0.276,0.017-0.42-0.257-0.637-0.439
		c0.284-0.109,0.547-0.076,0.799-0.11c0.249-0.034,0.502-0.041,0.753-0.053C60.425,11.039,60.442,11.049,60.8,11.464z"/>
	<path style="fill:#A2C837;" d="M62.785,12.362c0.28-0.021,0.56-0.045,0.841-0.061c0.35-0.02,0.701-0.042,1.052-0.046
		c0.292-0.003,0.486,0.229,0.76,0.313c-0.091,0.11-0.183,0.085-0.263,0.093c-0.478,0.047-0.957,0.087-1.435,0.135
		c-0.39,0.04-0.641-0.251-0.968-0.359C62.776,12.412,62.781,12.387,62.785,12.362z"/>
	<path style="fill:#A2C837;" d="M57.556,10.235c-0.063-0.001-0.308-0.284-0.301-0.384c0.006-0.085,0.074-0.067,0.124-0.071
		c0.637-0.053,1.275-0.073,1.913-0.081c0.113-0.001,0.334,0.25,0.316,0.353c-0.011,0.065-0.065,0.06-0.109,0.061
		C58.861,10.135,58.224,10.172,57.556,10.235z"/>
	<path style="fill:#A2C837;" d="M53.676,8.101c0.162-0.024,0.143,0.111,0.167,0.2c0.025,0.094,0.035,0.187-0.106,0.212
		c-0.24,0.043-0.481,0.088-0.717,0.15c-0.365,0.096-0.73,0.196-1.089,0.313c-0.263,0.086-0.232-0.142-0.298-0.257
		c-0.091-0.158,0.043-0.182,0.15-0.21C52.407,8.344,53.037,8.201,53.676,8.101z"/>
	<path style="fill:#A2C837;" d="M68.473,13.443c0.217-0.094,0.446-0.077,0.669-0.102c0.375-0.043,0.753-0.064,1.129-0.097
		c0.447-0.039,0.831,0.192,1.251,0.264c-0.001,0.019-0.003,0.038-0.004,0.057c-0.645,0.066-1.288,0.162-1.934,0.187
		C69.201,13.768,68.843,13.571,68.473,13.443z"/>
	<path style="fill:#A2C837;" d="M54.856,9.835c-0.12-0.003-0.359-0.277-0.343-0.382c0.01-0.068,0.055-0.112,0.126-0.12
		c0.594-0.059,1.188-0.117,1.782-0.176c0.116-0.011,0.21-0.003,0.264,0.132c0.097,0.242,0.08,0.278-0.184,0.306
		C56,9.648,55.5,9.713,55.004,9.809C54.95,9.819,54.896,9.828,54.856,9.835z"/>
	<path style="fill:#A2C837;" d="M61.152,10.097c-0.315,0-0.631-0.01-0.945,0.004c-0.188,0.009-0.288-0.081-0.373-0.228
		c-0.077-0.132-0.057-0.178,0.101-0.174c0.512,0.014,1.023,0.02,1.535,0.029c0.197,0.003,0.394,0.019,0.59,0.008
		c0.202-0.012,0.232,0.135,0.269,0.266c0.033,0.119-0.078,0.093-0.137,0.093C61.845,10.099,61.498,10.097,61.152,10.097z"/>
	<path style="fill:#A2C837;" d="M50.919,6.961c0.019,0.094-0.042,0.136-0.125,0.16c-0.734,0.209-1.454,0.454-2.152,0.765
		c-0.157,0.07-0.167-0.055-0.204-0.142c-0.038-0.089-0.114-0.179,0.047-0.242c0.739-0.291,1.492-0.539,2.266-0.72
		C50.881,6.751,50.92,6.8,50.919,6.961z"/>
	<path style="fill:#A2C837;" d="M57.704,10.5c0.557-0.074,1.09-0.094,1.623-0.112c0.118-0.004,0.236-0.005,0.354-0.012
		c0.235-0.015,0.303,0.182,0.382,0.332c0.055,0.105-0.08,0.085-0.136,0.09c-0.471,0.042-0.949,0.042-1.411,0.127
		C58.124,10.997,57.912,10.829,57.704,10.5z"/>
	<path style="fill:#A2C837;" d="M56.358,8.471c0.197-0.011,0.128,0.153,0.159,0.25c0.034,0.105,0.001,0.157-0.119,0.167
		c-0.627,0.052-1.251,0.124-1.872,0.226c-0.24,0.04-0.236-0.165-0.274-0.303c-0.045-0.16,0.107-0.125,0.183-0.137
		C55.072,8.575,55.713,8.512,56.358,8.471z"/>
	<path style="fill:#A2C837;" d="M57.919,8.175c-0.338,0-0.676-0.007-1.013,0.003c-0.152,0.004-0.209-0.043-0.215-0.198
		c-0.006-0.155,0.062-0.185,0.196-0.184c0.707,0.001,1.414-0.003,2.121-0.004c0.091,0,0.2-0.02,0.188,0.134
		c-0.01,0.125-0.022,0.234-0.193,0.232c-0.361-0.005-0.723-0.002-1.084-0.002C57.919,8.163,57.919,8.169,57.919,8.175z"/>
	<path style="fill:#A2C837;" d="M53.568,7.456c0.102-0.013,0.194-0.011,0.195,0.13c0.001,0.118,0.021,0.232-0.155,0.26
		c-0.661,0.102-1.315,0.243-1.957,0.431c-0.177,0.052-0.195-0.054-0.232-0.171c-0.036-0.111-0.047-0.192,0.1-0.23
		C52.195,7.703,52.875,7.548,53.568,7.456z"/>
	<path style="fill:#A2C837;" d="M60.72,8.795c-0.354,0-0.709-0.003-1.063,0.002c-0.165,0.002-0.221-0.076-0.223-0.23
		c-0.002-0.18,0.12-0.153,0.228-0.148c0.717,0.029,1.433,0.061,2.15,0.091c0.13,0.005,0.231,0.027,0.224,0.198
		c-0.008,0.193-0.136,0.152-0.252,0.151c-0.355-0.001-0.709,0-1.064,0C60.72,8.837,60.72,8.816,60.72,8.795z"/>
	<path style="fill:#A2C837;" d="M74.731,13.218c-0.646,0.069-1.294,0.119-1.936,0.212c-0.485,0.07-0.906-0.122-1.352-0.268
		c0.21-0.019,0.42-0.041,0.631-0.058c0.564-0.045,1.128-0.097,1.693-0.129c0.334-0.019,0.638,0.143,0.964,0.184
		C74.73,13.179,74.731,13.198,74.731,13.218z"/>
	<path style="fill:#A2C837;" d="M76.892,13.244c0.851-0.107,1.7-0.238,2.553-0.311c0.345-0.029,0.701,0.069,1.053,0.151
		c-0.661,0.1-1.327,0.174-1.981,0.309C77.953,13.51,77.428,13.345,76.892,13.244z"/>
	<path style="fill:#A2C837;" d="M69.695,13.026c-0.514,0.043-1.035,0.051-1.541,0.14c-0.514,0.091-0.936-0.096-1.372-0.336
		c0.267-0.019,0.534-0.041,0.802-0.058c0.283-0.018,0.568-0.017,0.848-0.053C68.888,12.66,69.3,12.778,69.695,13.026z"/>
	<path style="fill:#A2C837;" d="M64.3,11.991c-0.669,0.047-1.313,0.103-1.957,0.133c-0.281,0.013-0.442-0.236-0.664-0.359
		c0.056-0.117,0.145-0.083,0.215-0.086c0.48-0.02,0.963-0.01,1.44-0.058C63.723,11.582,64.012,11.734,64.3,11.991z"/>
	<path style="fill:#A2C837;" d="M60.722,7.846c0.4,0.026,0.8,0.052,1.2,0.077c0.094,0.006,0.174,0.018,0.161,0.145
		c-0.011,0.113-0.036,0.199-0.178,0.193c-0.77-0.035-1.539-0.068-2.309-0.101c-0.098-0.004-0.172-0.026-0.15-0.151
		c0.02-0.113,0.032-0.219,0.192-0.209c0.361,0.022,0.722,0.036,1.083,0.054C60.722,7.85,60.722,7.848,60.722,7.846z"/>
	<path style="fill:#A2C837;" d="M60.699,7.233c0.455,0.03,0.911,0.057,1.365,0.091c0.076,0.006,0.206-0.033,0.196,0.1
		c-0.01,0.122-0.054,0.244-0.233,0.233c-0.447-0.029-0.895-0.047-1.343-0.068c-0.291-0.014-0.582-0.022-0.872-0.039
		c-0.107-0.007-0.257,0.032-0.239-0.167c0.015-0.16,0.098-0.21,0.254-0.197c0.29,0.024,0.581,0.034,0.872,0.05
		C60.698,7.235,60.699,7.234,60.699,7.233z"/>
	<path style="fill:#A2C837;" d="M50.668,6.186c0.127-0.02,0.174,0.017,0.187,0.088c0.014,0.075,0.045,0.16-0.052,0.207
		c-0.042,0.02-0.089,0.03-0.135,0.041c-0.765,0.192-1.516,0.429-2.249,0.722c-0.092,0.037-0.173,0.069-0.237-0.053
		c-0.08-0.152-0.031-0.219,0.12-0.276c0.715-0.273,1.446-0.493,2.187-0.684C50.564,6.211,50.641,6.192,50.668,6.186z"/>
	<path style="fill:#A2C837;" d="M54.267,8.42c-0.145,0.02-0.148-0.108-0.174-0.212c-0.028-0.116,0.015-0.171,0.139-0.188
		c0.671-0.09,1.343-0.164,2.02-0.19c0.16-0.006,0.172,0.089,0.186,0.208c0.014,0.125-0.038,0.172-0.156,0.178
		c-0.645,0.031-1.285,0.11-1.925,0.196C54.333,8.414,54.31,8.416,54.267,8.42z"/>
	<path style="fill:#A2C837;" d="M57.967,8.407c0.33,0,0.661,0.012,0.99-0.005c0.203-0.011,0.205,0.11,0.221,0.248
		c0.021,0.18-0.111,0.139-0.202,0.138c-0.653-0.011-1.304,0.023-1.955,0.058c-0.153,0.008-0.234-0.028-0.244-0.198
		c-0.008-0.142,0.032-0.204,0.178-0.202c0.337,0.004,0.675,0.001,1.013,0.001C57.967,8.433,57.967,8.42,57.967,8.407z"/>
	<path style="fill:#A2C837;" d="M61.389,10.354c0.322,0,0.645,0.014,0.967-0.005c0.225-0.013,0.306,0.144,0.386,0.287
		c0.071,0.125-0.067,0.089-0.116,0.09c-0.448,0.007-0.896,0.007-1.344,0.011c-0.165,0.002-0.334-0.011-0.494,0.02
		c-0.227,0.044-0.38-0.031-0.492-0.222c-0.027-0.046-0.093-0.083-0.067-0.14c0.032-0.072,0.111-0.041,0.169-0.041
		C60.729,10.352,61.059,10.354,61.389,10.354z"/>
	<path style="fill:#A2C837;" d="M62.858,7.98c0.675,0.049,1.351,0.097,2.026,0.15c0.082,0.006,0.213-0.038,0.205,0.117
		c-0.007,0.132-0.066,0.214-0.226,0.202c-0.55-0.042-1.1-0.074-1.65-0.11c-0.212-0.014-0.425-0.02-0.637-0.041
		c-0.104-0.01-0.257,0.032-0.24-0.169c0.017-0.199,0.142-0.189,0.286-0.165c0.077,0.013,0.157,0.013,0.235,0.019
		C62.858,7.982,62.858,7.981,62.858,7.98z"/>
	<path style="fill:#A2C837;" d="M58.174,9.459C57.868,9.48,57.561,9.5,57.255,9.522c-0.16,0.012-0.351-0.192-0.319-0.342
		c0.017-0.079,0.083-0.061,0.132-0.065c0.668-0.06,1.338-0.051,2.008-0.057c0.219-0.002,0.216,0.161,0.228,0.288
		c0.015,0.16-0.133,0.093-0.208,0.096c-0.307,0.009-0.615,0.004-0.922,0.004C58.174,9.45,58.174,9.454,58.174,9.459z"/>
	<path style="fill:#A2C837;" d="M53.523,6.84c0.131-0.01,0.234-0.056,0.239,0.089c0.004,0.109,0.026,0.226-0.138,0.25
		C52.9,7.283,52.183,7.43,51.474,7.613c-0.118,0.03-0.169,0.006-0.192-0.121c-0.024-0.131-0.035-0.222,0.132-0.26
		C52.127,7.067,52.846,6.929,53.523,6.84z"/>
	<path style="fill:#A2C837;" d="M67.196,11.894c-0.762,0.029-1.493,0.062-2.224,0.083c-0.257,0.007-0.43-0.195-0.647-0.293
		c0.031-0.08,0.095-0.054,0.144-0.057c0.675-0.041,1.35-0.047,2.026-0.041C66.811,11.588,66.919,11.632,67.196,11.894z"/>
	<path style="fill:#A2C837;" d="M64.735,9.014c-0.739-0.043-1.475-0.088-2.211-0.129c-0.126-0.007-0.241-0.007-0.242-0.179
		c-0.001-0.194,0.137-0.157,0.25-0.15c0.738,0.045,1.475,0.092,2.212,0.142c0.121,0.008,0.293-0.041,0.276,0.183
		C65.003,9.101,64.836,8.985,64.735,9.014z"/>
	<path style="fill:#A2C837;" d="M68.306,12.471c-0.725,0.037-1.451,0.094-2.176,0.101c-0.232,0.002-0.449-0.162-0.674-0.307
		c0.144-0.085,0.28-0.057,0.406-0.062c0.55-0.021,1.101-0.022,1.65-0.053C67.828,12.132,68.048,12.327,68.306,12.471z"/>
	<path style="fill:#A2C837;" d="M60.801,11.041c0.277-0.054,0.519-0.03,0.759-0.036c0.409-0.011,0.819,0.009,1.227-0.018
		c0.296-0.02,0.458,0.139,0.65,0.361c-0.215,0.014-0.392,0.029-0.57,0.037c-0.409,0.018-0.82,0.008-1.225,0.056
		C61.281,11.483,61.045,11.326,60.801,11.041z"/>
	<path style="fill:#A2C837;" d="M50.69,5.631c0.062-0.012,0.113,0,0.121,0.073c0.008,0.071,0.013,0.147-0.07,0.181
		c-0.058,0.024-0.119,0.039-0.18,0.055c-0.808,0.204-1.608,0.436-2.383,0.747c-0.153,0.062-0.206,0.008-0.262-0.12
		c-0.068-0.158,0.046-0.17,0.141-0.202c0.834-0.284,1.681-0.521,2.541-0.711C50.629,5.646,50.66,5.638,50.69,5.631z"/>
	<path style="fill:#A2C837;" d="M55.92,7.219c0.126-0.006,0.252-0.016,0.377-0.018c0.075-0.001,0.2-0.065,0.193,0.083
		c-0.005,0.112,0.013,0.263-0.179,0.275c-0.393,0.025-0.785,0.056-1.177,0.091c-0.29,0.026-0.578,0.066-0.868,0.095
		c-0.105,0.01-0.229,0.048-0.231-0.137c-0.002-0.142,0.011-0.232,0.191-0.251C54.791,7.301,55.354,7.244,55.92,7.219z"/>
	<path style="fill:#A2C837;" d="M80.732,12.741c0.446-0.07,0.877-0.137,1.307-0.205c0.288-0.046,0.579-0.079,0.862-0.143
		c0.539-0.122,1.078-0.1,1.625-0.006c-0.585,0.107-1.171,0.212-1.756,0.32c-0.613,0.114-1.225,0.225-1.851,0.103
		C80.863,12.799,80.794,12.828,80.732,12.741z"/>
	<path style="fill:#A2C837;" d="M50.618,5.092c0.095-0.01,0.125,0.048,0.142,0.125c0.02,0.091-0.026,0.132-0.105,0.151
		c-0.122,0.028-0.246,0.054-0.368,0.083c-0.789,0.184-1.566,0.413-2.335,0.665c-0.071,0.023-0.146,0.082-0.223,0.035
		c-0.053-0.033-0.079-0.1-0.079-0.164c-0.001-0.096,0.088-0.103,0.15-0.124c0.663-0.226,1.334-0.423,2.015-0.584
		C50.081,5.214,50.35,5.154,50.618,5.092z"/>
	<path style="fill:#A2C837;" d="M60.785,9.123c0.363,0,0.725,0.008,1.088-0.003c0.193-0.006,0.234,0.114,0.231,0.253
		c-0.003,0.154-0.138,0.089-0.219,0.089c-0.678-0.002-1.356-0.01-2.034-0.018c-0.076-0.001-0.168,0.028-0.22-0.048
		c-0.058-0.084-0.118-0.187-0.076-0.285c0.035-0.084,0.14-0.042,0.214-0.042c0.339-0.002,0.678-0.001,1.016-0.001
		C60.784,9.086,60.784,9.105,60.785,9.123z"/>
	<path style="fill:#A2C837;" d="M51.343,6.977c-0.151,0.025-0.157-0.065-0.176-0.14c-0.025-0.1,0.002-0.166,0.115-0.189
		c0.231-0.048,0.459-0.112,0.691-0.153c0.526-0.093,1.053-0.181,1.582-0.258c0.088-0.013,0.24-0.079,0.266,0.086
		c0.025,0.163-0.078,0.225-0.239,0.245c-0.718,0.087-1.429,0.223-2.134,0.384C51.401,6.962,51.355,6.974,51.343,6.977z"/>
	<path style="fill:#A2C837;" d="M64.691,9.578c-0.683-0.027-1.366-0.055-2.049-0.082c-0.039-0.002-0.079-0.002-0.118-0.008
		c-0.133-0.022-0.148-0.133-0.152-0.232c-0.006-0.125,0.103-0.099,0.173-0.096c0.774,0.036,1.547,0.08,2.321,0.112
		c0.172,0.007,0.229,0.106,0.216,0.24c-0.014,0.147-0.147,0.06-0.227,0.076c-0.053,0.011-0.11,0.002-0.165,0.002
		C64.69,9.586,64.691,9.582,64.691,9.578z"/>
	<path style="fill:#A2C837;" d="M60.611,6.64c0.564,0.036,1.129,0.07,1.693,0.11c0.072,0.005,0.205-0.042,0.194,0.093
		c-0.01,0.119-0.052,0.252-0.231,0.235c-0.227-0.021-0.454-0.035-0.682-0.048c-0.541-0.032-1.082-0.06-1.623-0.093
		c-0.076-0.005-0.202,0.031-0.184-0.109c0.013-0.104,0.043-0.225,0.197-0.217c0.212,0.012,0.424,0.023,0.635,0.034
		C60.61,6.643,60.611,6.641,60.611,6.64z"/>
	<path style="fill:#A2C837;" d="M56.137,5.425c0.228,0,0.456-0.004,0.683,0.002c0.068,0.002,0.184-0.045,0.19,0.07
		c0.006,0.11-0.04,0.217-0.188,0.223c-0.149,0.006-0.298,0.023-0.447,0.032c-0.651,0.039-1.302,0.079-1.953,0.114
		c-0.086,0.005-0.221,0.093-0.241-0.082c-0.019-0.169,0.096-0.204,0.239-0.216C54.992,5.519,55.563,5.467,56.137,5.425z"/>
	<path style="fill:#A2C837;" d="M50.526,4.246c-0.012,0.092-0.106,0.081-0.177,0.099c-0.679,0.173-1.359,0.34-2.036,0.517
		c-0.32,0.084-0.636,0.181-0.95,0.284c-0.131,0.043-0.226,0.019-0.257-0.109c-0.032-0.129,0.099-0.115,0.17-0.138
		c0.991-0.314,1.999-0.564,3.016-0.779C50.442,4.088,50.526,4.13,50.526,4.246z"/>
	<path style="fill:#A2C837;" d="M56.498,5.998c-0.01,0,0.039-0.008,0.084,0.002c0.072,0.016,0.201-0.064,0.204,0.068
		c0.002,0.13-0.035,0.262-0.228,0.262c-0.574-0.001-1.146,0.044-1.717,0.092c-0.188,0.016-0.375,0.038-0.563,0.05
		c-0.075,0.005-0.188,0.062-0.19-0.089c-0.002-0.116,0.015-0.224,0.167-0.236c0.196-0.016,0.391-0.037,0.587-0.05
		C55.375,6.064,55.908,6.034,56.498,5.998z"/>
	<path style="fill:#A2C837;" d="M51.215,6.383c-0.06,0.011-0.081-0.061-0.1-0.145c-0.029-0.127,0.037-0.171,0.145-0.19
		c0.551-0.096,1.101-0.197,1.653-0.288c0.272-0.045,0.546-0.075,0.82-0.105c0.061-0.007,0.16-0.065,0.175,0.044
		c0.011,0.087,0.005,0.196-0.113,0.235c-0.067,0.022-0.134,0.055-0.203,0.058c-0.768,0.035-1.511,0.213-2.258,0.373
		C51.312,6.369,51.288,6.371,51.215,6.383z"/>
	<path style="fill:#A2C837;" d="M47.576,5.657c-0.107,0.008-0.136-0.072-0.159-0.146c-0.037-0.119,0.066-0.123,0.136-0.146
		c0.721-0.231,1.452-0.425,2.188-0.604c0.245-0.059,0.491-0.115,0.737-0.173c0.09-0.022,0.147-0.004,0.176,0.097
		c0.034,0.117-0.04,0.139-0.119,0.156c-0.981,0.207-1.947,0.466-2.893,0.795C47.619,5.645,47.596,5.651,47.576,5.657z"/>
	<path style="fill:#A2C837;" d="M54.271,7.087c-0.104,0-0.226,0.049-0.236-0.136c-0.008-0.164,0.075-0.191,0.213-0.206
		c0.713-0.076,1.426-0.138,2.143-0.142c0.08,0,0.232-0.082,0.234,0.096c0.002,0.141-0.075,0.231-0.235,0.234
		C55.681,6.946,54.976,7.011,54.271,7.087z"/>
	<path style="fill:#A2C837;" d="M58.344,6.306c-0.37,0-0.74,0.002-1.11-0.002c-0.071-0.001-0.201,0.073-0.192-0.078
		c0.006-0.11,0.036-0.239,0.203-0.241c0.244-0.003,0.488-0.024,0.732-0.021c0.535,0.006,1.071,0.02,1.606,0.039
		c0.076,0.003,0.225-0.063,0.21,0.094c-0.012,0.118-0.071,0.241-0.244,0.232c-0.33-0.017-0.661-0.02-0.991-0.03
		c-0.071-0.002-0.141-0.008-0.212-0.012C58.344,6.293,58.344,6.299,58.344,6.306z"/>
	<path style="fill:#A2C837;" d="M69.817,12.66c0.446-0.027,0.892-0.054,1.337-0.08c0.243-0.014,0.489-0.008,0.73-0.043
		c0.392-0.056,0.742,0.073,1.142,0.202c-0.334,0.09-0.638,0.069-0.935,0.101c-0.438,0.047-0.878,0.069-1.317,0.106
		C70.423,12.976,70.129,12.803,69.817,12.66z"/>
	<path style="fill:#A2C837;" d="M68.963,10.769c-0.339,0-0.653,0.001-0.966,0c-0.544-0.003-1.088-0.006-1.632-0.011
		c-0.07-0.001-0.15,0.004-0.207-0.027c-0.089-0.047-0.204-0.133-0.189-0.222c0.019-0.112,0.155-0.055,0.24-0.053
		c0.78,0.015,1.56,0.039,2.34,0.048C68.735,10.507,68.867,10.562,68.963,10.769z"/>
	<path style="fill:#A2C837;" d="M58.167,6.904c-0.362,0-0.724,0.003-1.086-0.003c-0.073-0.001-0.198,0.047-0.192-0.098
		c0.004-0.101,0.032-0.207,0.166-0.223c0.031-0.004,0.062-0.011,0.094-0.011c0.724-0.006,1.448-0.029,2.171,0.018
		c0.075,0.005,0.203-0.038,0.2,0.095c-0.003,0.122-0.061,0.224-0.219,0.221c-0.378-0.005-0.755-0.002-1.133-0.002
		C58.167,6.903,58.167,6.903,58.167,6.904z"/>
	<path style="fill:#A2C837;" d="M58.087,7.176c0.354,0,0.708-0.003,1.062,0.003c0.063,0.001,0.185-0.046,0.166,0.091
		c-0.012,0.092,0.001,0.238-0.139,0.24c-0.778,0.011-1.557,0.012-2.335,0.015c-0.08,0-0.11-0.054-0.091-0.129
		c0.025-0.102,0.014-0.224,0.182-0.22c0.385,0.007,0.771,0.002,1.156,0.002C58.087,7.176,58.087,7.176,58.087,7.176z"/>
	<path style="fill:#A2C837;" d="M63.578,11.049c0.074-0.068,0.148-0.045,0.215-0.044c0.66,0.001,1.32,0.004,1.98,0.008
		c0.078,0,0.165-0.01,0.233,0.018c0.129,0.053,0.307,0.133,0.3,0.261c-0.006,0.111-0.189,0.035-0.29,0.037
		c-0.667,0.012-1.335,0.01-2.002,0.02C63.788,11.351,63.703,11.182,63.578,11.049z"/>
	<path style="fill:#A2C837;" d="M78.329,12.795c-0.818,0.099-1.634,0.21-2.454,0.29c-0.329,0.032-0.646-0.099-0.967-0.204
		c0.383-0.039,0.767-0.076,1.15-0.116c0.399-0.042,0.799-0.076,1.195-0.132C77.629,12.58,77.975,12.695,78.329,12.795z"/>
	<path style="fill:#A2C837;" d="M68.043,9.713c-0.801-0.027-1.573-0.053-2.345-0.08c-0.071-0.002-0.142-0.005-0.212-0.017
		c-0.124-0.022-0.131-0.126-0.131-0.219c0.001-0.111,0.095-0.087,0.159-0.083c0.858,0.048,1.716,0.099,2.574,0.148
		c0.108,0.006,0.201,0.046,0.189,0.162C68.258,9.81,68.101,9.682,68.043,9.713z"/>
	<path style="fill:#A2C837;" d="M56.893,4.863c0.055,0,0.112-0.008,0.165,0.002c0.067,0.012,0.184-0.056,0.185,0.071
		c0.001,0.112-0.047,0.214-0.196,0.217c-0.205,0.003-0.409,0.022-0.614,0.025c-0.654,0.012-1.306,0.065-1.957,0.118
		c-0.075,0.006-0.188,0.068-0.198-0.081c-0.008-0.124,0.063-0.188,0.185-0.196c0.495-0.035,0.99-0.074,1.485-0.105
		c0.314-0.02,0.629-0.029,0.944-0.044C56.893,4.868,56.893,4.866,56.893,4.863z"/>
	<path style="fill:#A2C837;" d="M66.515,11.029c0.928,0,1.811-0.002,2.694,0.002c0.17,0.001,0.274,0.126,0.437,0.266
		c-0.417,0-0.776-0.004-1.135,0.001c-0.457,0.006-0.915,0.009-1.371,0.033C66.884,11.344,66.708,11.231,66.515,11.029z"/>
	<path style="fill:#A2C837;" d="M63.723,9.801c0.543,0.027,0.928,0.046,1.314,0.065c0.078,0.004,0.164-0.006,0.209,0.078
		c0.029,0.054,0.083,0.109,0.06,0.173c-0.028,0.081-0.108,0.044-0.165,0.043c-0.764-0.016-1.528-0.038-2.291-0.053
		c-0.108-0.002-0.175-0.041-0.226-0.135c-0.08-0.147-0.067-0.205,0.123-0.199C63.124,9.788,63.503,9.777,63.723,9.801z"/>
	<path style="fill:#A2C837;" d="M46.223,4.158c0.394-0.111,0.754-0.215,1.115-0.314c0.775-0.214,1.557-0.398,2.344-0.558
		c0.054-0.011,0.108-0.028,0.162-0.028c0.079,0.001,0.141,0.053,0.147,0.126c0.006,0.074-0.079,0.067-0.126,0.076
		c-1.121,0.226-2.225,0.517-3.316,0.857C46.402,4.364,46.337,4.275,46.223,4.158z"/>
	<path style="fill:#A2C837;" d="M67.117,10.19c-0.401,0-0.803,0.001-1.204-0.001c-0.093-0.001-0.194,0.009-0.263-0.075
		c-0.044-0.054-0.105-0.115-0.079-0.186c0.027-0.075,0.11-0.039,0.168-0.037c0.818,0.029,1.635,0.061,2.453,0.092
		c0.055,0.002,0.111,0,0.165,0.011c0.105,0.023,0.175,0.11,0.167,0.201c-0.007,0.088-0.117,0.051-0.181,0.052
		c-0.409,0.004-0.818,0.002-1.226,0.002C67.117,10.229,67.117,10.21,67.117,10.19z"/>
	<path style="fill:#A2C837;" d="M53.998,5.243c0.006,0.094-0.07,0.122-0.165,0.132c-0.869,0.093-1.73,0.24-2.588,0.407
		c-0.076,0.015-0.162,0.052-0.178-0.075c-0.013-0.102,0.025-0.166,0.131-0.187c0.278-0.054,0.554-0.121,0.833-0.165
		c0.582-0.093,1.166-0.177,1.751-0.258C53.872,5.084,54.003,5.045,53.998,5.243z"/>
	<path style="fill:#A2C837;" d="M51.112,4.721c-0.123,0.012-0.182-0.007-0.195-0.1c-0.015-0.111,0.057-0.132,0.14-0.146
		c0.683-0.109,1.365-0.221,2.048-0.326c0.287-0.044,0.576-0.072,0.864-0.106c0.083-0.01,0.184-0.045,0.192,0.095
		c0.007,0.117-0.072,0.139-0.167,0.151c-0.698,0.091-1.398,0.157-2.091,0.286C51.626,4.627,51.347,4.677,51.112,4.721z"/>
	<path style="fill:#A2C837;" d="M45.74,3.837c0.053-0.088,0.149-0.086,0.228-0.109c1.086-0.327,2.187-0.598,3.297-0.833
		c0.125-0.027,0.234-0.036,0.307,0.095c-0.061,0.096-0.169,0.08-0.255,0.099c-1.086,0.235-2.16,0.513-3.223,0.837
		C45.951,3.969,45.835,3.968,45.74,3.837z"/>
	<path style="fill:#A2C837;" d="M54.528,4.744c-0.06,0.008-0.137,0.027-0.147-0.063c-0.011-0.1,0.037-0.169,0.141-0.181
		c0.18-0.02,0.359-0.038,0.54-0.05c0.721-0.047,1.442-0.107,2.165-0.114c0.069-0.001,0.181-0.051,0.194,0.063
		c0.012,0.113-0.059,0.187-0.187,0.192c-0.416,0.019-0.832,0.04-1.247,0.064C55.5,4.684,55.014,4.715,54.528,4.744z"/>
	<path style="fill:#A2C837;" d="M78.647,12.491c0.747-0.1,1.495-0.191,2.24-0.303c0.476-0.072,0.948-0.134,1.428,0.029
		c-0.319,0.052-0.638,0.107-0.958,0.155c-0.545,0.082-1.091,0.161-1.637,0.241C79.354,12.667,79.003,12.567,78.647,12.491z"/>
	<path style="fill:#A2C837;" d="M58.627,5.713c-0.378,0-0.756,0.005-1.134-0.004c-0.073-0.002-0.218,0.073-0.212-0.087
		c0.004-0.125,0.08-0.211,0.234-0.206c0.228,0.007,0.457-0.011,0.685-0.008c0.551,0.005,1.102,0.013,1.653,0.028
		c0.083,0.002,0.242-0.071,0.23,0.101c-0.01,0.14-0.102,0.225-0.276,0.219c-0.393-0.015-0.787-0.005-1.18-0.005
		C58.627,5.738,58.627,5.725,58.627,5.713z"/>
	<path style="fill:#A2C837;" d="M71.569,12.291c-0.533,0.031-1.031,0.061-1.53,0.089c-0.228,0.013-0.458,0.005-0.683,0.039
		c-0.329,0.048-0.587-0.112-0.86-0.269c0.168-0.011,0.335-0.026,0.503-0.032c0.613-0.024,1.226-0.047,1.839-0.069
		C71.105,12.039,71.273,12.093,71.569,12.291z"/>
	<path style="fill:#A2C837;" d="M64.235,10.442c0.378,0,0.756-0.001,1.135,0.001c0.061,0,0.134,0.002,0.181,0.034
		c0.07,0.047,0.156,0.125,0.141,0.205c-0.018,0.1-0.133,0.053-0.203,0.053c-0.71,0.001-1.42-0.003-2.129-0.005
		c-0.039,0-0.082,0.006-0.118-0.006c-0.138-0.044-0.261-0.16-0.257-0.277c0.004-0.124,0.167-0.054,0.257-0.056
		c0.331-0.009,0.662-0.004,0.993-0.004C64.235,10.405,64.235,10.424,64.235,10.442z"/>
	<path style="fill:#A2C837;" d="M51.146,5.256c-0.096,0.018-0.123-0.041-0.134-0.12c-0.014-0.107,0.053-0.134,0.138-0.15
		c0.372-0.068,0.743-0.137,1.115-0.205c0.525-0.096,1.056-0.159,1.587-0.205c0.077-0.007,0.208-0.061,0.228,0.087
		c0.022,0.161-0.11,0.139-0.207,0.152c-0.859,0.111-1.718,0.225-2.565,0.412C51.255,5.238,51.2,5.246,51.146,5.256z"/>
	<path style="fill:#A2C837;" d="M50.294,3.784c-0.023,0.105-0.119,0.086-0.189,0.102c-0.854,0.188-1.702,0.397-2.541,0.646
		c-0.174,0.051-0.346,0.107-0.519,0.159C47,4.705,46.954,4.719,46.908,4.725c-0.094,0.011-0.159-0.051-0.177-0.126
		c-0.02-0.087,0.078-0.086,0.13-0.101c0.599-0.168,1.197-0.34,1.8-0.494c0.465-0.118,0.937-0.212,1.406-0.315
		C50.16,3.669,50.259,3.647,50.294,3.784z"/>
	<path style="fill:#A2C837;" d="M67.376,11.571c0.614,0,1.227,0.002,1.841-0.001c0.197-0.001,0.394-0.006,0.589-0.022
		c0.227-0.018,0.409,0.066,0.581,0.204c-0.067,0.088-0.153,0.055-0.226,0.058c-0.724,0.028-1.447,0.054-2.171,0.08
		C67.736,11.9,67.56,11.735,67.376,11.571z"/>
	<path style="fill:#A2C837;" d="M73.263,12.463c0.302-0.024,0.603-0.048,0.905-0.071c0.565-0.043,1.13-0.085,1.696-0.128
		c0.241-0.018,0.452,0.091,0.679,0.183c-0.396,0.041-0.792,0.083-1.188,0.122c-0.306,0.03-0.613,0.047-0.917,0.085
		C74.031,12.704,73.64,12.67,73.263,12.463z"/>
	<path style="fill:#A2C837;" d="M69.875,11.077c0.052-0.061,0.111-0.047,0.164-0.047c0.914-0.007,1.827-0.011,2.741-0.02
		c0.134-0.001,0.244,0.033,0.358,0.175c-0.294,0.016-0.555,0.035-0.816,0.044c-0.661,0.023-1.322,0.038-1.983,0.062
		C70.142,11.299,70,11.216,69.875,11.077z"/>
	<path style="fill:#A2C837;" d="M54.023,3.558c0.07-0.005,0.131,0.003,0.134,0.092c0.003,0.08-0.048,0.107-0.119,0.118
		c-0.317,0.045-0.632,0.107-0.95,0.136c-0.699,0.063-1.386,0.194-2.076,0.31c-0.094,0.016-0.197,0.057-0.224-0.084
		c-0.027-0.143,0.097-0.121,0.171-0.132c0.692-0.11,1.385-0.219,2.079-0.32C53.364,3.627,53.694,3.596,54.023,3.558z"/>
	<path style="fill:#A2C837;" d="M76.95,12.174c0.778-0.088,1.557-0.176,2.335-0.265c0.234-0.027,0.468-0.081,0.702-0.082
		c0.185-0.001,0.371,0.06,0.561,0.094c-0.044,0.076-0.12,0.062-0.179,0.069c-0.898,0.113-1.796,0.229-2.695,0.329
		C77.427,12.347,77.187,12.258,76.95,12.174z"/>
	<path style="fill:#A2C837;" d="M71.762,12.02c0.671-0.036,1.278-0.069,1.886-0.102c0.251-0.014,0.503-0.02,0.753-0.047
		c0.261-0.028,0.493,0.046,0.723,0.184c-0.598,0.045-1.196,0.091-1.793,0.135c-0.243,0.018-0.487,0.025-0.729,0.05
		C72.313,12.27,72.069,12.156,71.762,12.02z"/>
	<path style="fill:#A2C837;" d="M73.987,11.635c-0.538,0.028-1.077,0.058-1.615,0.085c-0.315,0.016-0.63,0.023-0.944,0.044
		c-0.253,0.017-0.482-0.038-0.698-0.183c0.033-0.069,0.094-0.041,0.139-0.043c0.865-0.033,1.731-0.059,2.596-0.099
		C73.667,11.43,73.828,11.5,73.987,11.635z"/>
	<path style="fill:#A2C837;" d="M75.54,11.834c0.682-0.188,3.205-0.322,3.502-0.194C78.187,11.88,76.023,12.007,75.54,11.834z"/>
	<path style="fill:#A2C837;" d="M72.462,10.769c-0.449,0-0.886-0.001-1.323,0c-0.504,0.001-1.008,0-1.512,0.009
		c-0.173,0.003-0.304-0.048-0.391-0.198c0.029-0.065,0.083-0.042,0.125-0.042c0.945-0.001,1.89,0,2.835-0.002
		C72.324,10.536,72.43,10.551,72.462,10.769z"/>
	<path style="fill:#A2C837;" d="M74.347,11.411c0.8-0.056,1.529-0.106,2.257-0.158c0.29-0.021,0.581-0.04,0.871-0.071
		c0.164-0.018,0.301,0.027,0.487,0.143c-0.824,0.073-1.59,0.141-2.355,0.207c-0.22,0.019-0.44,0.028-0.659,0.049
		C74.751,11.598,74.579,11.537,74.347,11.411z"/>
	<path style="fill:#A2C837;" d="M15.564,9.646c-0.016,0.007-0.032,0.014-0.048,0.02c0.01-0.015,0.019-0.029,0.029-0.044
		C15.551,9.631,15.557,9.638,15.564,9.646z"/>
	<path style="fill:#A2C837;" d="M13.037,9.294c0.025-0.007,0.063-0.027,0.072-0.018c0.029,0.029-0.011,0.043-0.027,0.061
		C13.067,9.322,13.052,9.308,13.037,9.294z"/>
	<path style="fill:#A2C837;" d="M23.584,7.245c0.025-0.016,0.051-0.027,0.076,0.001c-0.015,0.013-0.03,0.025-0.046,0.038
		C23.604,7.271,23.594,7.258,23.584,7.245z"/>
	<path style="fill:#A2C837;" d="M22.534,7.246c-0.023,0.021-0.047,0.03-0.073,0.004c0.016-0.011,0.031-0.023,0.047-0.034
		C22.517,7.226,22.525,7.236,22.534,7.246z"/>
	<path style="fill:#A2C837;" d="M26.35,6.515c0.006-0.011,0.013-0.022,0.019-0.033c0.007,0.007,0.014,0.014,0.02,0.021
		C26.376,6.508,26.363,6.512,26.35,6.515C26.35,6.515,26.35,6.515,26.35,6.515z"/>
	<path style="fill:#A2C837;" d="M25.496,6.371c-0.004,0.011-0.008,0.023-0.011,0.034c-0.007-0.006-0.015-0.012-0.022-0.018
		c0.012-0.004,0.025-0.009,0.037-0.013C25.499,6.374,25.496,6.371,25.496,6.371z"/>
	<path style="fill:#A2C837;" d="M17.252,7.734c0.022-0.027,0.046-0.037,0.076-0.012c-0.014,0.016-0.028,0.032-0.042,0.049
		C17.274,7.759,17.263,7.747,17.252,7.734z"/>
	<path style="fill:#A2C837;" d="M8.447,11.189c0.019-0.024,0.05-0.041,0.071-0.02c0.028,0.028-0.01,0.043-0.027,0.061
		C8.477,11.217,8.462,11.203,8.447,11.189z"/>
	<polygon style="fill:#A2C837;" points="30.479,5.314 30.465,5.307 30.48,5.302 	"/>
	<path style="fill:#A2C837;" d="M14.037,10.578c0.01-0.023,0.025-0.033,0.049-0.02c-0.01,0.015-0.02,0.03-0.029,0.045
		C14.05,10.595,14.044,10.586,14.037,10.578z"/>
	<path style="fill:#A2C837;" d="M10.241,12.221c-0.005,0.004-0.009,0.011-0.014,0.011c-0.004,0-0.008-0.008-0.012-0.012
		c0.005-0.004,0.009-0.011,0.014-0.011C10.234,12.209,10.237,12.217,10.241,12.221z"/>
	<path style="fill:#A2C837;" d="M17.705,13.538c-0.016,0-0.033,0.001-0.049,0.001c0.006-0.011,0.012-0.021,0.018-0.032
		C17.684,13.518,17.695,13.528,17.705,13.538z"/>
	<polygon style="fill:#A2C837;" points="24.75,8.908 24.766,8.901 24.765,8.916 	"/>
	<path style="fill:#A2C837;" d="M17.53,9.246c0.013-0.019,0.028-0.027,0.046-0.006c-0.01,0.007-0.019,0.015-0.029,0.022
		C17.547,9.262,17.53,9.246,17.53,9.246z"/>
	<path style="fill:#A2C837;" d="M15.149,14.482c-0.011,0.004-0.023,0.008-0.034,0.012c0.006-0.009,0.011-0.018,0.017-0.027
		C15.131,14.467,15.149,14.482,15.149,14.482z"/>
	<path style="fill:#A2C837;" d="M8.798,14.619c-0.011,0.007-0.027,0.023-0.032,0.02c-0.027-0.015-0.014-0.034,0-0.051
		C8.777,14.598,8.788,14.608,8.798,14.619z"/>
	<path style="fill:#A2C837;" d="M17.247,11.328c0.015-0.017,0.031-0.027,0.047-0.003c0.002,0.003-0.015,0.018-0.023,0.027
		C17.263,11.344,17.255,11.336,17.247,11.328z"/>
	<path style="fill:#A2C837;" d="M15.573,11.643c-0.014,0.017-0.029,0.026-0.045,0.004c-0.001-0.002,0.015-0.016,0.023-0.025
		C15.559,11.629,15.566,11.636,15.573,11.643z"/>
	<path style="fill:#A2C837;" d="M11.592,11.259c-0.011,0.007-0.028,0.024-0.033,0.021c-0.03-0.018-0.01-0.033,0.007-0.047
		C11.575,11.242,11.583,11.25,11.592,11.259z"/>
	<path style="fill:#A2C837;" d="M12.307,13.014c-0.012,0.004-0.023,0.009-0.035,0.013c0.006-0.009,0.012-0.018,0.019-0.027
		C12.291,12.999,12.307,13.014,12.307,13.014z"/>
	<path style="fill:#A2C837;" d="M21.142,6.467c0.007-0.007,0.014-0.014,0.022-0.022c0,0.005,0.002,0.013-0.001,0.016
		c-0.005,0.004-0.013,0.005-0.019,0.007C21.144,6.468,21.142,6.467,21.142,6.467z"/>
</g>
</svg>
