<svg xmlns="http://www.w3.org/2000/svg" xmlns:xlink="http://www.w3.org/1999/xlink" width="25" height="25" viewBox="0 0 25 25"><defs><style>.a{fill:none;}.b{clip-path:url(#a);}.c{fill:#fa0;}.d{fill:#fff;}</style><clipPath id="a"><rect class="a" width="25" height="25"/></clipPath></defs><g class="b"><rect class="c" width="25" height="25"/><g transform="translate(2 2.001)"><g transform="translate(0 11.066)"><path class="d" d="M23,11.888l-.772.722-2.348-1.4a1.2,1.2,0,0,0-.644-.176,1.161,1.161,0,0,0-.634.176l-1.322.786a2.831,2.831,0,0,1-2.823,0l-1.311-.786a1.222,1.222,0,0,0-.644-.176,1.2,1.2,0,0,0-.644.176l-1.313.786a2.853,2.853,0,0,1-2.835,0L6.4,11.206a1.249,1.249,0,0,0-1.278,0l-2.348,1.4L2,11.888l2.348-1.4a2.742,2.742,0,0,1,1.407-.377,2.812,2.812,0,0,1,1.418.377l1.311.786a1.222,1.222,0,0,0,.644.176,1.2,1.2,0,0,0,.644-.176l1.311-.786a2.853,2.853,0,0,1,2.835,0l1.311.786a1.2,1.2,0,0,0,.644.176,1.222,1.222,0,0,0,.644-.176l1.311-.786a2.834,2.834,0,0,1,2.825,0Z" transform="translate(-2 -10.107)"/></g><g transform="translate(0 14.782)"><path class="d" d="M23,14.6l-.772.722-2.348-1.4a1.2,1.2,0,0,0-.644-.176,1.161,1.161,0,0,0-.634.176L17.28,14.7a2.831,2.831,0,0,1-2.823,0l-1.311-.786a1.222,1.222,0,0,0-.644-.176,1.2,1.2,0,0,0-.644.176l-1.313.786a2.853,2.853,0,0,1-2.835,0L6.4,13.917a1.249,1.249,0,0,0-1.278,0l-2.348,1.4L2,14.6l2.348-1.4a2.742,2.742,0,0,1,1.407-.377,2.812,2.812,0,0,1,1.418.377l1.311.786a1.293,1.293,0,0,0,.644.168,1.265,1.265,0,0,0,.644-.168l1.311-.786a2.853,2.853,0,0,1,2.835,0l1.311.786a1.265,1.265,0,0,0,.644.168,1.293,1.293,0,0,0,.644-.168l1.311-.786a2.742,2.742,0,0,1,1.407-.377,2.812,2.812,0,0,1,1.417.377Z" transform="translate(-2 -12.818)"/></g><g transform="translate(0 18.497)"><path class="d" d="M23,17.31l-.772.722-2.348-1.4a1.2,1.2,0,0,0-.644-.176,1.222,1.222,0,0,0-.644.176l-1.311.786a2.78,2.78,0,0,1-1.418.377,2.746,2.746,0,0,1-1.407-.377l-1.322-.786a1.249,1.249,0,0,0-1.278,0l-1.322.786a2.742,2.742,0,0,1-1.407.377,2.812,2.812,0,0,1-1.418-.377L6.4,16.628a1.265,1.265,0,0,0-.644-.168,1.293,1.293,0,0,0-.644.168l-2.336,1.4L2,17.31l2.348-1.4a2.742,2.742,0,0,1,1.407-.377,2.812,2.812,0,0,1,1.418.377l1.311.786a1.32,1.32,0,0,0,1.289,0l1.311-.786a2.808,2.808,0,0,1,1.418-.377,2.746,2.746,0,0,1,1.407.377l1.322.786a1.3,1.3,0,0,0,1.278,0l1.322-.786a2.742,2.742,0,0,1,1.407-.377,2.784,2.784,0,0,1,1.417.377Z" transform="translate(-2 -15.529)"/></g><g transform="translate(8.083)"><path class="d" d="M12.393,4.494l-.6.585a.076.076,0,0,1-.121,0L10.508,3.924V8.487a.082.082,0,0,1-.081.088H9.589A.09.09,0,0,1,9.5,8.487V3.9L8.316,5.087a.111.111,0,0,1-.121,0l-.588-.593a.087.087,0,0,1,0-.12L9.943,2.056a.079.079,0,0,1,.113,0l2.336,2.318A.086.086,0,0,1,12.393,4.494Z" transform="translate(-7.583 -2.032)"/></g></g></g></svg>