<svg xmlns="http://www.w3.org/2000/svg" xmlns:xlink="http://www.w3.org/1999/xlink" width="25" height="25" viewBox="0 0 25 25"><defs><style>.a{fill:none;}.b{clip-path:url(#a);}.c{fill:#698397;}</style><clipPath id="a"><rect class="a" width="25" height="25"/></clipPath></defs><g class="b"><path class="c" d="M23.438,9.506h-.675a11.34,11.34,0,0,0-.875-2.088l.475-.475a1.577,1.577,0,0,0,0-2.225l-2.05-2.05A1.6,1.6,0,0,0,18.1,2.656l-.487.488a10.343,10.343,0,0,0-2.1-.875V1.593A1.563,1.563,0,0,0,13.951.031h-2.9A1.566,1.566,0,0,0,9.476,1.593v.675a10.54,10.54,0,0,0-2.088.875l-.475-.475A1.6,1.6,0,0,0,4.7,2.656L2.638,4.718a1.562,1.562,0,0,0,0,2.212l.475.487a10.54,10.54,0,0,0-.875,2.088H1.563A1.574,1.574,0,0,0,0,11.081v2.9a1.582,1.582,0,0,0,1.562,1.575h.675a10.54,10.54,0,0,0,.875,2.087l-.475.475a1.577,1.577,0,0,0,0,2.225l2.05,2.05a1.613,1.613,0,0,0,1.112.45,1.583,1.583,0,0,0,1.1-.45l.487-.475a10.5,10.5,0,0,0,2.087.863v.675a1.574,1.574,0,0,0,1.562,1.575h2.913a1.563,1.563,0,0,0,1.562-1.562v-.675a10.343,10.343,0,0,0,2.1-.875l.475.475a1.6,1.6,0,0,0,2.212.013l2.062-2.062a1.577,1.577,0,0,0,0-2.225l-.475-.475a10.5,10.5,0,0,0,.863-2.088h.675A1.585,1.585,0,0,0,25,13.981v-2.9A1.574,1.574,0,0,0,23.438,9.506Zm-1.625,4.512h-.25l-.062.25-.075.35a9.144,9.144,0,0,1-1.137,2.75l-.187.3-.137.212,1.325,1.325-2.062,2.112-1.2-1.15-.175-.175-.213.138-.3.188a9.144,9.144,0,0,1-2.75,1.137l-.35.087-.25.05v1.875l-2.937.038L11,21.844v-.25l-.237-.05-.35-.087a9.144,9.144,0,0,1-2.75-1.137l-.312-.187-.2-.138L5.826,21.318,3.714,19.256l1.15-1.2.175-.175L4.9,17.668l-.187-.3a9.144,9.144,0,0,1-1.138-2.75l-.087-.35-.05-.25H1.564l-.037-2.937,1.662-.037h.25l.05-.25.087-.35a9.144,9.144,0,0,1,1.138-2.75l.188-.3.137-.213L3.714,5.856l2.05-2.113,1.212,1.15.175.175.2-.137.313-.187a9.144,9.144,0,0,1,2.75-1.138l.35-.087L11,3.469V1.594l2.95-.037.037,1.662v.25l.25.05.35.087a9.144,9.144,0,0,1,2.75,1.138l.3.188.213.137.175-.175,1.15-1.15,2.112,2.062-1.15,1.2-.175.175.125.213.2.3a9.144,9.144,0,0,1,1.137,2.75l.075.35.063.25h1.862l.05,2.937Z" transform="translate(-0.001 -0.031)"/><path class="c" d="M12.5,4.721a7.805,7.805,0,1,0,7.8,7.812A7.836,7.836,0,0,0,12.5,4.721Zm0,13.815a6,6,0,1,1,6-6A5.99,5.99,0,0,1,12.5,18.536Z" transform="translate(-0.001 -0.031)"/><path class="c" d="M12.551,7.481a3.606,3.606,0,1,0,1.06,2.55A3.556,3.556,0,0,0,12.551,7.481Zm-.51,4.59a2.959,2.959,0,0,1-2.04.85,2.885,2.885,0,1,1,2.04-.85Z" transform="translate(2.499 2.469)"/></g></svg>