<svg xmlns="http://www.w3.org/2000/svg" xmlns:xlink="http://www.w3.org/1999/xlink" width="25" height="25" viewBox="0 0 25 25"><defs><style>.a{fill:none;}.b{clip-path:url(#a);}.c{fill:#d10000;}.d{clip-path:url(#b);}.e{fill:#fff;}</style><clipPath id="a"><rect class="a" width="25" height="25"/></clipPath><clipPath id="b"><rect width="21" height="21"/></clipPath></defs><g class="b"><rect class="c" width="25" height="25"/><g transform="translate(2 2)"><g class="d"><g transform="translate(0.005 0.003)"><path class="e" d="M22.344,18.421a11.5,11.5,0,0,1-5.822-1.347,6.092,6.092,0,0,1-2.9-3.812c-.591-2.359.263-4.684,1.389-5.484a1.6,1.6,0,0,1,1.095-.316,2.435,2.435,0,0,1,1.474.832c.969.99.9,3.21.853,4.674v.01a4.561,4.561,0,0,0,.1,1.768.815.815,0,0,0,.99.516,4.1,4.1,0,0,0,1.864-1.883,7.944,7.944,0,0,0,1.053-3.821A7.265,7.265,0,0,0,20.123,3.97a8.148,8.148,0,0,0-5.179-1.937c-.042,0-.094.01-.147.01a11.534,11.534,0,0,0-8.5,3.863C4.376,7.959,2.082,11.769,2.008,18.181c-.01.7,0,1.337.011,1.958.01.811.021,1.505-.011,2.105a.716.716,0,0,0,.621.789H22.345A.7.7,0,0,0,23,22.289V19.17A.709.709,0,0,0,22.344,18.421Zm-19,3.116v-.031c0-.442,0-.906-.011-1.4-.01-.612-.01-1.232-.01-1.9.073-5.978,2.2-9.442,3.969-11.3a10.421,10.421,0,0,1,7.4-3.348h.095c3.158.031,6.347,1.9,6.326,6a6.2,6.2,0,0,1-1.326,3.737l-.053.052v-.072a.693.693,0,0,1,.011-.147v-.073c.052-1.757.147-4.411-1.284-5.873A3.521,3.521,0,0,0,15.9,5.938h-.22a8.744,8.744,0,0,0-4.728,1.421,11.481,11.481,0,0,0-4.842,9.547,11.913,11.913,0,0,0,.937,4.59l.01.042H3.344Zm5.22,0-.01-.021a10.327,10.327,0,0,1-1.063-5.8,9.758,9.758,0,0,1,2.231-5.347l.115-.147-.073.168a10.083,10.083,0,0,0-.843,3.663,9.859,9.859,0,0,0,1.452,5.726,7.1,7.1,0,0,0,1.507,1.7l.052.053Zm13.116-.031h-.021v.031H15.491a5.865,5.865,0,0,1-3.959-2.5c-.094-.126-.157-.274-.241-.411-.042-.084-.094-.157-.136-.232a7.818,7.818,0,0,1-.451-.99.729.729,0,0,1-.032-.073,7.2,7.2,0,0,1-.316-1.179v-.042a6.8,6.8,0,0,1-.116-1.221v-.189a5.322,5.322,0,0,1,0-.579,7.489,7.489,0,0,1,2.326-5.295l.085-.063-.042.095a8.277,8.277,0,0,0-.253,4.821,7.456,7.456,0,0,0,3.011,4.378,11.518,11.518,0,0,0,6.211,1.853h.1v1.589Z" transform="translate(-2.004 -2.033)"/></g></g></g></g></svg>