<?xml version="1.0" encoding="utf-8"?>
<!-- Generator: Adobe Illustrator 23.0.1, SVG Export Plug-In . SVG Version: 6.00 Build 0)  -->
<svg version="1.1" id="Livello_1" xmlns="http://www.w3.org/2000/svg" xmlns:xlink="http://www.w3.org/1999/xlink" x="0px" y="0px"
	 viewBox="0 0 90 35" style="enable-background:new 0 0 90 35;" xml:space="preserve">
<style type="text/css">
	.st0{fill:#A2C837;}
	.st1{fill:#0B303A;}
</style>
<g>
	<path class="st0" d="M4.2,31.8L4.2,31.8L4.2,31.8z"/>
	<path class="st0" d="M8.5,25.9c-0.6,0.7-1.3,1.5-1.8,2.3l-0.1,0.1c-1.3,0.6-2.5,1.2-3.7,1.9H2.8c0-0.1,0-0.1,0.1-0.2
		c0.4-0.7,0.8-1.3,1.3-2c0.1-0.1,0.1-0.2,0.2-0.2C5.8,27.2,7.2,26.6,8.5,25.9C8.4,25.8,8.4,25.8,8.5,25.9
		C8.5,25.8,8.5,25.8,8.5,25.9z"/>
	<path class="st0" d="M4.9,31.1C5.3,30.5,5.7,30,6,29.4c0.4-0.7,1-1.2,1.8-1.5c0.7-0.3,1.4-0.6,2-0.9c0.1,0,0.1-0.1,0.2-0.1
		c0,0.1,0,0.1-0.1,0.2c-0.6,0.8-1.2,1.5-1.8,2.4C8,29.6,8,29.7,7.9,29.7c-1,0.5-2,1-2.9,1.5C5.1,31.1,5,31.1,4.9,31.1z"/>
	<path class="st0" d="M9.5,31.5c0-0.2,0.1-0.3,0.2-0.4c0.6-1,1.3-1.9,2-2.8c0-0.1,0.1-0.1,0.1-0.1c0.8-0.4,1.6-0.7,2.5-1l-0.1,0.1
		c-0.8,1-1.6,2-2.2,3.1c0,0.1-0.1,0.2-0.2,0.2C11.1,30.9,10.3,31.2,9.5,31.5C9.6,31.5,9.6,31.5,9.5,31.5z"/>
	<path class="st0" d="M13.1,24L13.1,24c-0.8,0.7-1.5,1.5-2.2,2.2c-0.1,0.1-0.1,0.1-0.2,0.1c-1.1,0.5-2.2,1-3.4,1.5c0,0,0,0-0.1,0
		c0-0.1,0-0.1,0.1-0.2c0.6-0.7,1.2-1.4,1.8-2.1c0.1-0.1,0.1-0.1,0.2-0.2c1.2-0.5,2.4-1,3.6-1.5l0,0C13,23.9,13,23.9,13.1,24
		C13.1,23.9,13.1,23.9,13.1,24z"/>
	<path class="st0" d="M8.8,29.2c0.6-0.9,1.4-1.8,2.1-2.7c0-0.1,0.1-0.1,0.2-0.1c1-0.4,1.9-0.8,2.9-1.2h0.1l0,0
		c-0.5,0.6-1.1,1-1.5,1.7C12,27.8,11,28.3,10,28.7C9.6,28.9,9.2,29.1,8.8,29.2L8.8,29.2z"/>
	<path class="st0" d="M17.3,26c-0.3,0.3-0.6,0.7-0.9,1c-0.6,0.7-1.2,1.4-1.7,2.2c-0.1,0.1-0.2,0.2-0.3,0.3c-0.6,0.2-1.2,0.5-1.7,0.7
		c-0.1,0-0.1,0-0.2,0.1c0.1-0.3,0.2-0.4,0.4-0.6c0.6-0.9,1.3-1.8,2-2.6c0.1-0.1,0.2-0.2,0.4-0.3C15.9,26.5,16.6,26.2,17.3,26
		L17.3,26z"/>
	<path class="st0" d="M15.1,29.1c0.3-0.6,0.7-1,1.2-1.5c0.5-0.6,1-1.2,1.6-1.8l0.1-0.1c0.6-0.2,1.3-0.5,2-0.7c0,0.1-0.1,0.2-0.1,0.2
		c-1,0.9-1.8,2-2.6,3.1c0,0.1-0.1,0.2-0.2,0.2C16.4,28.6,15.8,28.9,15.1,29.1L15.1,29.1z"/>
	<path class="st0" d="M17.5,23.9c-0.5,0.5-1,0.9-1.5,1.4c-0.4,0.4-0.7,0.8-1.1,1.1c-0.1,0.1-0.1,0.1-0.2,0.2c-0.8,0.3-1.5,0.7-2.3,1
		h-0.1l0,0c0.4-0.5,0.8-1,1.3-1.5c0.2-0.3,0.5-0.5,0.8-0.8c0.3-0.4,0.7-0.6,1.2-0.8C16.2,24.4,16.9,24.1,17.5,23.9L17.5,23.9z"/>
	<path class="st0" d="M17.7,28.1c0.5-0.7,1.1-1.4,1.7-2.1c0.4-0.4,0.8-0.8,1.2-1.2c0.1,0,0.1-0.1,0.2-0.1c0.6-0.2,1.1-0.4,1.7-0.6
		c0,0.1,0,0.1-0.1,0.2c-1,1-1.9,2-2.8,3.1c-0.1,0.1-0.1,0.1-0.2,0.2C18.8,27.8,18.3,28,17.7,28.1L17.7,28.1z"/>
	<path class="st0" d="M17.3,22.4c-0.9,0.7-1.7,1.4-2.5,2.2c0,0-0.1,0.1-0.2,0.1c-1,0.4-2,0.8-2.9,1.2c0,0,0,0-0.1,0l0,0
		c0.7-0.8,1.6-1.6,2.4-2.3l0.1-0.1c1-0.4,2-0.8,3-1.1C17.2,22.4,17.2,22.4,17.3,22.4L17.3,22.4z"/>
	<path class="st0" d="M24.7,23.5c0,0.1-0.1,0.2-0.2,0.2c-1,0.9-1.9,1.9-2.8,2.9c-0.1,0.1-0.1,0.1-0.2,0.2c-0.5,0.2-1,0.3-1.5,0.5
		c0-0.1,0-0.1,0.1-0.2C21,26,22,25,23.1,24l0.1-0.1C23.7,23.8,24.2,23.7,24.7,23.5z"/>
	<path class="st0" d="M15.6,26.2c0.6-0.7,1.2-1.2,1.8-1.8c0.1-0.1,0.2-0.1,0.2-0.2c0.6-0.7,1.5-0.9,2.4-1.2c0.3-0.1,0.5-0.2,0.8-0.2
		c-0.1,0.2-0.3,0.3-0.4,0.4c-0.8,0.7-1.6,1.4-2.3,2.1c-0.1,0.1-0.1,0.1-0.2,0.1C17,25.7,16.3,26,15.6,26.2
		C15.6,26.3,15.6,26.3,15.6,26.2z"/>
	<path class="st0" d="M26.8,23c0,0.1-0.1,0.1-0.1,0.2c-1.1,0.9-2.1,1.9-2.9,3c-0.1,0.1-0.1,0.1-0.2,0.2c-0.5,0.1-0.9,0.2-1.4,0.4
		c0.1-0.2,0.2-0.3,0.3-0.5c0.8-0.9,1.6-1.7,2.5-2.5c0.1-0.1,0.1-0.1,0.2-0.2c0.1-0.2,0.3-0.2,0.5-0.3C26.1,23.2,26.4,23.1,26.8,23z"
		/>
	<path class="st0" d="M21.1,21.1c-0.5,0.4-1,0.7-1.4,1.1c-0.3,0.2-0.5,0.4-0.8,0.6c-0.4,0.4-0.9,0.6-1.4,0.8
		c-0.7,0.2-1.3,0.5-1.9,0.7l0,0c0.8-0.8,1.8-1.5,2.7-2.2c0.1-0.1,0.2-0.1,0.3-0.1c0.8-0.3,1.6-0.5,2.4-0.8
		C21,21.1,21.1,21.1,21.1,21.1L21.1,21.1z"/>
	<path class="st0" d="M28.7,22.7c-0.6,0.5-1.1,1-1.6,1.5s-1,1-1.4,1.6c-0.1,0.1-0.1,0.1-0.2,0.2c-0.4,0.1-0.8,0.2-1.3,0.3
		c0-0.1,0-0.1,0.1-0.2c0.9-1.1,2-2.1,3.1-3.1c0.1-0.1,0.2-0.1,0.3-0.1C28,22.8,28.4,22.7,28.7,22.7z"/>
	<path class="st0" d="M23.6,21.9c-0.7,0.5-1.4,1.1-2,1.6l-0.1,0.1c-0.6,0.7-1.3,1-2.2,1.3c-0.3,0.1-0.5,0.2-0.8,0.3
		c0.2-0.2,0.3-0.3,0.4-0.4c0.8-0.8,1.7-1.5,2.6-2.2c0.1-0.1,0.1-0.1,0.2-0.1C22.4,22.2,23,22,23.6,21.9L23.6,21.9z"/>
	<path class="st0" d="M26,25.8c0.2-0.3,0.4-0.6,0.7-0.8c0.7-0.8,1.6-1.6,2.4-2.3c0.2-0.2,0.4-0.3,0.7-0.3c0.2,0,0.4-0.1,0.7-0.1
		c-0.1,0.1-0.2,0.2-0.3,0.3c-1,0.9-1.9,1.8-2.8,2.8c0,0.1-0.1,0.1-0.2,0.1C26.8,25.7,26.4,25.8,26,25.8z"/>
	<path class="st0" d="M32.1,22.2c-0.5,0.4-1,0.8-1.4,1.2c-0.6,0.6-1.2,1.2-1.7,1.8c-0.1,0.1-0.2,0.2-0.4,0.2c-0.3,0-0.5,0.1-0.8,0.1
		c0-0.1,0.1-0.2,0.1-0.3c0.9-1.1,1.9-2,3.1-2.9c0.1-0.1,0.2-0.1,0.3-0.1C31.5,22.3,31.8,22.2,32.1,22.2z"/>
	<path class="st0" d="M26.4,21.1c-0.2,0.2-0.5,0.4-0.8,0.6c-0.8,0.6-1.6,1.2-2.3,1.8c-0.1,0.1-0.3,0.2-0.4,0.2
		c-0.5,0.1-1,0.3-1.5,0.5c0-0.1,0.1-0.2,0.2-0.2c0.9-0.8,1.9-1.6,3-2.3l0.1-0.1C25.2,21.4,25.7,21.2,26.4,21.1L26.4,21.1z"/>
	<path class="st0" d="M19.2,22.9c0-0.1,0.1-0.1,0.2-0.2c0.9-0.7,1.8-1.3,2.7-1.9c0.2-0.1,0.5-0.2,0.7-0.3c0.6-0.2,1.2-0.3,1.8-0.5
		c-0.2,0.1-0.4,0.2-0.5,0.3c-0.8,0.5-1.6,1.1-2.4,1.6C21.6,22,21.5,22,21.4,22c-0.7,0.2-1.3,0.4-2,0.7
		C19.3,22.9,19.3,22.9,19.2,22.9z"/>
	<path class="st0" d="M78.5,31.8c0.4-0.2,0.7-0.4,1.1-0.5c0.3-0.1,0.7,0,1,0c0.6,0,1.2,0.1,1.8,0.1c0.5,0,0.9,0.1,1.4,0.1
		c-0.3,0.2-0.6,0.4-0.9,0.6c-0.1,0.1-0.3,0-0.4,0c-0.7-0.1-1.4-0.1-2.1-0.2c-0.6,0-1.1-0.1-1.7-0.1C78.6,31.9,78.5,31.8,78.5,31.8z"
		/>
	<path class="st0" d="M33.5,22.2c-0.5,0.4-1,0.9-1.5,1.3c-0.5,0.5-1.1,1.1-1.5,1.7c-0.1,0.1-0.2,0.2-0.3,0.2c-0.3,0-0.5,0-0.8,0.1
		c0-0.1,0.1-0.2,0.1-0.2c0.9-1.1,2-2,3.1-2.9C32.7,22.2,33.1,22.1,33.5,22.2z"/>
	<path class="st0" d="M34.8,22.1c-0.2,0.2-0.4,0.3-0.5,0.5c-0.9,0.8-1.7,1.6-2.4,2.5c-0.1,0.1-0.2,0.2-0.3,0.2c-0.3,0-0.5,0-0.8,0
		c0-0.1,0.1-0.1,0.1-0.2c0.9-1.1,1.9-2,3-2.9C34.1,22,34.4,22.2,34.8,22.1z"/>
	<path class="st0" d="M36,22.3c-0.5,0.5-1,0.9-1.5,1.3c-0.5,0.5-1,1-1.4,1.6c-0.1,0.1-0.2,0.2-0.3,0.2c-0.2,0-0.4,0-0.7,0
		c0-0.1,0.1-0.1,0.1-0.2c0.8-1.1,1.8-2,2.9-2.8c0.1-0.1,0.1-0.1,0.2-0.1C35.5,22.2,35.7,22.2,36,22.3z"/>
	<path class="st0" d="M85.7,30.7c-0.5,0.2-1,0.5-1.5,0.6c-0.4,0.1-0.7,0-1.1,0s-0.9-0.1-1.3-0.1c-0.5,0-0.9-0.1-1.4-0.1
		c0,0-0.1,0-0.1-0.1c0,0,0-0.1,0.1-0.1c0.4,0,0.7-0.2,1-0.3c0.3-0.1,0.7-0.1,1-0.1c1,0,2.1,0.1,3.1,0.1
		C85.6,30.6,85.6,30.6,85.7,30.7z"/>
	<path class="st0" d="M28.7,20.6c-0.5,0.3-1,0.6-1.4,1c-0.4,0.3-0.8,0.6-1.1,0.9c-0.4,0.3-0.9,0.7-1.5,0.8c-0.3,0-0.5,0.1-0.8,0.2
		c0-0.1,0.1-0.1,0.1-0.2c1-0.9,2.1-1.6,3.2-2.3c0.2-0.1,0.3-0.1,0.5-0.2C28,20.7,28.4,20.6,28.7,20.6L28.7,20.6z"/>
	<path class="st0" d="M37,22.4c-1.1,0.9-2,1.8-2.7,2.9c-0.1,0.1-0.1,0.1-0.2,0.1c-0.2,0-0.4,0-0.6-0.1c-0.1,0-0.1,0-0.2,0
		c0,0,0-0.1,0.1-0.1c0.5-0.6,1-1.2,1.5-1.7c0.3-0.3,0.7-0.6,1-1C36.2,22.2,36.6,22.3,37,22.4z"/>
	<path class="st0" d="M34.6,25.5c0-0.1,0.1-0.2,0.1-0.3c0.4-0.6,0.9-1.2,1.4-1.7c0.4-0.4,0.7-0.7,1.1-1c0.1,0,0.6,0,0.6,0
		c0.1,0.1,0,0.1-0.1,0.2c-0.3,0.3-0.6,0.5-0.8,0.8c-0.6,0.6-1.1,1.2-1.5,1.9c-0.1,0.2-0.2,0.2-0.4,0.2
		C34.9,25.6,34.8,25.6,34.6,25.5z"/>
	<path class="st0" d="M36.4,25.9c-0.2,0-0.4-0.1-0.6-0.2c-0.1,0,0-0.1,0-0.2c0.3-0.4,0.6-0.8,0.9-1.2c0.4-0.6,1-1,1.5-1.5
		c0.1-0.1,0.6,0,0.6,0.1s-0.1,0.1-0.1,0.2c-0.4,0.4-0.8,0.8-1.2,1.3c-0.3,0.4-0.6,0.9-0.9,1.4C36.5,25.9,36.5,25.9,36.4,25.9z"/>
	<path class="st0" d="M22.5,21.8c0.5-0.4,1.2-0.8,1.7-1.2c1-0.7,2-1.1,3.2-1.3c0.1,0,0.2-0.1,0.3,0c0,0.1-0.1,0.1-0.2,0.1
		c-1,0.5-1.9,1.1-2.8,1.7c-0.1,0.1-0.3,0.1-0.4,0.2C23.7,21.5,23.1,21.7,22.5,21.8C22.5,21.9,22.5,21.8,22.5,21.8z"/>
	<path class="st0" d="M30.9,20.2c-0.2,0.1-0.5,0.3-0.7,0.4c-0.9,0.6-1.8,1.2-2.7,1.9c-0.1,0.1-0.2,0.1-0.4,0.2
		c-0.4,0.1-0.7,0.2-1.1,0.2c0,0-0.1,0.1-0.1,0s0-0.1,0.1-0.1c0.6-0.6,1.4-1,2.1-1.5c0.2-0.1,0.4-0.2,0.6-0.4
		C29.4,20.5,30.1,20.2,30.9,20.2z"/>
	<path class="st0" d="M36.8,26c0.3-0.6,0.7-1.1,1.1-1.6c0.4-0.4,0.8-0.9,1.2-1.2c0.1-0.1,0.5-0.1,0.6,0.1c0,0.1,0,0.1-0.1,0.2
		c-0.5,0.5-0.9,1-1.3,1.6c-0.2,0.3-0.4,0.7-0.6,1c-0.1,0.1-0.1,0.2-0.3,0.1S37,26.1,36.8,26z"/>
	<path class="st0" d="M79,31.2c-0.4,0.2-0.7,0.4-1,0.5c-0.2,0.1-0.5,0-0.7,0c-0.5,0-0.9-0.1-1.4-0.2s-1-0.1-1.4-0.2h-0.1
		c0-0.1,0-0.1,0.1-0.1c0.6-0.2,1.1-0.5,1.8-0.3c0.8,0.2,1.7,0.2,2.5,0.3C78.9,31.2,78.9,31.2,79,31.2z"/>
	<path class="st0" d="M40.4,23.7C40.4,23.7,40.4,23.8,40.4,23.7c-0.8,0.9-1.4,1.8-1.7,2.8c0,0.1-0.1,0.1-0.2,0.1
		c-0.1,0-0.2-0.1-0.2-0.1c-0.4-0.1-0.4-0.1-0.2-0.5c0.5-0.9,1.1-1.7,1.8-2.4c0.1-0.1,0.1-0.1,0.3-0.1C40.3,23.6,40.4,23.6,40.4,23.7
		z"/>
	<path class="st0" d="M41,27.5c0.1-0.6,0.3-1.2,0.6-1.7c0.2-0.3,0.3-0.6,0.5-0.8c0.1-0.1,0.1-0.1,0.2,0c0.4,0.3,0.4,0.3,0.2,0.7
		c-0.4,0.7-0.6,1.4-0.6,2.2c0,0.2-0.1,0.2-0.2,0.1c-0.2-0.1-0.4-0.2-0.6-0.2C41.1,27.6,41,27.6,41,27.5z"/>
	<path class="st0" d="M39.6,27c-0.2-0.1-0.4-0.2-0.6-0.3c-0.1-0.1,0-0.1,0-0.2c0.3-0.8,0.7-1.5,1.3-2.1c0.1-0.1,0.1-0.2,0.2-0.3
		c0.3-0.3,0.2-0.3,0.6-0.1c0.1,0.1,0.2,0.1,0,0.3c-0.6,0.8-1.1,1.6-1.4,2.5v0.1C39.7,27,39.7,27,39.6,27z"/>
	<path class="st0" d="M88.2,29.7c-0.9,0.4-1.8,0.7-2.9,0.6c-0.8-0.1-1.6-0.1-2.4-0.1h-0.1c0.8-0.2,1.6-0.6,2.5-0.5s1.7,0,2.6,0
		C88,29.7,88.1,29.7,88.2,29.7z"/>
	<path class="st0" d="M41.6,24.3c0.1,0.1,0.3,0.2,0.4,0.3c0.1,0,0,0.1,0,0.1c-0.6,0.8-1,1.6-1.1,2.6c0,0.1-0.1,0.1-0.2,0.1
		c-0.1,0-0.1-0.1-0.2-0.1c-0.5-0.2-0.5-0.2-0.3-0.7C40.5,25.8,40.9,25.1,41.6,24.3C41.4,24.4,41.5,24.3,41.6,24.3z"/>
	<path class="st0" d="M32.9,19.9c-0.5,0.3-1,0.6-1.5,0.9c-0.7,0.4-1.3,0.9-1.9,1.3c-0.1,0.1-0.3,0.2-0.5,0.2c-0.3,0-0.6,0.1-0.9,0.1
		c0.2-0.1,0.3-0.2,0.5-0.4c0.9-0.6,1.8-1.2,2.7-1.8C31.8,20,32.2,19.9,32.9,19.9z"/>
	<path class="st0" d="M42.2,27.9c0-0.9,0.3-1.7,0.7-2.4c0.1-0.1,0.1-0.1,0.3-0.1c0.4,0.3,0.4,0.3,0.2,0.7c-0.3,0.7-0.4,1.4-0.4,2.1
		c0,0.2,0,0.2-0.2,0.1s-0.4-0.2-0.5-0.3C42.2,28.1,42.1,28.1,42.2,27.9z"/>
	<path class="st0" d="M73.4,31.5c-0.2,0.2-0.4,0.3-0.6,0.5c-0.1,0.1-0.2,0-0.3,0c-0.6-0.1-1.1-0.2-1.7-0.3c-0.4-0.1-0.7-0.1-1.1-0.2
		c-0.1,0-0.1,0-0.1-0.1s0.1-0.1,0.1-0.1l0,0c0.5-0.4,1-0.4,1.5-0.2c0.6,0.2,1.3,0.2,2,0.4C73.3,31.4,73.4,31.4,73.4,31.5z"/>
	<path class="st0" d="M25.5,21c0.6-0.4,1.2-0.8,1.9-1.2c0.1-0.1,0.2-0.1,0.3-0.2c0.9-0.6,1.8-0.8,2.9-0.9c-0.4,0.2-0.8,0.4-1.1,0.6
		c-0.7,0.4-1.4,0.8-2.1,1.2c-0.2,0.1-0.5,0.2-0.7,0.2C26.2,20.8,25.9,21,25.5,21L25.5,21z"/>
	<path class="st0" d="M76.4,30.6c0.8-0.3,1.5-0.5,2.4-0.4c0.7,0.1,1.3,0.1,2,0.2c0.1,0,0.2,0,0.2,0.1c-0.5,0.2-0.9,0.4-1.4,0.5
		c-0.3,0.1-0.6,0-0.9-0.1C77.9,30.8,77.1,30.7,76.4,30.6z"/>
	<path class="st0" d="M34.6,19.7c-0.1,0.1-0.2,0.1-0.2,0.2c-1.1,0.6-2.2,1.3-3.3,2.1c-0.1,0-0.2,0-0.3,0c-0.3,0-0.5,0.1-0.8,0.1
		c0,0,0,0,0-0.1c0.3-0.2,0.5-0.4,0.8-0.6c0.9-0.6,1.8-1.2,2.8-1.7C33.9,19.7,34.3,19.8,34.6,19.7z"/>
	<path class="st0" d="M70,30.8c-0.3,0.2-0.5,0.3-0.7,0.5c-0.1,0.1-0.2,0-0.3,0c-0.8-0.2-1.5-0.3-2.3-0.6c-0.1,0-0.1,0-0.1-0.1
		s0.1-0.1,0.1-0.1c0.2-0.1,0.4-0.2,0.7-0.3c0.1,0,0.2-0.1,0.3,0c0.7,0.2,1.5,0.3,2.2,0.5C69.9,30.8,69.9,30.8,70,30.8z"/>
	<path class="st0" d="M74.9,30.8c-0.3,0.2-0.7,0.3-1,0.4c-0.2,0.1-0.5,0-0.7-0.1c-0.7-0.1-1.5-0.3-2.2-0.4c0.6-0.2,1-0.5,1.7-0.4
		c0.7,0.2,1.4,0.2,2.1,0.3C74.8,30.7,74.8,30.7,74.9,30.8z"/>
	<path class="st0" d="M31.6,21.9c0.4-0.3,0.8-0.5,1.2-0.8c0.7-0.5,1.5-0.9,2.2-1.3c0.4-0.2,0.6-0.3,1.1-0.2c0,0.1-0.1,0.1-0.2,0.1
		c-1.1,0.6-2.2,1.3-3.3,2c-0.1,0.1-0.2,0.1-0.3,0.1C32.1,21.9,31.9,21.9,31.6,21.9C31.7,21.9,31.6,21.9,31.6,21.9z"/>
	<path class="st0" d="M83.5,29.7c-0.6,0.2-1.1,0.3-1.7,0.5c-0.2,0-0.4,0-0.6,0c-0.8,0-1.6-0.1-2.4-0.2c0.4-0.1,0.8-0.2,1.1-0.3
		c0.6-0.2,1.2-0.1,1.7-0.1s1,0,1.6,0.1C83.4,29.7,83.4,29.6,83.5,29.7z"/>
	<path class="st0" d="M28.2,20.4c0.6-0.4,1.2-0.8,1.9-1.1c0.5-0.2,0.9-0.5,1.4-0.7c0.4-0.2,0.8-0.2,1.1-0.2c0.1,0,0.2,0,0.4-0.1
		c0,0.1-0.1,0.1-0.1,0.1c-1.1,0.5-2.1,1.1-3.2,1.7c-0.4,0.2-0.8,0.2-1.2,0.3C28.4,20.4,28.3,20.4,28.2,20.4z"/>
	<path class="st0" d="M86.5,28.9c-0.6,0.2-1.2,0.4-1.9,0.5c-0.3,0.1-0.7,0-1,0c-0.6,0-1.2-0.1-1.8-0.1
		C83.3,28.7,84.9,28.8,86.5,28.9L86.5,28.9z"/>
	<path class="st0" d="M33.2,21.8c0.4-0.3,0.7-0.6,1.1-0.8c0.8-0.5,1.6-0.9,2.4-1.4c0.3-0.1,0.5-0.1,0.8-0.1c0,0.1-0.1,0.1-0.2,0.2
		c-1.1,0.6-2.2,1.2-3.2,2C33.8,21.9,33.5,21.8,33.2,21.8z"/>
	<path class="st0" d="M77,30.1c-0.5,0.1-0.9,0.3-1.4,0.4c-0.3,0.1-0.6-0.1-0.9-0.1c-0.6-0.1-1.1-0.1-1.7-0.3
		c0.4-0.2,0.8-0.2,1.1-0.3c0.3-0.1,0.7-0.1,1,0c0.5,0.1,1.1,0.1,1.6,0.2C76.8,30,76.9,30,77,30.1z"/>
	<path class="st0" d="M39.8,19.8c0,0.1-0.1,0.1-0.2,0.1c-1.1,0.6-2.2,1.2-3.2,1.9c-0.1,0.1-0.7,0.1-0.7,0c-0.1-0.1,0-0.1,0-0.1
		c0.3-0.2,0.6-0.5,1-0.7c0.7-0.4,1.5-0.9,2.3-1.2C39.2,19.8,39.5,19.7,39.8,19.8z"/>
	<path class="st0" d="M38.8,19.7c-0.1,0.1-0.2,0.1-0.4,0.2c-0.9,0.5-1.7,1-2.6,1.5c-0.1,0.1-0.3,0.2-0.4,0.3c-0.3,0.3-0.6,0.2-1,0.2
		c0-0.1,0.1-0.2,0.2-0.2c1.1-0.7,2.2-1.4,3.4-2C38.2,19.6,38.4,19.6,38.8,19.7z"/>
	<path class="st0" d="M35.3,18c-0.5,0.2-1,0.5-1.5,0.7c-0.6,0.3-1.3,0.6-1.9,1c-0.4,0.2-0.9,0.2-1.3,0.3c0-0.1,0.1-0.1,0.2-0.2
		c1.1-0.6,2.2-1.1,3.3-1.6C34.4,18,34.9,18,35.3,18z"/>
	<path class="st0" d="M68.1,30.1c0.6-0.1,1.2-0.5,1.9-0.3c0.4,0.1,0.9,0.2,1.3,0.3c0.1,0,0.2,0,0.3,0.1c-0.6,0.1-1,0.5-1.6,0.3
		C69.3,30.3,68.7,30.3,68.1,30.1z"/>
	<path class="st0" d="M67,30.1c-0.3,0.1-0.5,0.4-0.7,0.5c-0.1,0-0.2,0.1-0.3,0c-0.6-0.2-1.2-0.4-1.8-0.5c-0.1,0-0.2,0-0.2-0.1
		s0.1-0.1,0.1-0.1c0.1,0,0.1,0,0.2-0.1c0.4-0.2,0.8-0.3,1.2-0.1C66.1,29.9,66.6,30,67,30.1z"/>
	<path class="st0" d="M41.6,20.3c-0.1,0.1-0.2,0.1-0.2,0.2c-1,0.5-2,1.1-3,1.9c-0.1,0.1-0.6,0-0.7,0c-0.1-0.1,0-0.1,0.1-0.1
		c0.3-0.2,0.7-0.5,1-0.7c0.7-0.4,1.4-0.8,2.1-1.2C41.2,20.1,41.4,20.2,41.6,20.3z"/>
	<path class="st0" d="M40.7,20c-0.1,0.1-0.2,0.1-0.2,0.2c-1,0.5-1.9,1-2.8,1.7c-0.4,0.3-0.5,0.3-1,0.2c0-0.1,0.1-0.1,0.2-0.2
		c1-0.7,2.1-1.3,3.2-1.8C40.3,19.9,40.5,19.9,40.7,20z"/>
	<path class="st0" d="M44.5,26.1c-0.1-0.1-0.2-0.1-0.3-0.2c-0.3-0.2-0.3-0.2-0.1-0.6c0.4-0.5,0.8-1,1.3-1.4c0.1-0.1,0.2-0.1,0.3,0
		c0.3,0.3,0.3,0.3,0,0.5c-0.4,0.5-0.8,1-1.1,1.5C44.6,26,44.6,26.1,44.5,26.1z"/>
	<path class="st0" d="M39.9,23.1c-0.1-0.1-0.3-0.1-0.4-0.2c-0.1-0.1,0-0.1,0.1-0.2c0.3-0.2,0.7-0.5,1-0.7c0.6-0.4,1.2-0.8,1.8-1.1
		c0.1,0,0.1-0.1,0.2-0.1c0.1,0,0.2,0.1,0.3,0.2c0,0.1-0.1,0.1-0.2,0.2c-0.9,0.5-1.8,1.1-2.6,1.8C40,23,40,23,39.9,23.1z"/>
	<path class="st0" d="M45.4,26.7c-0.2-0.1-0.4-0.3-0.6-0.4c-0.1,0,0-0.1,0-0.2c0.3-0.6,0.7-1.1,1.2-1.6c0.1-0.1,0.2-0.1,0.3,0
		c0,0.1,0.1,0.1,0.1,0.2c0.1,0.1,0.1,0.2,0,0.3c-0.4,0.4-0.7,1-0.9,1.5C45.5,26.6,45.5,26.7,45.4,26.7z"/>
	<path class="st0" d="M41.4,23.9c-0.1-0.1-0.3-0.1-0.4-0.3c-0.1-0.1,0.1-0.1,0.1-0.2c0.6-0.5,1.3-1,2-1.5c0.1-0.1,0.3-0.2,0.4-0.3
		c0.1-0.1,0.3,0,0.4,0.1c0.1,0.3,0,0.3-0.1,0.3c-0.7,0.4-1.3,0.9-1.8,1.4c-0.1,0.1-0.3,0.3-0.4,0.4C41.5,23.8,41.5,23.9,41.4,23.9z"
		/>
	<path class="st0" d="M42.9,24.9c-0.1-0.1-0.3-0.2-0.4-0.3c-0.1-0.1,0-0.1,0.1-0.2c0.6-0.7,1.3-1.2,2-1.7c0.2-0.1,0.2,0.1,0.3,0.2
		s0,0.2-0.1,0.2C44.1,23.6,43.5,24.1,42.9,24.9C43,24.9,43,24.9,42.9,24.9z"/>
	<path class="st0" d="M45.4,23.5l-0.1,0.1c-0.6,0.5-1.1,1.1-1.5,1.7c-0.1,0.1-0.1,0.1-0.2,0c-0.5-0.4-0.5-0.2-0.1-0.7s0.9-1,1.5-1.4
		c0.1,0,0.1-0.1,0.2-0.1C45.3,23.3,45.3,23.4,45.4,23.5z"/>
	<path class="st0" d="M79.7,29.5c-0.6,0.1-1.2,0.3-1.8,0.4c-0.5,0-0.9-0.1-1.4-0.1c-0.3,0-0.7-0.1-1-0.1
		C76.9,29.1,78.2,29.2,79.7,29.5z"/>
	<path class="st0" d="M38.6,22.5c0.1-0.2,0.2-0.2,0.3-0.3c0.9-0.6,1.8-1.2,2.7-1.7c0.1,0,0.2-0.1,0.3-0.1s0.2,0,0.3,0.1
		s-0.1,0.1-0.2,0.2c-1,0.5-1.9,1.1-2.8,1.8c-0.1,0.1-0.2,0.1-0.4,0.1C38.8,22.6,38.7,22.6,38.6,22.5z"/>
	<path class="st0" d="M37.3,17.8c-0.7,0.3-1.3,0.6-2,0.9c-0.5,0.2-0.9,0.4-1.4,0.7c-0.4,0.2-0.8,0.2-1.2,0.2c0-0.1,0.1-0.1,0.1-0.1
		c1.1-0.6,2.2-1.1,3.4-1.6C36.6,17.7,36.9,17.8,37.3,17.8z"/>
	<path class="st0" d="M68.8,29.5c-0.5,0.1-0.9,0.3-1.3,0.4c-0.2,0.1-0.5-0.1-0.7-0.1c-0.4-0.1-0.8-0.2-1.3-0.4
		c0.5-0.2,1-0.3,1.4-0.3c0.2,0,0.5,0.1,0.7,0.2C68.1,29.4,68.4,29.4,68.8,29.5z"/>
	<path class="st0" d="M44.4,22.4c0,0.1-0.1,0.1-0.1,0.1c-0.8,0.5-1.5,1.1-2.1,1.8c-0.1,0.2-0.2,0-0.3,0c-0.3-0.2-0.3-0.2,0-0.4
		c0.6-0.7,1.4-1.2,2.1-1.7c0.1,0,0.1-0.1,0.2,0C44.3,22.2,44.4,22.3,44.4,22.4z"/>
	<path class="st0" d="M40.6,23.4c-0.1-0.1-0.2-0.1-0.4-0.2c-0.1-0.1,0-0.1,0.1-0.2c0.7-0.6,1.4-1.1,2.1-1.5c0.2-0.1,0.4-0.2,0.5-0.3
		c0.1,0,0.1-0.1,0.2,0c0.1,0,0.2,0.1,0.2,0.2s-0.1,0.1-0.2,0.1c-0.9,0.5-1.7,1.1-2.4,1.8C40.8,23.4,40.7,23.5,40.6,23.4z"/>
	<path class="st0" d="M64.6,29.4c-0.3,0.2-0.6,0.3-0.9,0.4c-0.1,0.1-0.2,0-0.3,0c-0.5-0.2-1-0.3-1.4-0.5c0,0-0.1,0-0.1-0.1
		s0.1-0.1,0.1-0.1c0.3-0.1,0.6-0.2,0.9-0.3c0.1,0,0.1,0,0.2,0C63.6,29,64.1,29.2,64.6,29.4z"/>
	<path class="st0" d="M78.6,29c1.4-0.4,2.7-0.5,4.2-0.2c-0.7,0.2-1.4,0.3-2.1,0.5c-0.2,0-0.4,0-0.6,0C79.6,29.2,79.1,29.1,78.6,29
		C78.6,29.1,78.6,29.1,78.6,29z"/>
	<path class="st0" d="M70.2,29.5c1.3-0.3,2.3-0.3,3.6,0.1c-0.1,0.1-0.3,0.1-0.4,0.1c-0.3,0-0.6,0.1-0.9,0.2c-0.1,0-0.2,0-0.3,0
		C71.6,29.8,71,29.6,70.2,29.5C70.2,29.6,70.2,29.6,70.2,29.5z"/>
	<path class="st0" d="M34.4,19.4c0.2-0.2,0.5-0.3,0.8-0.4c0.9-0.5,1.9-0.9,2.9-1.2c0.3-0.1,0.6-0.1,0.9,0c-0.2,0.1-0.3,0.1-0.5,0.2
		c-1,0.4-2.1,0.9-3.1,1.4C35.1,19.5,34.8,19.4,34.4,19.4z"/>
	<path class="st0" d="M58.1,27.8L58.1,27.8c0.4,0.2,0.7,0.3,1,0.5c0.1,0.1,0.1,0.1,0,0.2c-0.2,0.1-0.4,0.3-0.6,0.4
		c-0.1,0.1-0.1,0.1-0.2,0c-0.4-0.2-0.7-0.4-1.1-0.6c-0.1,0-0.1-0.1-0.1-0.1C57.5,28.1,57.8,28,58.1,27.8z"/>
	<path class="st0" d="M49,26.7c-0.1-0.1-0.2-0.1-0.3-0.2c-0.4-0.3-0.4-0.3-0.1-0.7c0.2-0.3,0.5-0.5,0.8-0.8c0.1-0.1,0.2-0.1,0.3,0
		c0.3,0.4,0.3,0.4,0,0.8c-0.2,0.2-0.4,0.5-0.6,0.8C49.2,26.7,49.1,26.7,49,26.7z"/>
	<path class="st0" d="M40.6,17.7c-0.1,0.1-0.3,0.1-0.4,0.2c-1,0.4-2.1,0.8-3.1,1.3c-0.3,0.2-0.7,0.2-1.1,0.2c0-0.1,0.1-0.1,0.2-0.1
		c1.2-0.6,2.3-1,3.5-1.5C40.1,17.6,40.3,17.6,40.6,17.7z"/>
	<path class="st0" d="M62.6,28.6c-0.4,0.1-0.8,0.3-1.1,0.4h-0.1c-0.1,0-1.2-0.5-1.4-0.6c0.4-0.2,0.8-0.3,1.2-0.4c0.1,0,0.1,0,0.2,0
		C61.8,28.3,62.2,28.4,62.6,28.6z"/>
	<path class="st0" d="M48.2,26c-0.1,0-0.2-0.1-0.3-0.1c-0.3-0.3-0.3-0.3,0-0.7c0.3-0.3,0.7-0.6,1.1-0.8c0.1-0.1,0.2-0.1,0.3,0.1
		c0.2,0.3,0.2,0.3-0.1,0.6C48.9,25.4,48.6,25.7,48.2,26C48.3,25.9,48.2,26,48.2,26z"/>
	<path class="st0" d="M53.3,26.2c0.1,0,0.1,0,0.1,0.1c0.2,0.1,0.3,0.3,0.5,0.4c0.1,0.1,0.1,0.1,0,0.2c-0.3,0.2-0.5,0.4-0.7,0.7
		c-0.1,0.1-0.1,0.1-0.2,0c-0.2-0.2-0.5-0.3-0.7-0.5c-0.1,0-0.1-0.1,0-0.1C52.6,26.7,52.9,26.4,53.3,26.2L53.3,26.2z"/>
	<path class="st0" d="M76.4,29.1c-0.6,0.1-1.2,0.3-1.8,0.3c-0.4,0-0.9-0.1-1.3-0.2c-0.2,0-0.4-0.1-0.6-0.1
		C73.7,28.8,75.3,28.8,76.4,29.1z"/>
	<path class="st0" d="M82.1,28.4c1.4-0.3,2.8-0.7,4.2-0.4C85.5,28.4,83,28.6,82.1,28.4z"/>
	<path class="st0" d="M63.6,28.7c0.5-0.1,0.9-0.2,1.4-0.3h0.1c0.4,0.2,0.9,0.3,1.4,0.5c-0.5,0.1-0.9,0.2-1.4,0.3c0,0,0,0-0.1,0
		C64.5,29.1,64.1,28.9,63.6,28.7L63.6,28.7z"/>
	<path class="st0" d="M67.8,29c1.1-0.3,2.2-0.4,3.2,0.1C69.9,29.5,68.8,29.4,67.8,29z"/>
	<path class="st0" d="M57.8,27.7c-0.3,0.2-0.7,0.3-0.9,0.6c-0.1,0-0.1,0-0.2,0c-0.3-0.2-0.6-0.3-0.9-0.5c-0.1-0.1-0.1-0.1,0-0.2
		c0.3-0.2,0.6-0.3,0.9-0.4c0.1,0,0.1,0,0.2,0C57.3,27.3,57.5,27.5,57.8,27.7z"/>
	<path class="st0" d="M49,24c0,0.1,0,0.1-0.1,0.1c-0.5,0.3-1,0.7-1.4,1.1c-0.1,0.1-0.2,0.1-0.2,0c-0.4-0.4-0.4-0.4,0-0.7
		c0.4-0.3,0.8-0.6,1.2-0.9c0.1,0,0.2-0.2,0.2-0.1C48.8,23.7,48.9,23.9,49,24z"/>
	<path class="st0" d="M48.6,23.3c0,0.1,0,0.1-0.1,0.1c-0.6,0.3-1.1,0.7-1.6,1.2c-0.1,0.1-0.1,0.1-0.2,0c-0.3-0.3-0.3-0.3,0-0.6
		c0.5-0.4,1-0.7,1.6-1C48.4,22.9,48.6,23.1,48.6,23.3z"/>
	<path class="st0" d="M60.9,27.9c-0.4,0.1-0.8,0.3-1.2,0.4c-0.1,0-0.1,0-0.2,0c-0.3-0.1-0.6-0.3-0.9-0.4c0,0-0.1,0-0.1-0.1l0.1-0.1
		c0.4-0.1,0.8-0.2,1.2-0.3c0.1,0,0.1,0,0.2,0C60.3,27.5,60.6,27.7,60.9,27.9z"/>
	<path class="st0" d="M54.5,26.8c0.4-0.3,0.9-0.4,1.3-0.5c0.1,0,0.1,0,0.2,0c0.2,0.2,0.4,0.3,0.6,0.5c-0.4,0.2-0.8,0.3-1.1,0.6
		c-0.1,0-0.1,0-0.2,0C55.1,27.2,54.8,27,54.5,26.8z"/>
	<path class="st0" d="M53.1,26c0,0.1-0.1,0.1-0.1,0.1c-0.3,0.2-0.6,0.4-0.9,0.7c-0.1,0.1-0.2,0.1-0.3,0s-0.3-0.3-0.4-0.4
		c-0.1-0.1-0.1-0.1,0-0.2c0.3-0.3,0.7-0.5,1.1-0.7c0.1,0,0.1,0,0.2,0C52.8,25.6,53,25.8,53.1,26C53.1,25.9,53.1,26,53.1,26z"/>
	<path class="st0" d="M52.4,25.2c0,0.1-0.1,0.1-0.1,0.1c-0.4,0.2-0.7,0.4-1.1,0.7l-0.1,0.1c-0.1,0-0.5-0.4-0.5-0.5s0-0.1,0.1-0.1
		c0.4-0.3,0.8-0.5,1.3-0.7c0.1,0,0.1,0,0.2,0C52.2,24.9,52.3,25,52.4,25.2z"/>
	<path class="st0" d="M48,22.3c0.1,0,0.1,0.1,0.2,0.2c0,0.1,0,0.1-0.1,0.2c-0.2,0.1-0.4,0.2-0.6,0.3c-0.4,0.2-0.8,0.5-1.2,0.8
		c-0.2,0.1-0.3,0.1-0.4-0.2c-0.1-0.2,0-0.2,0.1-0.2c0.6-0.4,1.1-0.7,1.8-1C47.9,22.4,48,22.4,48,22.3z"/>
	<path class="st0" d="M65.8,28.3c0.6-0.1,1.2-0.2,1.8-0.2c0.4,0,0.8,0.2,1.2,0.3c-0.4,0.1-0.8,0.1-1.2,0.2
		C66.8,28.9,66.3,28.5,65.8,28.3C65.7,28.3,65.7,28.3,65.8,28.3z"/>
	<path class="st0" d="M37.5,19.3c0.6-0.3,1.1-0.5,1.6-0.7c0.7-0.3,1.4-0.6,2.1-0.8c0.2-0.1,0.4-0.1,0.7,0c0,0.1-0.1,0.1-0.2,0.1
		c-1.2,0.4-2.3,0.9-3.4,1.4C38.1,19.4,38,19.4,37.5,19.3z"/>
	<path class="st0" d="M64.5,28.2c-0.5,0.1-0.9,0.2-1.4,0.3c-0.1,0-0.2,0-0.3-0.1c-0.3-0.1-0.6-0.3-0.9-0.4c0.4-0.1,0.8-0.1,1.2-0.2
		C63.6,27.6,64,28,64.5,28.2L64.5,28.2z"/>
	<path class="st0" d="M43,17.9c0,0.1-0.1,0.1-0.2,0.1c-1.2,0.4-2.3,0.9-3.4,1.4c-0.2,0.1-0.4,0.1-0.7,0c0-0.1,0.1-0.1,0.2-0.1
		c1.1-0.5,2.3-1,3.4-1.3C42.6,17.8,42.8,17.8,43,17.9z"/>
	<path class="st0" d="M55.1,25.5c0.1,0,0.2,0.1,0.2,0.1c0.1,0.1,0.3,0.2,0.3,0.4c0,0.1-0.3,0.1-0.4,0.2c-0.2,0.1-0.5,0.2-0.7,0.3
		c-0.1,0-0.1,0.1-0.2,0c-0.2-0.2-0.4-0.3-0.6-0.5v-0.1C54.2,25.8,54.6,25.7,55.1,25.5z"/>
	<path class="st0" d="M75.8,28.7c1.2-0.2,2.5-0.5,3.7-0.1C78.3,28.8,77.1,29.1,75.8,28.7z"/>
	<path class="st0" d="M59.5,27.1c0,0.1-0.1,0.1-0.1,0.1c-0.4,0.1-0.8,0.2-1.2,0.3c-0.1,0-0.1,0-0.2,0c-0.2-0.1-0.5-0.3-0.7-0.4
		c-0.1-0.1-0.1-0.1,0-0.2c0.4-0.1,0.9-0.2,1.3-0.3c0.1,0,0.2,0,0.2,0C59.1,26.8,59.3,26.9,59.5,27.1C59.5,27,59.5,27.1,59.5,27.1z"
		/>
	<path class="st0" d="M47.7,21.4c0,0.1-0.1,0.1-0.1,0.1c-0.8,0.3-1.6,0.7-2.3,1.2c-0.2,0.1-0.2-0.1-0.3-0.2s0-0.1,0.1-0.2
		c0.8-0.4,1.5-0.8,2.4-1.2C47.6,21.2,47.7,21.2,47.7,21.4z"/>
	<path class="st0" d="M46.5,19.4c0,0.1-0.1,0.1-0.2,0.1c-0.4,0.2-0.9,0.3-1.3,0.5c-0.5,0.2-1.1,0.5-1.6,0.7c-0.1,0-0.1,0.1-0.2,0.1
		c-0.1,0-0.3-0.1-0.3-0.2s0.1-0.1,0.2-0.1c1-0.5,2-0.9,3-1.2C46.3,19.3,46.4,19.2,46.5,19.4L46.5,19.4z"/>
	<path class="st0" d="M54.5,24.8c0.1,0,0.1,0,0.1,0.1c0.1,0.1,0.1,0.2,0.2,0.3c0.1,0.1,0,0.1-0.1,0.2c-0.4,0.1-0.9,0.3-1.3,0.5
		c-0.1,0-0.2,0-0.2-0.1s-0.1-0.1-0.2-0.2c-0.2-0.3-0.2-0.3,0.1-0.4C53.7,25,54.1,24.9,54.5,24.8z"/>
	<path class="st0" d="M51.9,24.4c0,0.1-0.1,0.1-0.1,0.1c-0.4,0.2-0.9,0.4-1.3,0.7c-0.1,0.1-0.2,0.1-0.3-0.1
		c-0.4-0.5-0.3-0.4,0.1-0.6c0.3-0.2,0.7-0.4,1.1-0.5C51.6,24,51.9,24.2,51.9,24.4z"/>
	<path class="st0" d="M39.9,19.5c0.1-0.1,0.1-0.1,0.2-0.1c1.1-0.5,2.3-0.9,3.5-1.3c0.2-0.1,0.3,0,0.5,0.1c-0.2,0.1-0.3,0.1-0.4,0.2
		c-1.1,0.4-2.1,0.8-3.1,1.3C40.3,19.7,40.1,19.6,39.9,19.5z"/>
	<path class="st0" d="M70.4,28.6c1.6-0.3,2.6-0.2,3.3,0.1c-0.5,0.1-0.9,0.1-1.3,0.2C71.7,29.1,71.1,28.7,70.4,28.6z"/>
	<path class="st0" d="M60.4,27.3c0.6-0.1,1.1-0.2,1.6-0.2c0.3,0,0.6,0.3,0.9,0.4c-0.1,0.1-0.3,0.1-0.4,0.1c-0.3,0.1-0.7,0.1-1,0.2
		c-0.2,0-0.3,0-0.5-0.1C60.9,27.5,60.7,27.4,60.4,27.3z"/>
	<path class="st0" d="M48,22c0,0.1-0.1,0.1-0.1,0.1c-0.7,0.3-1.4,0.7-2.1,1.2c-0.2,0.1-0.2-0.1-0.3-0.2s0-0.1,0.1-0.2
		c0.7-0.5,1.4-0.8,2.2-1.1C47.8,21.7,48,21.8,48,22z"/>
	<path class="st0" d="M45.5,18.7c-0.3,0.1-0.6,0.2-0.9,0.3c-0.8,0.3-1.7,0.6-2.5,1.1c-0.2,0.1-0.3,0-0.5-0.1c0-0.1,0.1-0.1,0.1-0.1
		c0.8-0.4,1.6-0.7,2.5-1c0.3-0.1,0.6-0.2,0.9-0.3C45.3,18.6,45.4,18.6,45.5,18.7z"/>
	<path class="st0" d="M47.2,20.3c0,0.1-0.1,0.1-0.2,0.1c-0.7,0.3-1.4,0.6-2.1,0.9c-0.2,0.1-0.4,0.2-0.5,0.3c-0.2,0.1-0.3,0-0.4-0.1
		c-0.1-0.1,0.1-0.1,0.1-0.2c0.6-0.3,1.2-0.6,1.8-0.8c0.3-0.1,0.7-0.2,1-0.4C47.1,20.1,47.2,20.2,47.2,20.3z"/>
	<path class="st0" d="M66.9,27.9c-0.6,0.1-1.2,0.2-1.8,0.2c-0.1,0-0.3-0.1-0.4-0.1c-0.2-0.1-0.4-0.2-0.6-0.2c0,0-0.1,0-0.1-0.1
		l0.1-0.1c0.6,0,1.2-0.1,1.8-0.1C66.3,27.5,66.6,27.7,66.9,27.9z"/>
	<path class="st0" d="M58.5,26.4c-0.5,0.1-1,0.2-1.4,0.3c-0.1,0-0.2,0-0.3-0.1c-0.2-0.1-0.4-0.2-0.4-0.4c0-0.1,0.3-0.1,0.5-0.2
		c0.3-0.1,0.6-0.1,0.9-0.2c0.2,0,0.3,0,0.5,0.1C58.3,26.1,58.4,26.2,58.5,26.4z"/>
	<path class="st0" d="M44.7,22.2c-0.1,0-0.2-0.1-0.3-0.2c0-0.1,0.1-0.1,0.1-0.2c0.8-0.5,1.7-0.8,2.5-1.1c0.1,0,0.2-0.1,0.3,0.1
		S47.2,21,47.2,21C46.4,21.3,45.6,21.7,44.7,22.2C44.9,22.2,44.8,22.2,44.7,22.2z"/>
	<path class="st0" d="M83.2,27.9c-1.3,0.2-2.6,0.6-3.9,0.3C80.6,28,81.8,27.6,83.2,27.9z"/>
	<path class="st0" d="M49.8,24.6c-0.2-0.1-0.2-0.2-0.3-0.4c-0.1-0.2,0-0.2,0.1-0.2c0.5-0.3,1-0.5,1.6-0.7c0.3-0.1,0.2,0.1,0.3,0.3
		c0.1,0.1,0,0.2-0.1,0.2c-0.5,0.2-1,0.4-1.4,0.7C49.9,24.5,49.8,24.5,49.8,24.6z"/>
	<path class="st0" d="M44.9,18.4c-0.7,0.2-1.4,0.5-2.1,0.8c-0.5,0.2-0.9,0.4-1.4,0.6c-0.2,0.1-0.4,0.1-0.6,0
		c0.1-0.1,0.2-0.1,0.3-0.2c1.1-0.5,2.2-0.9,3.3-1.3C44.5,18.2,44.7,18.3,44.9,18.4z"/>
	<path class="st0" d="M42.3,20.3c0.5-0.2,0.9-0.4,1.4-0.6c0.6-0.3,1.3-0.5,1.9-0.7c0.1,0,0.1,0,0.2-0.1c0.1,0,0.2,0,0.2,0.1
		s-0.1,0.1-0.2,0.1c-1.1,0.4-2.1,0.8-3.1,1.3C42.6,20.5,42.4,20.4,42.3,20.3z"/>
	<path class="st0" d="M46.9,19.9c0,0.1-0.1,0.1-0.2,0.1c-0.5,0.2-1,0.4-1.4,0.6c-0.5,0.2-0.9,0.4-1.4,0.7c-0.1,0-0.1,0.1-0.2,0
		c-0.1,0-0.1-0.1-0.1-0.1c0-0.1,0.1-0.1,0.1-0.1c0.9-0.5,1.9-0.9,2.9-1.2C46.7,19.7,46.8,19.7,46.9,19.9z"/>
	<path class="st0" d="M83.1,27.5c1.3-0.2,2.6-0.7,4-0.5C85.8,27.3,84.5,27.8,83.1,27.5z"/>
	<path class="st0" d="M54.2,24.1c0.2,0.1,0.2,0.3,0.3,0.4s-0.1,0.1-0.2,0.1c-0.4,0.1-0.9,0.2-1.3,0.4c-0.2,0.1-0.6-0.2-0.6-0.4
		c0,0,0-0.1,0.1-0.1C53,24.4,53.5,24.2,54.2,24.1z"/>
	<path class="st0" d="M57.7,25.6c-0.5,0.1-1.1,0.2-1.6,0.3c-0.2,0-0.2-0.1-0.3-0.2s-0.3-0.2-0.2-0.3c0-0.1,0.2-0.1,0.4-0.1
		c0.3-0.1,0.7-0.1,1-0.2C57.4,25.1,57.5,25.2,57.7,25.6z"/>
	<path class="st0" d="M49.3,23.8c-0.1-0.1-0.2-0.2-0.2-0.3c-0.1-0.1,0.1-0.1,0.1-0.2c0.6-0.3,1.1-0.5,1.7-0.7c0.1,0,0.2,0,0.3,0.1
		c0,0.2,0,0.2-0.1,0.3c-0.6,0.2-1.1,0.4-1.6,0.7C49.4,23.8,49.3,23.8,49.3,23.8z"/>
	<path class="st0" d="M53.9,23.4c0.2,0,0.1,0.2,0.2,0.3c0.1,0.1-0.1,0.1-0.1,0.1c-0.6,0.1-1.1,0.3-1.6,0.5C52,24.4,52,24.1,52,24
		c-0.1-0.1,0.1-0.2,0.1-0.2C52.7,23.6,53.3,23.5,53.9,23.4z"/>
	<path class="st0" d="M73.4,28.3c0.8-0.1,1.5-0.2,2.3-0.2c0.4,0,0.8,0.1,1.3,0.2C76,28.5,74.2,28.6,73.4,28.3z"/>
	<path class="st0" d="M56.8,24.5c0.1,0,0.4,0.3,0.3,0.4C57.1,25,57,25,57,25c-0.5,0.1-1.1,0.1-1.6,0.3c-0.1,0-0.5-0.3-0.5-0.4
		s0.1-0.1,0.1-0.1C55.6,24.6,56.2,24.5,56.8,24.5z"/>
	<path class="st0" d="M59.3,26.5c0.4-0.1,0.8-0.1,1.3-0.2c0.1,0,0.1,0,0.2,0c0.4-0.1,0.7,0.1,1,0.4c-0.3,0-0.6,0.1-0.9,0.1
		c-0.1,0-0.2,0-0.2,0C60.1,27.1,59.7,26.9,59.3,26.5z"/>
	<path class="st0" d="M51,22.2c0,0.1,0,0.1-0.1,0.1c-0.7,0.2-1.3,0.4-1.9,0.7c-0.2,0.1-0.2-0.1-0.3-0.2s0-0.2,0.1-0.2
		c0.6-0.3,1.3-0.5,2-0.7C51,22,51,22,51,22.2z"/>
	<path class="st0" d="M60.8,26.1c-0.6,0.1-1.2,0.2-1.8,0.2c-0.3,0-0.4-0.3-0.6-0.4c0.3-0.1,0.5-0.1,0.8-0.1c0.2,0,0.5,0,0.8-0.1
		C60.4,25.7,60.4,25.7,60.8,26.1z"/>
	<path class="st0" d="M62.8,27c0.3,0,0.6,0,0.8-0.1c0.3,0,0.7,0,1.1,0c0.3,0,0.5,0.2,0.8,0.3c-0.1,0.1-0.2,0.1-0.3,0.1
		c-0.5,0-1,0.1-1.4,0.1C63.4,27.5,63.1,27.2,62.8,27L62.8,27z"/>
	<path class="st0" d="M57.6,24.9c-0.1,0-0.3-0.3-0.3-0.4s0.1-0.1,0.1-0.1c0.6-0.1,1.3-0.1,1.9-0.1c0.1,0,0.3,0.3,0.3,0.4
		s-0.1,0.1-0.1,0.1C58.9,24.8,58.2,24.8,57.6,24.9z"/>
	<path class="st0" d="M53.7,22.7c0.2,0,0.1,0.1,0.2,0.2c0,0.1,0,0.2-0.1,0.2c-0.2,0-0.5,0.1-0.7,0.1c-0.4,0.1-0.7,0.2-1.1,0.3
		c-0.3,0.1-0.2-0.1-0.3-0.3c-0.1-0.2,0-0.2,0.2-0.2C52.4,23,53,22.8,53.7,22.7z"/>
	<path class="st0" d="M68.5,28.1c0.2-0.1,0.4-0.1,0.7-0.1c0.4,0,0.8-0.1,1.1-0.1c0.4,0,0.8,0.2,1.3,0.3c0,0,0,0,0,0.1
		c-0.6,0.1-1.3,0.2-1.9,0.2C69.2,28.4,68.8,28.2,68.5,28.1z"/>
	<path class="st0" d="M54.9,24.5c-0.1,0-0.4-0.3-0.3-0.4c0-0.1,0.1-0.1,0.1-0.1c0.6-0.1,1.2-0.1,1.8-0.2c0.1,0,0.2,0,0.3,0.1
		c0.1,0.2,0.1,0.3-0.2,0.3c-0.5,0.1-1,0.1-1.5,0.2C55,24.4,54.9,24.4,54.9,24.5z"/>
	<path class="st0" d="M61.2,24.7c-0.3,0-0.6,0-0.9,0c-0.2,0-0.3-0.1-0.4-0.2c-0.1-0.1-0.1-0.2,0.1-0.2c0.5,0,1,0,1.5,0
		c0.2,0,0.4,0,0.6,0c0.2,0,0.2,0.1,0.3,0.3c0,0.1-0.1,0.1-0.1,0.1C61.8,24.7,61.5,24.7,61.2,24.7z"/>
	<path class="st0" d="M50.9,21.6c0,0.1,0,0.1-0.1,0.2c-0.7,0.2-1.5,0.5-2.2,0.8c-0.2,0.1-0.2-0.1-0.2-0.1c0-0.1-0.1-0.2,0-0.2
		c0.7-0.3,1.5-0.5,2.3-0.7C50.9,21.4,50.9,21.4,50.9,21.6z"/>
	<path class="st0" d="M57.7,25.1c0.6-0.1,1.1-0.1,1.6-0.1c0.1,0,0.2,0,0.4,0s0.3,0.2,0.4,0.3c0.1,0.1-0.1,0.1-0.1,0.1
		c-0.5,0-0.9,0-1.4,0.1C58.1,25.6,57.9,25.5,57.7,25.1z"/>
	<path class="st0" d="M56.4,23.1c0.2,0,0.1,0.2,0.2,0.3c0,0.1,0,0.2-0.1,0.2c-0.6,0.1-1.3,0.1-1.9,0.2c-0.2,0-0.2-0.2-0.3-0.3
		c0-0.2,0.1-0.1,0.2-0.1C55.1,23.2,55.7,23.1,56.4,23.1z"/>
	<path class="st0" d="M57.9,22.8c-0.3,0-0.7,0-1,0c-0.2,0-0.2,0-0.2-0.2s0.1-0.2,0.2-0.2c0.7,0,1.4,0,2.1,0c0.1,0,0.2,0,0.2,0.1
		s0,0.2-0.2,0.2C58.6,22.8,58.3,22.8,57.9,22.8L57.9,22.8z"/>
	<path class="st0" d="M53.6,22.1c0.1,0,0.2,0,0.2,0.1s0,0.2-0.2,0.3c-0.7,0.1-1.3,0.2-2,0.4c-0.2,0.1-0.2-0.1-0.2-0.2s0-0.2,0.1-0.2
		C52.2,22.3,52.9,22.2,53.6,22.1z"/>
	<path class="st0" d="M60.7,23.4c-0.4,0-0.7,0-1.1,0c-0.2,0-0.2-0.1-0.2-0.2c0-0.2,0.1-0.2,0.2-0.1c0.7,0,1.4,0.1,2.2,0.1
		c0.1,0,0.2,0,0.2,0.2s-0.1,0.2-0.3,0.2C61.4,23.5,61.1,23.5,60.7,23.4C60.7,23.5,60.7,23.4,60.7,23.4z"/>
	<path class="st0" d="M74.7,27.8c-0.6,0.1-1.3,0.1-1.9,0.2c-0.5,0.1-0.9-0.1-1.4-0.3c0.2,0,0.4,0,0.6-0.1c0.6,0,1.1-0.1,1.7-0.1
		C74.1,27.6,74.4,27.7,74.7,27.8L74.7,27.8z"/>
	<path class="st0" d="M76.9,27.9c0.9-0.1,1.7-0.2,2.6-0.3c0.3,0,0.7,0.1,1.1,0.2c-0.7,0.1-1.3,0.2-2,0.3C78,28.1,77.4,28,76.9,27.9z
		"/>
	<path class="st0" d="M69.7,27.6c-0.5,0-1,0.1-1.5,0.1c-0.5,0.1-0.9-0.1-1.4-0.3c0.3,0,0.5,0,0.8-0.1c0.3,0,0.6,0,0.8-0.1
		C68.9,27.3,69.3,27.4,69.7,27.6z"/>
	<path class="st0" d="M64.3,26.6c-0.7,0-1.3,0.1-2,0.1c-0.3,0-0.4-0.2-0.7-0.4c0.1-0.1,0.1-0.1,0.2-0.1c0.5,0,1,0,1.4-0.1
		C63.7,26.2,64,26.4,64.3,26.6z"/>
	<path class="st0" d="M60.7,22.5c0.4,0,0.8,0.1,1.2,0.1c0.1,0,0.2,0,0.2,0.1s0,0.2-0.2,0.2c-0.8,0-1.5-0.1-2.3-0.1
		c-0.1,0-0.2,0-0.2-0.2c0-0.1,0-0.2,0.2-0.2C60,22.4,60.4,22.5,60.7,22.5L60.7,22.5z"/>
	<path class="st0" d="M60.7,21.9c0.5,0,0.9,0.1,1.4,0.1c0.1,0,0.2,0,0.2,0.1s-0.1,0.2-0.2,0.2c-0.4,0-0.9,0-1.3-0.1
		c-0.3,0-0.6,0-0.9,0c-0.1,0-0.3,0-0.2-0.2c0-0.2,0.1-0.2,0.3-0.2C60.1,21.8,60.4,21.8,60.7,21.9L60.7,21.9z"/>
	<path class="st0" d="M50.7,20.8c0.1,0,0.2,0,0.2,0.1s0,0.2-0.1,0.2h-0.1c-0.8,0.2-1.5,0.4-2.2,0.7c-0.1,0-0.2,0.1-0.2-0.1
		c-0.1-0.2,0-0.2,0.1-0.3C49.1,21.1,49.8,20.9,50.7,20.8C50.6,20.8,50.6,20.8,50.7,20.8z"/>
	<path class="st0" d="M54.3,23c-0.1,0-0.1-0.1-0.2-0.2c0-0.1,0-0.2,0.1-0.2c0.7-0.1,1.3-0.2,2-0.2c0.2,0,0.2,0.1,0.2,0.2
		s0,0.2-0.2,0.2C55.6,22.9,55,22.9,54.3,23L54.3,23z"/>
	<path class="st0" d="M58,23c0.3,0,0.7,0,1,0c0.2,0,0.2,0.1,0.2,0.2c0,0.2-0.1,0.1-0.2,0.1c-0.7,0-1.3,0-2,0.1c-0.2,0-0.2,0-0.2-0.2
		c0-0.1,0-0.2,0.2-0.2C57.3,23.1,57.6,23.1,58,23C58,23.1,58,23,58,23z"/>
	<path class="st0" d="M61.4,25c0.3,0,0.6,0,1,0c0.2,0,0.3,0.1,0.4,0.3c0.1,0.1-0.1,0.1-0.1,0.1c-0.4,0-0.9,0-1.3,0
		c-0.2,0-0.3,0-0.5,0s-0.4,0-0.5-0.2l-0.1-0.1c0-0.1,0.1,0,0.2,0C60.7,25,61.1,25,61.4,25z"/>
	<path class="st0" d="M62.9,22.6c0.7,0,1.4,0.1,2,0.1c0.1,0,0.2,0,0.2,0.1S65,23,64.9,23c-0.6,0-1.1-0.1-1.7-0.1c-0.2,0-0.4,0-0.6,0
		c-0.1,0-0.3,0-0.2-0.2c0-0.2,0.1-0.2,0.3-0.2C62.7,22.6,62.8,22.6,62.9,22.6L62.9,22.6z"/>
	<path class="st0" d="M58.2,24.1c-0.3,0-0.6,0-0.9,0.1c-0.2,0-0.4-0.2-0.3-0.3c0-0.1,0.1-0.1,0.1-0.1c0.7-0.1,1.3-0.1,2-0.1
		c0.2,0,0.2,0.2,0.2,0.3c0,0.2-0.1,0.1-0.2,0.1C58.8,24.1,58.5,24.1,58.2,24.1L58.2,24.1z"/>
	<path class="st0" d="M53.5,21.5c0.1,0,0.2-0.1,0.2,0.1c0,0.1,0,0.2-0.1,0.3c-0.7,0.1-1.4,0.3-2.2,0.4c-0.1,0-0.2,0-0.2-0.1
		s0-0.2,0.1-0.3C52.1,21.7,52.8,21.6,53.5,21.5z"/>
	<path class="st0" d="M67.2,26.5c-0.8,0-1.5,0.1-2.2,0.1c-0.3,0-0.4-0.2-0.6-0.3c0-0.1,0.1-0.1,0.1-0.1c0.7,0,1.3,0,2,0
		C66.8,26.2,66.9,26.3,67.2,26.5z"/>
	<path class="st0" d="M64.7,23.6c-0.7,0-1.5-0.1-2.2-0.1c-0.1,0-0.2,0-0.2-0.2s0.1-0.2,0.3-0.1c0.7,0,1.5,0.1,2.2,0.1
		c0.1,0,0.3,0,0.3,0.2C65,23.7,64.8,23.6,64.7,23.6z"/>
	<path class="st0" d="M68.3,27.1c-0.7,0-1.5,0.1-2.2,0.1c-0.2,0-0.4-0.2-0.7-0.3c0.1-0.1,0.3-0.1,0.4-0.1c0.6,0,1.1,0,1.7-0.1
		C67.8,26.8,68,26.9,68.3,27.1z"/>
	<path class="st0" d="M60.8,25.7c0.3-0.1,0.5,0,0.8,0c0.4,0,0.8,0,1.2,0c0.3,0,0.5,0.1,0.7,0.4c-0.2,0-0.4,0-0.6,0
		c-0.4,0-0.8,0-1.2,0.1C61.3,26.1,61,25.9,60.8,25.7z"/>
	<path class="st0" d="M50.7,20.3c0.1,0,0.1,0,0.1,0.1s0,0.1-0.1,0.2c-0.1,0-0.1,0-0.2,0.1c-0.8,0.2-1.6,0.4-2.4,0.7
		c-0.2,0.1-0.2,0-0.3-0.1c0-0.3,0.2-0.3,0.3-0.3C48.9,20.7,49.7,20.5,50.7,20.3C50.6,20.3,50.7,20.3,50.7,20.3z"/>
	<path class="st0" d="M55.9,21.8c0.1,0,0.3,0,0.4,0c0.1,0,0.2-0.1,0.2,0.1c0,0.1,0,0.3-0.2,0.3c-0.4,0-0.8,0.1-1.2,0.1
		c-0.3,0-0.6,0.1-0.9,0.1c-0.1,0-0.2,0-0.2-0.1s0-0.2,0.2-0.3C54.8,21.9,55.4,21.9,55.9,21.8z"/>
	<path class="st0" d="M80.7,27.4c0.4-0.1,0.9-0.1,1.3-0.2c0.3,0,0.6-0.1,0.9-0.1c0.5-0.1,1.1-0.1,1.6,0c-0.6,0.1-1.2,0.2-1.8,0.3
		C82.1,27.5,81.5,27.6,80.7,27.4C80.9,27.4,80.8,27.5,80.7,27.4z"/>
	<path class="st0" d="M50.6,19.7c0.1,0,0.1,0,0.1,0.1s0,0.1-0.1,0.2c-0.1,0-0.2,0.1-0.4,0.1c-0.8,0.2-1.6,0.4-2.3,0.7
		c-0.1,0-0.1,0.1-0.2,0c-0.1,0-0.1-0.1-0.1-0.2s0.1-0.1,0.2-0.1c0.7-0.2,1.3-0.4,2-0.6C50.1,19.8,50.3,19.8,50.6,19.7z"/>
	<path class="st0" d="M60.8,23.7c0.4,0,0.7,0,1.1,0c0.2,0,0.2,0.1,0.2,0.3c0,0.2-0.1,0.1-0.2,0.1c-0.7,0-1.4,0-2,0
		c-0.1,0-0.2,0-0.2,0c-0.1-0.1-0.1-0.2-0.1-0.3c0-0.1,0.1,0,0.2,0C60.1,23.7,60.4,23.7,60.8,23.7L60.8,23.7z"/>
	<path class="st0" d="M51.3,21.6c-0.2,0-0.2-0.1-0.2-0.1c0-0.1,0-0.2,0.1-0.2c0.2,0,0.5-0.1,0.7-0.2c0.5-0.1,1.1-0.2,1.6-0.3
		c0.1,0,0.2-0.1,0.3,0.1c0,0.2-0.1,0.2-0.2,0.2c-0.7,0.1-1.4,0.2-2.1,0.4C51.4,21.6,51.4,21.6,51.3,21.6z"/>
	<path class="st0" d="M64.7,24.2c-0.7,0-1.4-0.1-2-0.1h-0.1c-0.1,0-0.1-0.1-0.2-0.2c0-0.1,0.1-0.1,0.2-0.1c0.8,0,1.5,0.1,2.3,0.1
		c0.2,0,0.2,0.1,0.2,0.2s-0.1,0.1-0.2,0.1S64.7,24.2,64.7,24.2L64.7,24.2z"/>
	<path class="st0" d="M60.6,21.3c0.6,0,1.1,0.1,1.7,0.1c0.1,0,0.2,0,0.2,0.1s-0.1,0.3-0.2,0.2c-0.2,0-0.5,0-0.7,0
		c-0.5,0-1.1-0.1-1.6-0.1c-0.1,0-0.2,0-0.2-0.1s0-0.2,0.2-0.2C60.2,21.2,60.4,21.3,60.6,21.3L60.6,21.3z"/>
	<path class="st0" d="M56.1,20c0.2,0,0.5,0,0.7,0c0.1,0,0.2,0,0.2,0.1s0,0.2-0.2,0.2c-0.1,0-0.3,0-0.4,0c-0.7,0-1.3,0.1-2,0.1
		c-0.1,0-0.2,0.1-0.2-0.1s0.1-0.2,0.2-0.2C55,20.1,55.6,20.1,56.1,20z"/>
	<path class="st0" d="M50.5,18.9c0,0.1-0.1,0.1-0.2,0.1c-0.7,0.2-1.4,0.3-2,0.5c-0.3,0.1-0.6,0.2-1,0.3c-0.1,0-0.2,0-0.3-0.1
		c0-0.1,0.1-0.1,0.2-0.1c1-0.3,2-0.6,3-0.8C50.4,18.7,50.5,18.8,50.5,18.9z"/>
	<path class="st0" d="M56.5,20.6L56.5,20.6c0.2,0,0.3-0.1,0.3,0.1c0,0.1,0,0.3-0.2,0.3c-0.6,0-1.1,0-1.7,0.1c-0.2,0-0.4,0-0.6,0
		c-0.1,0-0.2,0.1-0.2-0.1c0-0.1,0-0.2,0.2-0.2s0.4,0,0.6,0C55.4,20.7,55.9,20.7,56.5,20.6z"/>
	<path class="st0" d="M51.2,21c-0.1,0-0.1-0.1-0.1-0.1c0-0.1,0-0.2,0.1-0.2c0.6-0.1,1.1-0.2,1.7-0.3c0.3,0,0.5-0.1,0.8-0.1
		c0.1,0,0.2-0.1,0.2,0s0,0.2-0.1,0.2s-0.1,0.1-0.2,0.1c-0.8,0-1.5,0.2-2.3,0.4C51.3,21,51.3,21,51.2,21z"/>
	<path class="st0" d="M47.6,20.3c-0.1,0-0.1-0.1-0.2-0.1c0-0.1,0.1-0.1,0.1-0.1c0.7-0.2,1.5-0.4,2.2-0.6c0.2-0.1,0.5-0.1,0.7-0.2
		c0.1,0,0.1,0,0.2,0.1c0,0.1,0,0.1-0.1,0.2C49.6,19.7,48.6,19.9,47.6,20.3L47.6,20.3z"/>
	<path class="st0" d="M54.3,21.7c-0.1,0-0.2,0-0.2-0.1c0-0.2,0.1-0.2,0.2-0.2c0.7-0.1,1.4-0.1,2.1-0.1c0.1,0,0.2-0.1,0.2,0.1
		c0,0.1-0.1,0.2-0.2,0.2C55.7,21.6,55,21.6,54.3,21.7z"/>
	<path class="st0" d="M58.3,20.9c-0.4,0-0.7,0-1.1,0c-0.1,0-0.2,0.1-0.2-0.1c0-0.1,0-0.2,0.2-0.2s0.5,0,0.7,0c0.5,0,1.1,0,1.6,0
		c0.1,0,0.2-0.1,0.2,0.1c0,0.1-0.1,0.2-0.2,0.2c-0.3,0-0.7,0-1,0C58.5,20.9,58.4,20.9,58.3,20.9L58.3,20.9z"/>
	<path class="st0" d="M69.8,27.3c0.4,0,0.9-0.1,1.3-0.1c0.2,0,0.5,0,0.7,0c0.4-0.1,0.7,0.1,1.1,0.2c-0.3,0.1-0.6,0.1-0.9,0.1
		c-0.4,0-0.9,0.1-1.3,0.1C70.4,27.6,70.1,27.4,69.8,27.3z"/>
	<path class="st0" d="M69,25.4c-0.3,0-0.7,0-1,0c-0.5,0-1.1,0-1.6,0c-0.1,0-0.2,0-0.2,0c-0.1,0-0.2-0.1-0.2-0.2s0.2-0.1,0.2-0.1
		c0.8,0,1.6,0,2.3,0C68.7,25.1,68.9,25.2,69,25.4z"/>
	<path class="st0" d="M58.2,21.5c-0.4,0-0.7,0-1.1,0c-0.1,0-0.2,0-0.2-0.1s0-0.2,0.2-0.2h0.1c0.7,0,1.4,0,2.2,0c0.1,0,0.2,0,0.2,0.1
		s-0.1,0.2-0.2,0.2C58.9,21.5,58.5,21.5,58.2,21.5L58.2,21.5z"/>
	<path class="st0" d="M58.1,21.8c0.4,0,0.7,0,1.1,0c0.1,0,0.2,0,0.2,0.1s0,0.2-0.1,0.2c-0.8,0-1.6,0-2.3,0c-0.1,0-0.1-0.1-0.1-0.1
		c0-0.1,0-0.2,0.2-0.2C57.3,21.8,57.7,21.8,58.1,21.8L58.1,21.8z"/>
	<path class="st0" d="M63.6,25.7c0.1-0.1,0.1,0,0.2,0c0.7,0,1.3,0,2,0c0.1,0,0.2,0,0.2,0c0.1,0.1,0.3,0.1,0.3,0.3c0,0.1-0.2,0-0.3,0
		c-0.7,0-1.3,0-2,0C63.8,26,63.7,25.8,63.6,25.7z"/>
	<path class="st0" d="M78.3,27.4c-0.8,0.1-1.6,0.2-2.5,0.3c-0.3,0-0.6-0.1-1-0.2c0.4,0,0.8-0.1,1.2-0.1c0.4,0,0.8-0.1,1.2-0.1
		C77.6,27.2,78,27.3,78.3,27.4z"/>
	<path class="st0" d="M68,24.3c-0.8,0-1.6-0.1-2.3-0.1c-0.1,0-0.1,0-0.2,0s-0.1-0.1-0.1-0.2s0.1-0.1,0.2-0.1c0.9,0,1.7,0.1,2.6,0.1
		c0.1,0,0.2,0,0.2,0.2C68.3,24.4,68.1,24.3,68,24.3z"/>
	<path class="st0" d="M56.9,19.5c0.1,0,0.1,0,0.2,0c0.1,0,0.2-0.1,0.2,0.1c0,0.1,0,0.2-0.2,0.2s-0.4,0-0.6,0c-0.7,0-1.3,0.1-2,0.1
		c-0.1,0-0.2,0.1-0.2-0.1c0-0.1,0.1-0.2,0.2-0.2c0.5,0,1-0.1,1.5-0.1C56.3,19.5,56.6,19.5,56.9,19.5L56.9,19.5z"/>
	<path class="st0" d="M66.5,25.7c0.9,0,1.8,0,2.7,0c0.2,0,0.3,0.1,0.4,0.3c-0.4,0-0.8,0-1.1,0c-0.5,0-0.9,0-1.4,0
		C66.9,26,66.7,25.9,66.5,25.7z"/>
	<path class="st0" d="M63.7,24.4c0.5,0,0.9,0,1.3,0.1c0.1,0,0.2,0,0.2,0.1s0.1,0.1,0.1,0.2s-0.1,0-0.2,0c-0.8,0-1.5,0-2.3-0.1
		c-0.1,0-0.2,0-0.2-0.1c-0.1-0.1-0.1-0.2,0.1-0.2C63.1,24.4,63.5,24.4,63.7,24.4z"/>
	<path class="st0" d="M46.2,18.8c0.4-0.1,0.8-0.2,1.1-0.3c0.8-0.2,1.6-0.4,2.3-0.6c0.1,0,0.1,0,0.2,0c0.1,0,0.1,0.1,0.1,0.1
		c0,0.1-0.1,0.1-0.1,0.1c-1.1,0.2-2.2,0.5-3.3,0.9C46.4,19,46.3,18.9,46.2,18.8z"/>
	<path class="st0" d="M67.1,24.8c-0.4,0-0.8,0-1.2,0c-0.1,0-0.2,0-0.3-0.1c0-0.1-0.1-0.1-0.1-0.2s0.1,0,0.2,0c0.8,0,1.6,0.1,2.5,0.1
		c0.1,0,0.1,0,0.2,0s0.2,0.1,0.2,0.2s-0.1,0.1-0.2,0.1C67.9,24.9,67.5,24.9,67.1,24.8C67.1,24.9,67.1,24.8,67.1,24.8z"/>
	<path class="st0" d="M54,19.9c0,0.1-0.1,0.1-0.2,0.1c-0.9,0.1-1.7,0.2-2.6,0.4c-0.1,0-0.2,0.1-0.2-0.1c0-0.1,0-0.2,0.1-0.2
		c0.3-0.1,0.6-0.1,0.8-0.2c0.6-0.1,1.2-0.2,1.8-0.3C53.9,19.7,54,19.7,54,19.9z"/>
	<path class="st0" d="M51.1,19.3c-0.1,0-0.2,0-0.2-0.1s0.1-0.1,0.1-0.1c0.7-0.1,1.4-0.2,2-0.3c0.3,0,0.6-0.1,0.9-0.1
		c0.1,0,0.2,0,0.2,0.1S54,18.9,53.9,19c-0.7,0.1-1.4,0.2-2.1,0.3C51.6,19.2,51.3,19.3,51.1,19.3z"/>
	<path class="st0" d="M45.7,18.5c0.1-0.1,0.1-0.1,0.2-0.1c1.1-0.3,2.2-0.6,3.3-0.8c0.1,0,0.2,0,0.3,0.1c-0.1,0.1-0.2,0.1-0.3,0.1
		C48.1,18,47,18.3,46,18.6C46,18.6,45.8,18.6,45.7,18.5z"/>
	<path class="st0" d="M54.5,19.4c-0.1,0-0.1,0-0.1-0.1s0-0.2,0.1-0.2c0.2,0,0.4,0,0.5,0c0.7,0,1.4-0.1,2.2-0.1
		c0.1,0,0.2-0.1,0.2,0.1c0,0.1-0.1,0.2-0.2,0.2c-0.4,0-0.8,0-1.2,0.1C55.5,19.3,55,19.3,54.5,19.4z"/>
	<path class="st0" d="M78.6,27.1c0.7-0.1,1.5-0.2,2.2-0.3c0.5-0.1,0.9-0.1,1.4,0c-0.3,0.1-0.6,0.1-1,0.2c-0.5,0.1-1.1,0.2-1.6,0.2
		C79.4,27.3,79,27.2,78.6,27.1z"/>
	<path class="st0" d="M58.6,20.3c-0.4,0-0.8,0-1.1,0c-0.1,0-0.2,0.1-0.2-0.1c0-0.1,0.1-0.2,0.2-0.2c0.2,0,0.5,0,0.7,0
		c0.6,0,1.1,0,1.7,0c0.1,0,0.2-0.1,0.2,0.1c0,0.1-0.1,0.2-0.3,0.2C59.4,20.4,59,20.4,58.6,20.3C58.6,20.4,58.6,20.3,58.6,20.3z"/>
	<path class="st0" d="M71.6,26.9c-0.5,0-1,0.1-1.5,0.1c-0.2,0-0.5,0-0.7,0c-0.3,0-0.6-0.1-0.9-0.3c0.2,0,0.3,0,0.5,0
		c0.6,0,1.2,0,1.8-0.1C71.1,26.7,71.3,26.7,71.6,26.9z"/>
	<path class="st0" d="M64.2,25.1c0.4,0,0.8,0,1.1,0c0.1,0,0.1,0,0.2,0s0.2,0.1,0.1,0.2c0,0.1-0.1,0.1-0.2,0.1c-0.7,0-1.4,0-2.1,0
		h-0.1c-0.1,0-0.3-0.2-0.3-0.3c0-0.1,0.2-0.1,0.3-0.1C63.6,25,63.9,25,64.2,25.1C64.2,25,64.2,25,64.2,25.1z"/>
	<path class="st0" d="M51.1,19.9c-0.1,0-0.1,0-0.1-0.1s0.1-0.1,0.1-0.1c0.4-0.1,0.7-0.1,1.1-0.2c0.5-0.1,1.1-0.2,1.6-0.2
		c0.1,0,0.2-0.1,0.2,0.1s-0.1,0.1-0.2,0.2C52.9,19.7,52.1,19.8,51.1,19.9C51.3,19.9,51.2,19.9,51.1,19.9z"/>
	<path class="st0" d="M50.3,18.4c0,0.1-0.1,0.1-0.2,0.1c-0.9,0.2-1.7,0.4-2.5,0.6c-0.2,0.1-0.3,0.1-0.5,0.2H47
		c-0.1,0-0.2-0.1-0.2-0.1c0-0.1,0.1-0.1,0.1-0.1c0.6-0.2,1.2-0.3,1.8-0.5c0.5-0.1,0.9-0.2,1.4-0.3C50.2,18.3,50.3,18.3,50.3,18.4z"
		/>
	<path class="st0" d="M67.4,26.2c0.6,0,1.2,0,1.8,0c0.2,0,0.4,0,0.6,0s0.4,0.1,0.6,0.2c-0.1,0.1-0.2,0.1-0.2,0.1
		c-0.7,0-1.4,0.1-2.2,0.1C67.7,26.5,67.6,26.4,67.4,26.2z"/>
	<path class="st0" d="M73.3,27.1c0.3,0,0.6,0,0.9-0.1c0.6,0,1.1-0.1,1.7-0.1c0.2,0,0.5,0.1,0.7,0.2c-0.4,0-0.8,0.1-1.2,0.1
		c-0.3,0-0.6,0-0.9,0.1C74,27.3,73.6,27.3,73.3,27.1z"/>
	<path class="st0" d="M69.9,25.7c0.1-0.1,0.1,0,0.2,0c0.9,0,1.8,0,2.7,0c0.1,0,0.2,0,0.4,0.2c-0.3,0-0.6,0-0.8,0c-0.7,0-1.3,0-2,0.1
		C70.1,25.9,70,25.8,69.9,25.7z"/>
	<path class="st0" d="M54,18.2c0.1,0,0.1,0,0.1,0.1s0,0.1-0.1,0.1c-0.3,0-0.6,0.1-1,0.1c-0.7,0.1-1.4,0.2-2.1,0.3
		c-0.1,0-0.2,0.1-0.2-0.1c0-0.1,0.1-0.1,0.2-0.1c0.7-0.1,1.4-0.2,2.1-0.3C53.4,18.2,53.7,18.2,54,18.2z"/>
	<path class="st0" d="M76.9,26.8c0.8-0.1,1.6-0.2,2.3-0.3c0.2,0,0.5-0.1,0.7-0.1s0.4,0.1,0.6,0.1c0,0.1-0.1,0.1-0.2,0.1
		c-0.9,0.1-1.8,0.2-2.7,0.3C77.4,27,77.2,26.9,76.9,26.8z"/>
	<path class="st0" d="M71.8,26.6c0.7,0,1.3-0.1,1.9-0.1c0.3,0,0.5,0,0.8,0s0.5,0,0.7,0.2c-0.6,0-1.2,0.1-1.8,0.1c-0.2,0-0.5,0-0.7,0
		C72.3,26.9,72.1,26.8,71.8,26.6z"/>
	<path class="st0" d="M74,26.3c-0.5,0-1.1,0.1-1.6,0.1c-0.3,0-0.6,0-0.9,0s-0.5,0-0.7-0.2c0-0.1,0.1,0,0.1,0c0.9,0,1.7-0.1,2.6-0.1
		C73.7,26.1,73.8,26.1,74,26.3z"/>
	<path class="st0" d="M75.5,26.5c0.7-0.2,3.2-0.3,3.5-0.2C78.2,26.5,76,26.6,75.5,26.5z"/>
	<path class="st0" d="M72.5,25.4c-0.4,0-0.9,0-1.3,0c-0.5,0-1,0-1.5,0c-0.2,0-0.3,0-0.4-0.2c0-0.1,0.1,0,0.1,0c0.9,0,1.9,0,2.8,0
		C72.3,25.2,72.4,25.2,72.5,25.4z"/>
	<path class="st0" d="M74.3,26c0.8-0.1,1.5-0.1,2.3-0.2c0.3,0,0.6,0,0.9-0.1c0.2,0,0.3,0,0.5,0.1c-0.8,0.1-1.6,0.1-2.4,0.2
		c-0.2,0-0.4,0-0.7,0C74.8,26.2,74.6,26.2,74.3,26z"/>
	<path class="st0" d="M15.6,24.3C15.5,24.3,15.5,24.3,15.6,24.3C15.5,24.3,15.5,24.3,15.6,24.3L15.6,24.3z"/>
	<path class="st0" d="M13,23.9C13.1,23.9,13.1,23.9,13,23.9C13.1,23.9,13.1,23.9,13,23.9C13.1,23.9,13.1,23.9,13,23.9z"/>
	<path class="st0" d="M23.6,21.9C23.6,21.9,23.6,21.8,23.6,21.9L23.6,21.9L23.6,21.9z"/>
	<path class="st0" d="M22.5,21.9L22.5,21.9C22.5,21.9,22.5,21.8,22.5,21.9C22.5,21.8,22.5,21.9,22.5,21.9z"/>
	<path class="st0" d="M26.4,21.1L26.4,21.1L26.4,21.1L26.4,21.1L26.4,21.1z"/>
	<path class="st0" d="M25.5,21L25.5,21L25.5,21L25.5,21L25.5,21z"/>
	<path class="st0" d="M17.3,22.4C17.3,22.3,17.3,22.3,17.3,22.4L17.3,22.4L17.3,22.4z"/>
	<path class="st0" d="M8.4,25.8C8.5,25.8,8.5,25.8,8.4,25.8C8.5,25.8,8.5,25.8,8.4,25.8C8.5,25.8,8.5,25.8,8.4,25.8z"/>
	<path class="st0" d="M30.5,19.9L30.5,19.9L30.5,19.9z"/>
	<path class="st0" d="M14,25.2C14,25.2,14.1,25.2,14,25.2C14.1,25.2,14.1,25.2,14,25.2C14.1,25.2,14,25.2,14,25.2z"/>
	<path class="st0" d="M10.2,26.8C10.2,26.8,10.2,26.9,10.2,26.8C10.2,26.9,10.2,26.8,10.2,26.8L10.2,26.8L10.2,26.8z"/>
	<path class="st0" d="M17.7,28.2L17.7,28.2C17.7,28.1,17.7,28.1,17.7,28.2C17.7,28.1,17.7,28.1,17.7,28.2z"/>
	<path class="st0" d="M24.8,23.5L24.8,23.5L24.8,23.5z"/>
	<path class="st0" d="M17.5,23.9C17.5,23.8,17.6,23.8,17.5,23.9C17.6,23.9,17.6,23.9,17.5,23.9L17.5,23.9z"/>
	<path class="st0" d="M15.1,29.1L15.1,29.1L15.1,29.1L15.1,29.1z"/>
	<path class="st0" d="M8.8,29.2C8.8,29.2,8.8,29.3,8.8,29.2C8.7,29.2,8.8,29.2,8.8,29.2L8.8,29.2z"/>
	<path class="st0" d="M17.2,25.9C17.3,25.9,17.3,25.9,17.2,25.9C17.3,25.9,17.3,26,17.2,25.9C17.3,26,17.3,26,17.2,25.9z"/>
	<path class="st0" d="M15.6,26.3C15.6,26.3,15.5,26.3,15.6,26.3C15.5,26.3,15.5,26.3,15.6,26.3L15.6,26.3z"/>
	<path class="st0" d="M11.6,25.9L11.6,25.9C11.5,25.9,11.5,25.9,11.6,25.9L11.6,25.9z"/>
	<path class="st0" d="M12.3,27.6L12.3,27.6L12.3,27.6L12.3,27.6z"/>
	<path class="st0" d="M21.1,21.1C21.1,21.1,21.2,21.1,21.1,21.1C21.2,21.1,21.2,21.1,21.1,21.1C21.2,21.1,21.1,21.1,21.1,21.1
		L21.1,21.1z"/>
</g>
<g>
	<path class="st1" d="M18.8,4.7v9.4h-1.2V4.7H18.8z"/>
	<path class="st1" d="M23.8,9.9v0.9h-3.5V9.9H23.8z"/>
	<path class="st1" d="M25.1,12.6c0.5,0.3,1.3,0.6,2.2,0.6c1.2,0,2-0.7,2-1.6c0-0.9-0.5-1.4-1.8-1.9C25.9,9.2,25,8.4,25,7.1
		c0-1.5,1.2-2.6,3.1-2.6c1,0,1.7,0.2,2.1,0.5l-0.3,1c-0.3-0.2-0.9-0.4-1.8-0.4c-1.3,0-1.8,0.8-1.8,1.4c0,0.9,0.6,1.3,1.9,1.8
		c1.6,0.6,2.4,1.4,2.4,2.8c0,1.5-1.1,2.7-3.3,2.7c-0.9,0-1.9-0.3-2.4-0.6L25.1,12.6z"/>
	<path class="st1" d="M33.9,5.7H31v-1h7v1h-2.9v8.4h-1.2C33.9,14.1,33.9,5.7,33.9,5.7z"/>
	<path class="st1" d="M46.8,9.3c0,3.3-2,5-4.4,5c-2.5,0-4.2-1.9-4.2-4.8c0-3,1.9-5,4.4-5S46.8,6.5,46.8,9.3z M39.5,9.5
		c0,2,1.1,3.8,3,3.8s3-1.8,3-3.9c0-1.9-1-3.8-3-3.8C40.5,5.5,39.5,7.4,39.5,9.5z"/>
	<path class="st1" d="M48.4,4.8c0.6-0.1,1.5-0.2,2.3-0.2c1.3,0,2.1,0.2,2.7,0.8c0.5,0.4,0.7,1.1,0.7,1.8c0,1.2-0.8,2.1-1.8,2.4l0,0
		c0.7,0.3,1.2,0.9,1.4,1.9c0.3,1.3,0.5,2.2,0.7,2.6h-1.3c-0.2-0.3-0.4-1.1-0.6-2.3c-0.3-1.3-0.8-1.8-1.9-1.8h-1.1v4.1h-1.2L48.4,4.8
		L48.4,4.8z M49.6,9.1h1.2c1.3,0,2.1-0.7,2.1-1.8c0-1.2-0.9-1.8-2.2-1.8c-0.6,0-1,0.1-1.2,0.1v3.5H49.6z"/>
	<path class="st1" d="M63.9,10c-0.1-1.3-0.2-2.9-0.1-4.1l0,0C63.4,7,63,8.2,62.5,9.5l-1.7,4.6h-0.9l-1.5-4.5
		c-0.4-1.3-0.8-2.5-1.1-3.7l0,0c0,1.2-0.1,2.8-0.2,4.2l-0.3,4h-1.2l0.7-9.4h1.6l1.6,4.6c0.4,1.2,0.7,2.2,1,3.2l0,0
		c0.2-1,0.6-2,1-3.2l1.7-4.6h1.6l0.6,9.4h-1.2L63.9,10z"/>
	<path class="st1" d="M67,12.6c0.5,0.3,1.3,0.6,2.2,0.6c1.2,0,2-0.7,2-1.6c0-0.9-0.5-1.4-1.8-1.9c-1.5-0.5-2.5-1.3-2.5-2.7
		c0-1.5,1.2-2.6,3.1-2.6c1,0,1.7,0.2,2.1,0.5l-0.3,1c-0.3-0.2-0.9-0.4-1.8-0.4c-1.3,0-1.8,0.8-1.8,1.4c0,0.9,0.6,1.3,1.9,1.8
		c1.6,0.6,2.4,1.4,2.4,2.8c0,1.5-1.1,2.7-3.3,2.7c-0.9,0-1.9-0.3-2.4-0.6L67,12.6z"/>
</g>
</svg>
